<?xml version="1.0" encoding="utf-8" standalone="no"?>
<!DOCTYPE svg PUBLIC "-//W3C//DTD SVG 1.1//EN"
  "http://www.w3.org/Graphics/SVG/1.1/DTD/svg11.dtd">
<svg xmlns:xlink="http://www.w3.org/1999/xlink" width="137.99952pt" height="130.79952pt" viewBox="0 0 137.99952 130.79952" xmlns="http://www.w3.org/2000/svg" version="1.1">
 <metadata>
  <rdf:RDF xmlns:dc="http://purl.org/dc/elements/1.1/" xmlns:cc="http://creativecommons.org/ns#" xmlns:rdf="http://www.w3.org/1999/02/22-rdf-syntax-ns#">
   <cc:Work>
    <dc:type rdf:resource="http://purl.org/dc/dcmitype/StillImage"/>
    <dc:date>2025-11-06T14:37:27.866666</dc:date>
    <dc:format>image/svg+xml</dc:format>
    <dc:creator>
     <cc:Agent>
      <dc:title>Matplotlib v3.10.7, https://matplotlib.org/</dc:title>
     </cc:Agent>
    </dc:creator>
   </cc:Work>
  </rdf:RDF>
 </metadata>
 <defs>
  <style type="text/css">*{stroke-linejoin: round; stroke-linecap: butt}</style>
 </defs>
 <g id="figure_1">
  <g id="patch_1">
   <path d="M 0 130.79952 
L 137.99952 130.79952 
L 137.99952 0 
L 0 0 
z
" style="fill: #ffffff"/>
  </g>
  <g id="axes_1">
   <g id="patch_2">
    <path d="M 37.067188 101.269832 
L 137.99952 101.269832 
L 137.99952 0 
L 37.067188 0 
z
" style="fill: #ffffff"/>
   </g>
   <g id="FillBetweenPolyCollection_1">
    <defs>
     <path id="m4443a17b94" d="M 47.80467 -106.771308 
L 47.80467 -106.771308 
L 69.279634 -106.771308 
L 90.754598 -106.771308 
L 112.229563 -106.771308 
L 133.704527 -106.771308 
L 133.704527 -106.771308 
L 133.704527 -106.771308 
L 112.229563 -106.771308 
L 90.754598 -106.771308 
L 69.279634 -106.771308 
L 47.80467 -106.771308 
z
" style="stroke: #000000; stroke-opacity: 0.2"/>
    </defs>
    <g clip-path="url(#ped0529b884)">
     <use xlink:href="#m4443a17b94" x="0" y="130.79952" style="fill-opacity: 0.2; stroke: #000000; stroke-opacity: 0.2"/>
    </g>
   </g>
   <g id="FillBetweenPolyCollection_2">
    <defs>
     <path id="m763dbd7d3a" d="M 47.80467 -106.962276 
L 47.80467 -106.58034 
L 47.80467 -106.58034 
L 47.80467 -106.58034 
L 47.80467 -106.58034 
L 69.279634 -106.58034 
L 69.279634 -106.58034 
L 69.279634 -106.58034 
L 69.279634 -106.58034 
L 90.754598 -106.58034 
L 90.754598 -106.58034 
L 90.754598 -106.58034 
L 90.754598 -106.58034 
L 112.229563 -106.58034 
L 112.229563 -106.58034 
L 112.229563 -106.58034 
L 112.229563 -106.58034 
L 133.704527 -106.58034 
L 133.704527 -106.58034 
L 133.704527 -106.58034 
L 133.704527 -106.58034 
L 133.704527 -106.962276 
L 133.704527 -106.962276 
L 133.704527 -106.962276 
L 133.704527 -106.962276 
L 133.704527 -106.962276 
L 112.229563 -106.962276 
L 112.229563 -106.962276 
L 112.229563 -106.962276 
L 112.229563 -106.962276 
L 90.754598 -106.962276 
L 90.754598 -106.962276 
L 90.754598 -106.962276 
L 90.754598 -106.962276 
L 69.279634 -106.962276 
L 69.279634 -106.962276 
L 69.279634 -106.962276 
L 69.279634 -106.962276 
L 47.80467 -106.962276 
L 47.80467 -106.962276 
L 47.80467 -106.962276 
L 47.80467 -106.962276 
z
" style="stroke: #000000; stroke-opacity: 0.2"/>
    </defs>
    <g clip-path="url(#ped0529b884)">
     <use xlink:href="#m763dbd7d3a" x="0" y="130.79952" style="fill-opacity: 0.2; stroke: #000000; stroke-opacity: 0.2"/>
    </g>
   </g>
   <g id="FillBetweenPolyCollection_3"/>
   <g id="FillBetweenPolyCollection_4">
    <defs>
     <path id="m8b7c58d568" d="M 47.80467 -70.390113 
L 47.80467 -60.870956 
L 69.279634 -67.202223 
L 90.754598 -87.092093 
L 112.229563 -96.088633 
L 133.704527 -102.871941 
L 133.704527 -104.143616 
L 133.704527 -104.143616 
L 112.229563 -99.838734 
L 90.754598 -91.221539 
L 69.279634 -72.586682 
L 47.80467 -70.390113 
z
" style="stroke: #cd2626; stroke-opacity: 0.2"/>
    </defs>
    <g clip-path="url(#ped0529b884)">
     <use xlink:href="#m8b7c58d568" x="0" y="130.79952" style="fill: #cd2626; fill-opacity: 0.2; stroke: #cd2626; stroke-opacity: 0.2"/>
    </g>
   </g>
   <g id="FillBetweenPolyCollection_5"/>
   <g id="FillBetweenPolyCollection_6">
    <defs>
     <path id="m066fcbf216" d="M 47.80467 -64.211903 
L 47.80467 -51.828176 
L 69.279634 -65.726498 
L 90.754598 -83.507226 
L 112.229563 -104.93966 
L 133.704527 -115.806725 
L 133.704527 -117.763694 
L 133.704527 -117.763694 
L 112.229563 -110.220183 
L 90.754598 -90.766855 
L 69.279634 -75.939921 
L 47.80467 -64.211903 
z
" style="stroke: #ffe600; stroke-opacity: 0.2"/>
    </defs>
    <g clip-path="url(#ped0529b884)">
     <use xlink:href="#m066fcbf216" x="0" y="130.79952" style="fill: #ffe600; fill-opacity: 0.2; stroke: #ffe600; stroke-opacity: 0.2"/>
    </g>
   </g>
   <g id="FillBetweenPolyCollection_7"/>
   <g id="FillBetweenPolyCollection_8">
    <defs>
     <path id="mae1cb801fc" d="M 47.80467 -65.693403 
L 47.80467 -59.951982 
L 69.279634 -74.427715 
L 90.754598 -86.82106 
L 112.229563 -95.478782 
L 133.704527 -104.811687 
L 133.704527 -105.792467 
L 133.704527 -105.792467 
L 112.229563 -98.473757 
L 90.754598 -90.531386 
L 69.279634 -78.954267 
L 47.80467 -65.693403 
z
" style="stroke: #009e73; stroke-opacity: 0.2"/>
    </defs>
    <g clip-path="url(#ped0529b884)">
     <use xlink:href="#mae1cb801fc" x="0" y="130.79952" style="fill: #009e73; fill-opacity: 0.2; stroke: #009e73; stroke-opacity: 0.2"/>
    </g>
   </g>
   <g id="FillBetweenPolyCollection_9"/>
   <g id="FillBetweenPolyCollection_10">
    <defs>
     <path id="mfcf151ea91" d="M 69.279634 -76.493921 
L 69.279634 -63.230725 
L 90.754598 -88.329801 
L 112.229563 -108.18695 
L 133.704527 -112.143638 
L 133.704527 -115.422094 
L 133.704527 -115.422094 
L 112.229563 -118.879451 
L 90.754598 -102.071505 
L 69.279634 -76.493921 
z
" style="stroke: #1874cd; stroke-opacity: 0.2"/>
    </defs>
    <g clip-path="url(#ped0529b884)">
     <use xlink:href="#mfcf151ea91" x="0" y="130.79952" style="fill: #1874cd; fill-opacity: 0.2; stroke: #1874cd; stroke-opacity: 0.2"/>
    </g>
   </g>
   <g id="matplotlib.axis_1">
    <g id="xtick_1">
     <g id="line2d_1">
      <defs>
       <path id="me08d18d4af" d="M 0 0 
L 0 3.5 
" style="stroke: #000000"/>
      </defs>
      <g>
       <use xlink:href="#me08d18d4af" x="37.067188" y="101.269832" style="stroke: #000000"/>
      </g>
     </g>
     <g id="text_1">
      <text font-family="Arial" font-size="10" style="font-size: 10px; font-family: 'Arial'; text-anchor: middle" x="37.067188" y="115.427645" transform="rotate(-0 37.067188 115.427645)">0</text>
     </g>
    </g>
    <g id="xtick_2">
     <g id="line2d_2">
      <g>
       <use xlink:href="#me08d18d4af" x="80.017116" y="101.269832" style="stroke: #000000"/>
      </g>
     </g>
     <g id="text_2">
      <text font-family="Arial" font-size="10" style="font-size: 10px; font-family: 'Arial'; text-anchor: middle" x="80.017116" y="115.427645" transform="rotate(-0 80.017116 115.427645)">2</text>
     </g>
    </g>
    <g id="xtick_3">
     <g id="line2d_3">
      <g>
       <use xlink:href="#me08d18d4af" x="122.967045" y="101.269832" style="stroke: #000000"/>
      </g>
     </g>
     <g id="text_3">
      <text font-family="Arial" font-size="10" style="font-size: 10px; font-family: 'Arial'; text-anchor: middle" x="122.967045" y="115.427645" transform="rotate(-0 122.967045 115.427645)">4</text>
     </g>
    </g>
    <g id="text_4">
     <text font-family="Arial" font-size="10" style="font-size: 10px; font-family: 'Arial'; text-anchor: middle" x="87.533354" y="128.694832" transform="rotate(-0 87.533354 128.694832)">Phylo. dist. (days)</text>
    </g>
   </g>
   <g id="matplotlib.axis_2">
    <g id="ytick_1">
     <g id="line2d_4">
      <defs>
       <path id="m4827967b6a" d="M 0 0 
L -3.5 0 
" style="stroke: #000000"/>
      </defs>
      <g>
       <use xlink:href="#m4827967b6a" x="37.067188" y="101.269832" style="stroke: #000000"/>
      </g>
     </g>
     <g id="text_5">
      <text font-family="Arial" font-size="10" style="font-size: 10px; font-family: 'Arial'; text-anchor: end" x="30.067188" y="104.848739" transform="rotate(-0 30.067188 104.848739)">0</text>
     </g>
    </g>
    <g id="ytick_2">
     <g id="line2d_5">
      <g>
       <use xlink:href="#m4827967b6a" x="37.067188" y="72.335595" style="stroke: #000000"/>
      </g>
     </g>
     <g id="text_6">
      <text font-family="Arial" font-size="10" style="font-size: 10px; font-family: 'Arial'; text-anchor: end" x="30.067188" y="75.914501" transform="rotate(-0 30.067188 75.914501)">100</text>
     </g>
    </g>
    <g id="ytick_3">
     <g id="line2d_6">
      <g>
       <use xlink:href="#m4827967b6a" x="37.067188" y="43.401357" style="stroke: #000000"/>
      </g>
     </g>
     <g id="text_7">
      <text font-family="Arial" font-size="10" style="font-size: 10px; font-family: 'Arial'; text-anchor: end" x="30.067188" y="46.980263" transform="rotate(-0 30.067188 46.980263)">200</text>
     </g>
    </g>
    <g id="ytick_4">
     <g id="line2d_7">
      <g>
       <use xlink:href="#m4827967b6a" x="37.067188" y="14.467119" style="stroke: #000000"/>
      </g>
     </g>
     <g id="text_8">
      <text font-family="Arial" font-size="10" style="font-size: 10px; font-family: 'Arial'; text-anchor: end" x="30.067188" y="18.046025" transform="rotate(-0 30.067188 18.046025)">300</text>
     </g>
    </g>
    <g id="text_9">
     <text font-family="Arial" font-size="10" style="font-size: 10px; font-family: 'Arial'; text-anchor: middle" x="7.279688" y="50.634916" transform="rotate(-90 7.279688 50.634916)">Mean spatial dist. (um)</text>
    </g>
   </g>
   <g id="line2d_8">
    <path d="M 47.80467 24.028212 
L 69.279634 24.028212 
L 90.754598 24.028212 
L 112.229563 24.028212 
L 133.704527 24.028212 
" clip-path="url(#ped0529b884)" style="fill: none; stroke: #000000; stroke-width: 2; stroke-linecap: square"/>
   </g>
   <g id="line2d_9">
    <path d="M 47.80467 65.168986 
L 69.279634 60.905067 
L 90.754598 41.642704 
L 112.229563 32.835836 
L 133.704527 27.291742 
" clip-path="url(#ped0529b884)" style="fill: none; stroke: #cd2626; stroke-width: 2; stroke-linecap: square"/>
   </g>
   <g id="line2d_10">
    <path d="M 47.80467 72.779481 
L 69.279634 59.96631 
L 90.754598 43.66248 
L 112.229563 23.219599 
L 133.704527 14.014311 
" clip-path="url(#ped0529b884)" style="fill: none; stroke: #ffe600; stroke-width: 2; stroke-linecap: square"/>
   </g>
   <g id="line2d_11">
    <path d="M 47.80467 67.976827 
L 69.279634 54.108529 
L 90.754598 42.123297 
L 112.229563 33.82325 
L 133.704527 25.497443 
" clip-path="url(#ped0529b884)" style="fill: none; stroke: #009e73; stroke-width: 2; stroke-linecap: square"/>
   </g>
   <g id="line2d_12">
    <path d="M 47.80467 87.521926 
L 69.279634 60.937197 
L 90.754598 35.598867 
L 112.229563 17.26632 
L 133.704527 17.016654 
" clip-path="url(#ped0529b884)" style="fill: none; stroke: #1874cd; stroke-width: 2; stroke-linecap: square"/>
   </g>
   <g id="patch_3">
    <path d="M 37.067188 101.269832 
L 37.067188 0 
" style="fill: none; stroke: #000000; stroke-linejoin: miter; stroke-linecap: square"/>
   </g>
   <g id="patch_4">
    <path d="M 37.067188 101.269832 
L 137.99952 101.269832 
" style="fill: none; stroke: #000000; stroke-linejoin: miter; stroke-linecap: square"/>
   </g>
   <g id="legend_1">
    <g id="text_10">
     <text font-family="Arial" font-size="10" style="font-size: 10px; font-family: 'Arial'" transform="translate(78.145614 36.167957)">Detection</text>
     <text font-family="Arial" font-size="10" style="font-size: 10px; font-family: 'Arial'" transform="translate(78.145614 46.744833)">rate</text>
    </g>
    <g id="line2d_13">
     <path d="M 69.535457 54.01202 
L 77.035457 54.01202 
L 84.535457 54.01202 
" style="fill: none; stroke: #cd2626; stroke-width: 2; stroke-linecap: square"/>
    </g>
    <g id="text_11">
     <text font-family="Arial" font-size="10" style="font-size: 10px; font-family: 'Arial'; text-anchor: start" x="89.535457" y="57.51202" transform="rotate(-0 89.535457 57.51202)">(0.6, 0.7]</text>
    </g>
    <g id="line2d_14">
     <path d="M 69.535457 64.896395 
L 77.035457 64.896395 
L 84.535457 64.896395 
" style="fill: none; stroke: #ffe600; stroke-width: 2; stroke-linecap: square"/>
    </g>
    <g id="text_12">
     <text font-family="Arial" font-size="10" style="font-size: 10px; font-family: 'Arial'; text-anchor: start" x="89.535457" y="68.396395" transform="rotate(-0 89.535457 68.396395)">(0.7, 0.8]</text>
    </g>
    <g id="line2d_15">
     <path d="M 69.535457 75.78077 
L 77.035457 75.78077 
L 84.535457 75.78077 
" style="fill: none; stroke: #009e73; stroke-width: 2; stroke-linecap: square"/>
    </g>
    <g id="text_13">
     <text font-family="Arial" font-size="10" style="font-size: 10px; font-family: 'Arial'; text-anchor: start" x="89.535457" y="79.28077" transform="rotate(-0 89.535457 79.28077)">(0.8, 0.9]</text>
    </g>
    <g id="line2d_16">
     <path d="M 69.535457 86.665145 
L 77.035457 86.665145 
L 84.535457 86.665145 
" style="fill: none; stroke: #1874cd; stroke-width: 2; stroke-linecap: square"/>
    </g>
    <g id="text_14">
     <text font-family="Arial" font-size="10" style="font-size: 10px; font-family: 'Arial'; text-anchor: start" x="89.535457" y="90.165145" transform="rotate(-0 89.535457 90.165145)">(0.9, 1.0]</text>
    </g>
   </g>
  </g>
 </g>
 <defs>
  <clipPath id="ped0529b884">
   <rect x="37.067188" y="0" width="100.932332" height="101.269832"/>
  </clipPath>
 </defs>
</svg>
