<?xml version="1.0" encoding="utf-8" standalone="no"?>
<!DOCTYPE svg PUBLIC "-//W3C//DTD SVG 1.1//EN"
  "http://www.w3.org/Graphics/SVG/1.1/DTD/svg11.dtd">
<svg xmlns:xlink="http://www.w3.org/1999/xlink" width="101.99952pt" height="137.99952pt" viewBox="0 0 101.99952 137.99952" xmlns="http://www.w3.org/2000/svg" version="1.1">
 <metadata>
  <rdf:RDF xmlns:dc="http://purl.org/dc/elements/1.1/" xmlns:cc="http://creativecommons.org/ns#" xmlns:rdf="http://www.w3.org/1999/02/22-rdf-syntax-ns#">
   <cc:Work>
    <dc:type rdf:resource="http://purl.org/dc/dcmitype/StillImage"/>
    <dc:date>2025-11-15T15:01:55.815897</dc:date>
    <dc:format>image/svg+xml</dc:format>
    <dc:creator>
     <cc:Agent>
      <dc:title>Matplotlib v3.10.7, https://matplotlib.org/</dc:title>
     </cc:Agent>
    </dc:creator>
   </cc:Work>
  </rdf:RDF>
 </metadata>
 <defs>
  <style type="text/css">*{stroke-linejoin: round; stroke-linecap: butt}</style>
 </defs>
 <g id="figure_1">
  <g id="patch_1">
   <path d="M 0 137.99952 
L 101.99952 137.99952 
L 101.99952 0 
L 0 0 
z
" style="fill: #ffffff"/>
  </g>
  <g id="axes_1">
   <g id="patch_2">
    <path d="M 34.045313 108.708895 
L 101.99952 108.708895 
L 101.99952 0 
L 34.045313 0 
z
" style="fill: #ffffff"/>
   </g>
   <g id="FillBetweenPolyCollection_1">
    <defs>
     <path id="m459fa6de84" d="M 51.888011 -113.738759 
L 50.179717 -113.738759 
L 50.059019 -113.971207 
L 49.925558 -114.203655 
L 49.778663 -114.436103 
L 49.61773 -114.668551 
L 49.442235 -114.900999 
L 49.25175 -115.133448 
L 49.045958 -115.365896 
L 48.824668 -115.598344 
L 48.587828 -115.830792 
L 48.335536 -116.06324 
L 48.068049 -116.295688 
L 47.78579 -116.528137 
L 47.489349 -116.760585 
L 47.179486 -116.993033 
L 46.857126 -117.225481 
L 46.52335 -117.457929 
L 46.179389 -117.690377 
L 45.826603 -117.922825 
L 45.466469 -118.155274 
L 45.100557 -118.387722 
L 44.730508 -118.62017 
L 44.358006 -118.852618 
L 43.984755 -119.085066 
L 43.612451 -119.317514 
L 43.242753 -119.549962 
L 42.877259 -119.782411 
L 42.517482 -120.014859 
L 42.164828 -120.247307 
L 41.82058 -120.479755 
L 41.485879 -120.712203 
L 41.161722 -120.944651 
L 40.848952 -121.177099 
L 40.54826 -121.409548 
L 40.260188 -121.641996 
L 39.985144 -121.874444 
L 39.723412 -122.106892 
L 39.475174 -122.33934 
L 39.240528 -122.571788 
L 39.019516 -122.804236 
L 38.812147 -123.036685 
L 38.618425 -123.269133 
L 38.438373 -123.501581 
L 38.272061 -123.734029 
L 38.119623 -123.966477 
L 37.98128 -124.198925 
L 37.857351 -124.431373 
L 37.748263 -124.663822 
L 37.65456 -124.89627 
L 37.576894 -125.128718 
L 37.516022 -125.361166 
L 37.472796 -125.593614 
L 37.448137 -125.826062 
L 37.443023 -126.05851 
L 37.458451 -126.290959 
L 37.495416 -126.523407 
L 37.554873 -126.755855 
L 37.637703 -126.988303 
L 37.744685 -127.220751 
L 37.876453 -127.453199 
L 38.033476 -127.685648 
L 38.216019 -127.918096 
L 38.424126 -128.150544 
L 38.657601 -128.382992 
L 38.915987 -128.61544 
L 39.198564 -128.847888 
L 39.504347 -129.080336 
L 39.832086 -129.312785 
L 40.18028 -129.545233 
L 40.547192 -129.777681 
L 40.930874 -130.010129 
L 41.329189 -130.242577 
L 41.739843 -130.475025 
L 42.160423 -130.707473 
L 42.58843 -130.939922 
L 43.021317 -131.17237 
L 43.456528 -131.404818 
L 43.891536 -131.637266 
L 44.32388 -131.869714 
L 44.751196 -132.102162 
L 45.171251 -132.33461 
L 45.58197 -132.567059 
L 45.981458 -132.799507 
L 46.368018 -133.031955 
L 46.740169 -133.264403 
L 47.096651 -133.496851 
L 47.436432 -133.729299 
L 47.75871 -133.961747 
L 48.062903 -134.194196 
L 48.34865 -134.426644 
L 48.615792 -134.659092 
L 48.864362 -134.89154 
L 49.09457 -135.123988 
L 49.306781 -135.356436 
L 49.5015 -135.588884 
L 49.67935 -135.821333 
L 49.841052 -136.053781 
L 49.987405 -136.286229 
L 50.119269 -136.518677 
L 50.237547 -136.751125 
L 51.830182 -136.751125 
L 51.830182 -136.751125 
L 51.948459 -136.518677 
L 52.080324 -136.286229 
L 52.226677 -136.053781 
L 52.388379 -135.821333 
L 52.566228 -135.588884 
L 52.760948 -135.356436 
L 52.973159 -135.123988 
L 53.203367 -134.89154 
L 53.451937 -134.659092 
L 53.719079 -134.426644 
L 54.004825 -134.194196 
L 54.309019 -133.961747 
L 54.631296 -133.729299 
L 54.971078 -133.496851 
L 55.32756 -133.264403 
L 55.699711 -133.031955 
L 56.086271 -132.799507 
L 56.485758 -132.567059 
L 56.896477 -132.33461 
L 57.316533 -132.102162 
L 57.743849 -131.869714 
L 58.176192 -131.637266 
L 58.611201 -131.404818 
L 59.046412 -131.17237 
L 59.479299 -130.939922 
L 59.907305 -130.707473 
L 60.327886 -130.475025 
L 60.73854 -130.242577 
L 61.136854 -130.010129 
L 61.520536 -129.777681 
L 61.887449 -129.545233 
L 62.235643 -129.312785 
L 62.563382 -129.080336 
L 62.869164 -128.847888 
L 63.151742 -128.61544 
L 63.410128 -128.382992 
L 63.643602 -128.150544 
L 63.85171 -127.918096 
L 64.034253 -127.685648 
L 64.191275 -127.453199 
L 64.323044 -127.220751 
L 64.430025 -126.988303 
L 64.512856 -126.755855 
L 64.572312 -126.523407 
L 64.609277 -126.290959 
L 64.624706 -126.05851 
L 64.619591 -125.826062 
L 64.594933 -125.593614 
L 64.551706 -125.361166 
L 64.490835 -125.128718 
L 64.413169 -124.89627 
L 64.319465 -124.663822 
L 64.210378 -124.431373 
L 64.086449 -124.198925 
L 63.948106 -123.966477 
L 63.795668 -123.734029 
L 63.629356 -123.501581 
L 63.449304 -123.269133 
L 63.255582 -123.036685 
L 63.048213 -122.804236 
L 62.827201 -122.571788 
L 62.592555 -122.33934 
L 62.344317 -122.106892 
L 62.082585 -121.874444 
L 61.807541 -121.641996 
L 61.519469 -121.409548 
L 61.218776 -121.177099 
L 60.906006 -120.944651 
L 60.58185 -120.712203 
L 60.247149 -120.479755 
L 59.9029 -120.247307 
L 59.550247 -120.014859 
L 59.19047 -119.782411 
L 58.824976 -119.549962 
L 58.455278 -119.317514 
L 58.082974 -119.085066 
L 57.709723 -118.852618 
L 57.337221 -118.62017 
L 56.967171 -118.387722 
L 56.601259 -118.155274 
L 56.241126 -117.922825 
L 55.88834 -117.690377 
L 55.544378 -117.457929 
L 55.210603 -117.225481 
L 54.888242 -116.993033 
L 54.578379 -116.760585 
L 54.281939 -116.528137 
L 53.999679 -116.295688 
L 53.732193 -116.06324 
L 53.479901 -115.830792 
L 53.243061 -115.598344 
L 53.021771 -115.365896 
L 52.815979 -115.133448 
L 52.625493 -114.900999 
L 52.449998 -114.668551 
L 52.289066 -114.436103 
L 52.142171 -114.203655 
L 52.008709 -113.971207 
L 51.888011 -113.738759 
z
" style="stroke: #494949; stroke-width: 0.5"/>
    </defs>
    <g clip-path="url(#p59bca0a0cf)">
     <use xlink:href="#m459fa6de84" x="0" y="137.99952" style="fill: #cd2626; stroke: #494949; stroke-width: 0.5"/>
    </g>
   </g>
   <g id="FillBetweenPolyCollection_2">
    <defs>
     <path id="mc47989c7df" d="M 85.551942 -40.309971 
L 84.469994 -40.309971 
L 84.377117 -40.627489 
L 84.271344 -40.945006 
L 84.151441 -41.262523 
L 84.016154 -41.58004 
L 83.864219 -41.897558 
L 83.694387 -42.215075 
L 83.505443 -42.532592 
L 83.296234 -42.85011 
L 83.065694 -43.167627 
L 82.812875 -43.485144 
L 82.536979 -43.802661 
L 82.237392 -44.120179 
L 81.913718 -44.437696 
L 81.565812 -44.755213 
L 81.193818 -45.07273 
L 80.798196 -45.390248 
L 80.379757 -45.707765 
L 79.939684 -46.025282 
L 79.479557 -46.342799 
L 79.001366 -46.660317 
L 78.50752 -46.977834 
L 78.000846 -47.295351 
L 77.48458 -47.612869 
L 76.962345 -47.930386 
L 76.438126 -48.247903 
L 75.916224 -48.56542 
L 75.401205 -48.882938 
L 74.89784 -49.200455 
L 74.411032 -49.517972 
L 73.945734 -49.835489 
L 73.506862 -50.153007 
L 73.099206 -50.470524 
L 72.727328 -50.788041 
L 72.395472 -51.105558 
L 72.107469 -51.423076 
L 71.866649 -51.740593 
L 71.675761 -52.05811 
L 71.536905 -52.375628 
L 71.451477 -52.693145 
L 71.420127 -53.010662 
L 71.442737 -53.328179 
L 71.518418 -53.645697 
L 71.645524 -53.963214 
L 71.821685 -54.280731 
L 72.04386 -54.598248 
L 72.308405 -54.915766 
L 72.611159 -55.233283 
L 72.947538 -55.5508 
L 73.312643 -55.868317 
L 73.701373 -56.185835 
L 74.10854 -56.503352 
L 74.528982 -56.820869 
L 74.957673 -57.138387 
L 75.389832 -57.455904 
L 75.821006 -57.773421 
L 76.247155 -58.090938 
L 76.664715 -58.408456 
L 77.070643 -58.725973 
L 77.462449 -59.04349 
L 77.83821 -59.361007 
L 78.19656 -59.678525 
L 78.536677 -59.996042 
L 78.858242 -60.313559 
L 79.161397 -60.631076 
L 79.446683 -60.948594 
L 79.714981 -61.266111 
L 79.96744 -61.583628 
L 80.205407 -61.901146 
L 80.430357 -62.218663 
L 80.643827 -62.53618 
L 80.84735 -62.853697 
L 81.042403 -63.171215 
L 81.230358 -63.488732 
L 81.412446 -63.806249 
L 81.589725 -64.123766 
L 81.763063 -64.441284 
L 81.933126 -64.758801 
L 82.100379 -65.076318 
L 82.265095 -65.393835 
L 82.427362 -65.711353 
L 82.587108 -66.02887 
L 82.744122 -66.346387 
L 82.898082 -66.663905 
L 83.048579 -66.981422 
L 83.195147 -67.298939 
L 83.337293 -67.616456 
L 83.474518 -67.933974 
L 83.606342 -68.251491 
L 83.732321 -68.569008 
L 83.852069 -68.886525 
L 83.965265 -69.204043 
L 84.071662 -69.52156 
L 84.171097 -69.839077 
L 84.263486 -70.156594 
L 84.348829 -70.474112 
L 84.427201 -70.791629 
L 84.498749 -71.109146 
L 84.563685 -71.426664 
L 84.622274 -71.744181 
L 85.399663 -71.744181 
L 85.399663 -71.744181 
L 85.458251 -71.426664 
L 85.523187 -71.109146 
L 85.594735 -70.791629 
L 85.673107 -70.474112 
L 85.75845 -70.156594 
L 85.850839 -69.839077 
L 85.950274 -69.52156 
L 86.056671 -69.204043 
L 86.169867 -68.886525 
L 86.289615 -68.569008 
L 86.415595 -68.251491 
L 86.547418 -67.933974 
L 86.684643 -67.616456 
L 86.826789 -67.298939 
L 86.973358 -66.981422 
L 87.123854 -66.663905 
L 87.277814 -66.346387 
L 87.434828 -66.02887 
L 87.594575 -65.711353 
L 87.756841 -65.393835 
L 87.921557 -65.076318 
L 88.088811 -64.758801 
L 88.258873 -64.441284 
L 88.432211 -64.123766 
L 88.60949 -63.806249 
L 88.791578 -63.488732 
L 88.979534 -63.171215 
L 89.174586 -62.853697 
L 89.378109 -62.53618 
L 89.591579 -62.218663 
L 89.816529 -61.901146 
L 90.054497 -61.583628 
L 90.306956 -61.266111 
L 90.575254 -60.948594 
L 90.86054 -60.631076 
L 91.163694 -60.313559 
L 91.485259 -59.996042 
L 91.825376 -59.678525 
L 92.183727 -59.361007 
L 92.559487 -59.04349 
L 92.951293 -58.725973 
L 93.357221 -58.408456 
L 93.774781 -58.090938 
L 94.20093 -57.773421 
L 94.632104 -57.455904 
L 95.064263 -57.138387 
L 95.492955 -56.820869 
L 95.913396 -56.503352 
L 96.320563 -56.185835 
L 96.709293 -55.868317 
L 97.074399 -55.5508 
L 97.410777 -55.233283 
L 97.713531 -54.915766 
L 97.978076 -54.598248 
L 98.200251 -54.280731 
L 98.376412 -53.963214 
L 98.503518 -53.645697 
L 98.5792 -53.328179 
L 98.60181 -53.010662 
L 98.570459 -52.693145 
L 98.485031 -52.375628 
L 98.346175 -52.05811 
L 98.155287 -51.740593 
L 97.914467 -51.423076 
L 97.626464 -51.105558 
L 97.294608 -50.788041 
L 96.92273 -50.470524 
L 96.515074 -50.153007 
L 96.076202 -49.835489 
L 95.610904 -49.517972 
L 95.124096 -49.200455 
L 94.620731 -48.882938 
L 94.105712 -48.56542 
L 93.58381 -48.247903 
L 93.059591 -47.930386 
L 92.537356 -47.612869 
L 92.02109 -47.295351 
L 91.514416 -46.977834 
L 91.02057 -46.660317 
L 90.54238 -46.342799 
L 90.082253 -46.025282 
L 89.64218 -45.707765 
L 89.22374 -45.390248 
L 88.828119 -45.07273 
L 88.456124 -44.755213 
L 88.108219 -44.437696 
L 87.784544 -44.120179 
L 87.484957 -43.802661 
L 87.209061 -43.485144 
L 86.956242 -43.167627 
L 86.725702 -42.85011 
L 86.516493 -42.532592 
L 86.32755 -42.215075 
L 86.157718 -41.897558 
L 86.005783 -41.58004 
L 85.870495 -41.262523 
L 85.750592 -40.945006 
L 85.644819 -40.627489 
L 85.551942 -40.309971 
z
" style="stroke: #494949; stroke-width: 0.5"/>
    </defs>
    <g clip-path="url(#p59bca0a0cf)">
     <use xlink:href="#mc47989c7df" x="0" y="137.99952" style="fill: #d3d3d3; stroke: #494949; stroke-width: 0.5"/>
    </g>
   </g>
   <g id="matplotlib.axis_1">
    <g id="xtick_1">
     <g id="line2d_1">
      <defs>
       <path id="md6d0a4aa7f" d="M 0 0 
L 0 3.5 
" style="stroke: #000000"/>
      </defs>
      <g>
       <use xlink:href="#md6d0a4aa7f" x="51.033864" y="108.708895" style="stroke: #000000"/>
      </g>
     </g>
     <g id="text_1">
      <text font-family="Arial" font-size="10" style="font-size: 10px; font-family: 'Arial'; text-anchor: middle" x="51.033864" y="122.866707" transform="rotate(-0 51.033864 122.866707)">True</text>
     </g>
    </g>
    <g id="xtick_2">
     <g id="line2d_2">
      <g>
       <use xlink:href="#md6d0a4aa7f" x="85.010968" y="108.708895" style="stroke: #000000"/>
      </g>
     </g>
     <g id="text_2">
      <text font-family="Arial" font-size="10" style="font-size: 10px; font-family: 'Arial'; text-anchor: middle" x="85.010968" y="122.866707" transform="rotate(-0 85.010968 122.866707)">Mixed</text>
     </g>
    </g>
    <g id="text_3">
     <text font-family="Arial" font-size="10" style="font-size: 10px; font-family: 'Arial'; text-anchor: middle" x="68.022416" y="136.01202" transform="rotate(-0 68.022416 136.01202)">Barcodes</text>
    </g>
   </g>
   <g id="matplotlib.axis_2">
    <g id="ytick_1">
     <g id="line2d_3">
      <defs>
       <path id="m1fb99c19e8" d="M 0 0 
L -3.5 0 
" style="stroke: #000000"/>
      </defs>
      <g>
       <use xlink:href="#m1fb99c19e8" x="34.045313" y="108.708895" style="stroke: #000000"/>
      </g>
     </g>
     <g id="text_4">
      <text font-family="Arial" font-size="10" style="font-size: 10px; font-family: 'Arial'; text-anchor: end" x="27.045313" y="112.287801" transform="rotate(-0 27.045313 112.287801)">0.0</text>
     </g>
    </g>
    <g id="ytick_2">
     <g id="line2d_4">
      <g>
       <use xlink:href="#m1fb99c19e8" x="34.045313" y="56.942755" style="stroke: #000000"/>
      </g>
     </g>
     <g id="text_5">
      <text font-family="Arial" font-size="10" style="font-size: 10px; font-family: 'Arial'; text-anchor: end" x="27.045313" y="60.521661" transform="rotate(-0 27.045313 60.521661)">0.5</text>
     </g>
    </g>
    <g id="ytick_3">
     <g id="line2d_5">
      <g>
       <use xlink:href="#m1fb99c19e8" x="34.045313" y="5.176614" style="stroke: #000000"/>
      </g>
     </g>
     <g id="text_6">
      <text font-family="Arial" font-size="10" style="font-size: 10px; font-family: 'Arial'; text-anchor: end" x="27.045313" y="8.75552" transform="rotate(-0 27.045313 8.75552)">1.0</text>
     </g>
    </g>
    <g id="text_7">
     <text font-family="Arial" font-size="10" style="font-size: 10px; font-family: 'Arial'; text-anchor: middle" x="7.157813" y="54.354447" transform="rotate(-90 7.157813 54.354447)">Clone Barcode FMI</text>
    </g>
   </g>
   <g id="patch_3">
    <path d="M 34.045313 108.708895 
L 34.045313 0 
" style="fill: none; stroke: #000000; stroke-linejoin: miter; stroke-linecap: square"/>
   </g>
   <g id="patch_4">
    <path d="M 34.045313 108.708895 
L 101.99952 108.708895 
" style="fill: none; stroke: #000000; stroke-linejoin: miter; stroke-linecap: square"/>
   </g>
   <g id="PathCollection_1">
    <defs>
     <path id="m0bf4bca81e" d="M 0 1.5 
C 0.397805 1.5 0.77937 1.341951 1.06066 1.06066 
C 1.341951 0.77937 1.5 0.397805 1.5 0 
C 1.5 -0.397805 1.341951 -0.77937 1.06066 -1.06066 
C 0.77937 -1.341951 0.397805 -1.5 0 -1.5 
C -0.397805 -1.5 -0.77937 -1.341951 -1.06066 -1.06066 
C -1.341951 -0.77937 -1.5 -0.397805 -1.5 0 
C -1.5 0.397805 -1.341951 0.77937 -1.06066 1.06066 
C -0.77937 1.341951 -0.397805 1.5 0 1.5 
z
"/>
    </defs>
    <g clip-path="url(#p59bca0a0cf)">
     <use xlink:href="#m0bf4bca81e" x="51.033864" y="13.344769"/>
     <use xlink:href="#m0bf4bca81e" x="47.903668" y="16.67376"/>
     <use xlink:href="#m0bf4bca81e" x="52.070749" y="9.54169"/>
     <use xlink:href="#m0bf4bca81e" x="49.248121" y="10.873415"/>
     <use xlink:href="#m0bf4bca81e" x="47.322104" y="8.499528"/>
     <use xlink:href="#m0bf4bca81e" x="51.033864" y="17.009628"/>
    </g>
   </g>
   <g id="PathCollection_2">
    <g clip-path="url(#p59bca0a0cf)">
     <use xlink:href="#m0bf4bca81e" x="91.212861" y="84.235285"/>
     <use xlink:href="#m0bf4bca81e" x="88.062862" y="84.237046"/>
     <use xlink:href="#m0bf4bca81e" x="81.879842" y="84.652015"/>
     <use xlink:href="#m0bf4bca81e" x="85.010968" y="84.97993"/>
     <use xlink:href="#m0bf4bca81e" x="85.010968" y="75.216341"/>
     <use xlink:href="#m0bf4bca81e" x="85.010968" y="88.728546"/>
    </g>
   </g>
  </g>
 </g>
 <defs>
  <clipPath id="p59bca0a0cf">
   <rect x="34.045313" y="0" width="67.954207" height="108.708895"/>
  </clipPath>
 </defs>
</svg>
