<?xml version="1.0" encoding="utf-8" standalone="no"?>
<!DOCTYPE svg PUBLIC "-//W3C//DTD SVG 1.1//EN"
  "http://www.w3.org/Graphics/SVG/1.1/DTD/svg11.dtd">
<svg xmlns:xlink="http://www.w3.org/1999/xlink" width="137.99952pt" height="137.99952pt" viewBox="0 0 137.99952 137.99952" xmlns="http://www.w3.org/2000/svg" version="1.1">
 <metadata>
  <rdf:RDF xmlns:dc="http://purl.org/dc/elements/1.1/" xmlns:cc="http://creativecommons.org/ns#" xmlns:rdf="http://www.w3.org/1999/02/22-rdf-syntax-ns#">
   <cc:Work>
    <dc:type rdf:resource="http://purl.org/dc/dcmitype/StillImage"/>
    <dc:date>2025-11-15T15:01:56.846714</dc:date>
    <dc:format>image/svg+xml</dc:format>
    <dc:creator>
     <cc:Agent>
      <dc:title>Matplotlib v3.10.7, https://matplotlib.org/</dc:title>
     </cc:Agent>
    </dc:creator>
   </cc:Work>
  </rdf:RDF>
 </metadata>
 <defs>
  <style type="text/css">*{stroke-linejoin: round; stroke-linecap: butt}</style>
 </defs>
 <g id="figure_1">
  <g id="patch_1">
   <path d="M 0 137.99952 
L 137.99952 137.99952 
L 137.99952 0 
L 0 0 
z
" style="fill: #ffffff"/>
  </g>
  <g id="axes_1">
   <g id="patch_2">
    <path d="M 34.045313 108.469833 
L 137.99952 108.469833 
L 137.99952 3.578906 
L 34.045313 3.578906 
z
" style="fill: #ffffff"/>
   </g>
   <g id="line2d_1">
    <path d="M 97.901599 108.469833 
L 97.901599 3.578906 
" clip-path="url(#p4dac43273b)" style="fill: none; stroke-dasharray: 7.4,3.2; stroke-dashoffset: 0; stroke: #000000; stroke-width: 2"/>
   </g>
   <g id="FillBetweenPolyCollection_1">
    <defs>
     <path id="mb3565002e0" d="M 38.770504 -49.923527 
L 38.770504 -49.808775 
L 50.596723 -53.717971 
L 62.422942 -65.365974 
L 74.249161 -81.847264 
L 86.07538 -98.906001 
L 97.901599 -110.8608 
L 109.727818 -116.913922 
L 121.554037 -120.752364 
L 128.722072 -122.391028 
L 128.722072 -122.410084 
L 128.722072 -122.410084 
L 121.554037 -121.413934 
L 109.727818 -118.081411 
L 97.901599 -111.604808 
L 86.07538 -99.613398 
L 74.249161 -82.818943 
L 62.422942 -66.534866 
L 50.596723 -54.289321 
L 38.770504 -49.923527 
z
"/>
    </defs>
    <g clip-path="url(#p4dac43273b)">
     <use xlink:href="#mb3565002e0" x="0" y="137.99952" style="fill: #d3d3d3; fill-opacity: 0.2"/>
    </g>
   </g>
   <g id="FillBetweenPolyCollection_2">
    <defs>
     <path id="ma0c227bedb" d="M 38.770504 -63.638727 
L 38.770504 -63.536978 
L 50.596723 -71.352898 
L 62.422942 -88.836543 
L 74.249161 -105.787693 
L 86.07538 -118.777536 
L 97.901599 -125.613122 
L 109.727818 -128.703606 
L 121.554037 -129.768924 
L 130.29682 -131.304773 
L 130.29682 -131.51964 
L 130.29682 -131.51964 
L 121.554037 -130.260548 
L 109.727818 -129.455304 
L 97.901599 -126.3281 
L 86.07538 -119.574234 
L 74.249161 -106.46704 
L 62.422942 -90.236207 
L 50.596723 -72.845316 
L 38.770504 -63.638727 
z
"/>
    </defs>
    <g clip-path="url(#p4dac43273b)">
     <use xlink:href="#ma0c227bedb" x="0" y="137.99952" style="fill: #a9a9a9; fill-opacity: 0.2"/>
    </g>
   </g>
   <g id="FillBetweenPolyCollection_3">
    <defs>
     <path id="m2d226b24eb" d="M 38.770504 -53.640906 
L 38.770504 -53.465253 
L 50.596723 -57.487137 
L 62.422942 -74.123323 
L 74.249161 -95.643677 
L 86.07538 -114.164552 
L 97.901599 -122.933626 
L 109.727818 -126.507358 
L 121.554037 -127.831031 
L 131.209482 -128.732123 
L 131.209482 -128.803324 
L 131.209482 -128.803324 
L 121.554037 -128.283783 
L 109.727818 -126.854434 
L 97.901599 -123.63116 
L 86.07538 -115.101123 
L 74.249161 -97.093616 
L 62.422942 -75.689179 
L 50.596723 -58.891525 
L 38.770504 -53.640906 
z
"/>
    </defs>
    <g clip-path="url(#p4dac43273b)">
     <use xlink:href="#m2d226b24eb" x="0" y="137.99952" style="fill: #7f7f7f; fill-opacity: 0.2"/>
    </g>
   </g>
   <g id="FillBetweenPolyCollection_4">
    <defs>
     <path id="m5a117f35ec" d="M 38.770504 -54.053606 
L 38.770504 -53.807185 
L 50.596723 -56.692794 
L 62.422942 -69.017286 
L 74.249161 -88.593621 
L 86.07538 -107.339267 
L 97.901599 -119.259091 
L 109.727818 -124.308901 
L 121.554037 -127.041636 
L 130.740792 -128.952878 
L 130.740792 -129.43536 
L 130.740792 -129.43536 
L 121.554037 -128.154843 
L 109.727818 -125.464189 
L 97.901599 -120.426545 
L 86.07538 -108.708576 
L 74.249161 -90.23995 
L 62.422942 -70.976496 
L 50.596723 -57.74919 
L 38.770504 -54.053606 
z
"/>
    </defs>
    <g clip-path="url(#p4dac43273b)">
     <use xlink:href="#m5a117f35ec" x="0" y="137.99952" style="fill: #545454; fill-opacity: 0.2"/>
    </g>
   </g>
   <g id="FillBetweenPolyCollection_5">
    <defs>
     <path id="m1283d0b18a" d="M 38.770504 -54.26219 
L 38.770504 -54.144449 
L 50.596723 -55.745294 
L 62.422942 -62.21269 
L 74.249161 -79.148465 
L 86.07538 -98.485446 
L 97.901599 -111.345803 
L 109.727818 -117.642051 
L 121.554037 -121.006817 
L 130.588912 -123.281344 
L 130.588912 -123.717418 
L 130.588912 -123.717418 
L 121.554037 -121.864466 
L 109.727818 -118.573032 
L 97.901599 -112.271482 
L 86.07538 -99.936315 
L 74.249161 -80.389478 
L 62.422942 -63.567931 
L 50.596723 -56.469944 
L 38.770504 -54.26219 
z
"/>
    </defs>
    <g clip-path="url(#p4dac43273b)">
     <use xlink:href="#m1283d0b18a" x="0" y="137.99952" style="fill: #2a2a2a; fill-opacity: 0.2"/>
    </g>
   </g>
   <g id="FillBetweenPolyCollection_6">
    <defs>
     <path id="mfacdf16d39" d="M 38.770504 -54.557851 
L 38.770504 -54.317636 
L 50.596723 -58.728794 
L 62.422942 -74.56298 
L 74.249161 -94.546296 
L 86.07538 -109.872028 
L 97.901599 -118.384023 
L 109.727818 -122.911527 
L 121.554037 -125.017971 
L 133.274329 -126.587264 
L 133.274329 -126.966117 
L 133.274329 -126.966117 
L 121.554037 -125.955378 
L 109.727818 -123.898677 
L 97.901599 -119.603909 
L 86.07538 -110.98881 
L 74.249161 -95.603081 
L 62.422942 -76.087339 
L 50.596723 -59.898154 
L 38.770504 -54.557851 
z
"/>
    </defs>
    <g clip-path="url(#p4dac43273b)">
     <use xlink:href="#mfacdf16d39" x="0" y="137.99952" style="fill-opacity: 0.2"/>
    </g>
   </g>
   <g id="matplotlib.axis_1">
    <g id="xtick_1">
     <g id="line2d_2">
      <defs>
       <path id="mce7e843cb2" d="M 0 0 
L 0 3.5 
" style="stroke: #000000"/>
      </defs>
      <g>
       <use xlink:href="#mce7e843cb2" x="50.596723" y="108.469833" style="stroke: #000000"/>
      </g>
     </g>
     <g id="text_1">
      <text font-family="Arial" font-size="10" style="font-size: 10px; font-family: 'Arial'; text-anchor: middle" x="50.596723" y="122.627645" transform="rotate(-0 50.596723 122.627645)">20</text>
     </g>
    </g>
    <g id="xtick_2">
     <g id="line2d_3">
      <g>
       <use xlink:href="#mce7e843cb2" x="74.249161" y="108.469833" style="stroke: #000000"/>
      </g>
     </g>
     <g id="text_2">
      <text font-family="Arial" font-size="10" style="font-size: 10px; font-family: 'Arial'; text-anchor: middle" x="74.249161" y="122.627645" transform="rotate(-0 74.249161 122.627645)">40</text>
     </g>
    </g>
    <g id="xtick_3">
     <g id="line2d_4">
      <g>
       <use xlink:href="#mce7e843cb2" x="97.901599" y="108.469833" style="stroke: #000000"/>
      </g>
     </g>
     <g id="text_3">
      <text font-family="Arial" font-size="10" style="font-size: 10px; font-family: 'Arial'; text-anchor: middle" x="97.901599" y="122.627645" transform="rotate(-0 97.901599 122.627645)">60</text>
     </g>
    </g>
    <g id="xtick_4">
     <g id="line2d_5">
      <g>
       <use xlink:href="#mce7e843cb2" x="121.554037" y="108.469833" style="stroke: #000000"/>
      </g>
     </g>
     <g id="text_4">
      <text font-family="Arial" font-size="10" style="font-size: 10px; font-family: 'Arial'; text-anchor: middle" x="121.554037" y="122.627645" transform="rotate(-0 121.554037 122.627645)">80</text>
     </g>
    </g>
    <g id="text_5">
     <text font-family="Arial" font-size="10" style="font-size: 10px; font-family: 'Arial'; text-anchor: middle" x="86.022416" y="135.894833" transform="rotate(-0 86.022416 135.894833)">Detection rate (%)</text>
    </g>
   </g>
   <g id="matplotlib.axis_2">
    <g id="ytick_1">
     <g id="line2d_6">
      <defs>
       <path id="m70ac01e62d" d="M 0 0 
L -3.5 0 
" style="stroke: #000000"/>
      </defs>
      <g>
       <use xlink:href="#m70ac01e62d" x="34.045313" y="108.469833" style="stroke: #000000"/>
      </g>
     </g>
     <g id="text_6">
      <text font-family="Arial" font-size="10" style="font-size: 10px; font-family: 'Arial'; text-anchor: end" x="27.045313" y="112.048739" transform="rotate(-0 27.045313 112.048739)">0.0</text>
     </g>
    </g>
    <g id="ytick_2">
     <g id="line2d_7">
      <g>
       <use xlink:href="#m70ac01e62d" x="34.045313" y="87.491647" style="stroke: #000000"/>
      </g>
     </g>
     <g id="text_7">
      <text font-family="Arial" font-size="10" style="font-size: 10px; font-family: 'Arial'; text-anchor: end" x="27.045313" y="91.070554" transform="rotate(-0 27.045313 91.070554)">0.2</text>
     </g>
    </g>
    <g id="ytick_3">
     <g id="line2d_8">
      <g>
       <use xlink:href="#m70ac01e62d" x="34.045313" y="66.513462" style="stroke: #000000"/>
      </g>
     </g>
     <g id="text_8">
      <text font-family="Arial" font-size="10" style="font-size: 10px; font-family: 'Arial'; text-anchor: end" x="27.045313" y="70.092368" transform="rotate(-0 27.045313 70.092368)">0.4</text>
     </g>
    </g>
    <g id="ytick_4">
     <g id="line2d_9">
      <g>
       <use xlink:href="#m70ac01e62d" x="34.045313" y="45.535277" style="stroke: #000000"/>
      </g>
     </g>
     <g id="text_9">
      <text font-family="Arial" font-size="10" style="font-size: 10px; font-family: 'Arial'; text-anchor: end" x="27.045313" y="49.114183" transform="rotate(-0 27.045313 49.114183)">0.6</text>
     </g>
    </g>
    <g id="ytick_5">
     <g id="line2d_10">
      <g>
       <use xlink:href="#m70ac01e62d" x="34.045313" y="24.557091" style="stroke: #000000"/>
      </g>
     </g>
     <g id="text_10">
      <text font-family="Arial" font-size="10" style="font-size: 10px; font-family: 'Arial'; text-anchor: end" x="27.045313" y="28.135998" transform="rotate(-0 27.045313 28.135998)">0.8</text>
     </g>
    </g>
    <g id="ytick_6">
     <g id="line2d_11">
      <g>
       <use xlink:href="#m70ac01e62d" x="34.045313" y="3.578906" style="stroke: #000000"/>
      </g>
     </g>
     <g id="text_11">
      <text font-family="Arial" font-size="10" style="font-size: 10px; font-family: 'Arial'; text-anchor: end" x="27.045313" y="7.157812" transform="rotate(-0 27.045313 7.157812)">1.0</text>
     </g>
    </g>
    <g id="text_12">
     <text font-family="Arial" font-size="10" style="font-size: 10px; font-family: 'Arial'; text-anchor: middle" x="7.157813" y="56.024369" transform="rotate(-90 7.157813 56.024369)">Clone Barcode FMI</text>
    </g>
   </g>
   <g id="line2d_12">
    <path d="M 38.770504 88.132205 
L 50.596723 83.999759 
L 62.422942 72.070015 
L 74.249161 55.680873 
L 86.07538 38.751652 
L 97.901599 26.770824 
L 109.727818 20.49282 
L 121.554037 16.938771 
L 128.722072 15.598964 
" clip-path="url(#p4dac43273b)" style="fill: none; stroke: #d3d3d3; stroke-width: 1.5; stroke-linecap: square"/>
   </g>
   <g id="line2d_13">
    <path d="M 38.770504 74.413377 
L 50.596723 65.903532 
L 62.422942 48.457871 
L 74.249161 31.862092 
L 86.07538 18.826613 
L 97.901599 12.0043 
L 109.727818 8.906862 
L 121.554037 7.99146 
L 130.29682 6.587314 
" clip-path="url(#p4dac43273b)" style="fill: none; stroke: #a9a9a9; stroke-width: 1.5; stroke-linecap: square"/>
   </g>
   <g id="line2d_14">
    <path d="M 38.770504 84.445835 
L 50.596723 79.815759 
L 62.422942 63.066996 
L 74.249161 41.617761 
L 86.07538 23.377868 
L 97.901599 14.720595 
L 109.727818 11.315569 
L 121.554037 9.948412 
L 131.209482 9.231797 
" clip-path="url(#p4dac43273b)" style="fill: none; stroke: #7f7f7f; stroke-width: 1.5; stroke-linecap: square"/>
   </g>
   <g id="line2d_15">
    <path d="M 38.770504 84.077835 
L 50.596723 80.773481 
L 62.422942 67.998647 
L 74.249161 48.611186 
L 86.07538 30.028708 
L 97.901599 18.166218 
L 109.727818 13.129652 
L 121.554037 10.386921 
L 130.740792 8.805401 
" clip-path="url(#p4dac43273b)" style="fill: none; stroke: #545454; stroke-width: 1.5; stroke-linecap: square"/>
   </g>
   <g id="line2d_16">
    <path d="M 38.770504 83.796781 
L 50.596723 81.903985 
L 62.422942 75.116485 
L 74.249161 58.235918 
L 86.07538 38.772644 
L 97.901599 26.198912 
L 109.727818 19.929604 
L 121.554037 16.552992 
L 130.588912 14.500139 
" clip-path="url(#p4dac43273b)" style="fill: none; stroke: #2a2a2a; stroke-width: 1.5; stroke-linecap: square"/>
   </g>
   <g id="line2d_17">
    <path d="M 38.770504 83.55966 
L 50.596723 78.679009 
L 62.422942 62.646646 
L 74.249161 42.904362 
L 86.07538 27.575776 
L 97.901599 19.018917 
L 109.727818 14.593089 
L 121.554037 12.512261 
L 133.274329 11.22283 
" clip-path="url(#p4dac43273b)" style="fill: none; stroke: #000000; stroke-width: 1.5; stroke-linecap: square"/>
   </g>
   <g id="line2d_18"/>
   <g id="line2d_19"/>
   <g id="line2d_20"/>
   <g id="line2d_21"/>
   <g id="line2d_22"/>
   <g id="line2d_23"/>
   <g id="patch_3">
    <path d="M 34.045313 108.469833 
L 34.045313 3.578906 
" style="fill: none; stroke: #000000; stroke-linejoin: miter; stroke-linecap: square"/>
   </g>
   <g id="patch_4">
    <path d="M 34.045313 108.469833 
L 137.99952 108.469833 
" style="fill: none; stroke: #000000; stroke-linejoin: miter; stroke-linecap: square"/>
   </g>
   <g id="legend_1">
    <g id="text_13">
     <text font-family="Arial" font-size="10" style="font-size: 10px; font-family: 'Arial'; text-anchor: start" x="104.266707" y="33.610458" transform="rotate(-0 104.266707 33.610458)">clone</text>
    </g>
    <g id="line2d_24">
     <path d="M 103.438582 40.75577 
L 110.938582 40.75577 
L 118.438582 40.75577 
" style="fill: none; stroke: #d3d3d3; stroke-width: 1.5; stroke-linecap: square"/>
    </g>
    <g id="text_14">
     <text font-family="Arial" font-size="10" style="font-size: 10px; font-family: 'Arial'; text-anchor: start" x="123.438582" y="44.25577" transform="rotate(-0 123.438582 44.25577)">1</text>
    </g>
    <g id="line2d_25">
     <path d="M 103.438582 51.401083 
L 110.938582 51.401083 
L 118.438582 51.401083 
" style="fill: none; stroke: #a9a9a9; stroke-width: 1.5; stroke-linecap: square"/>
    </g>
    <g id="text_15">
     <text font-family="Arial" font-size="10" style="font-size: 10px; font-family: 'Arial'; text-anchor: start" x="123.438582" y="54.901083" transform="rotate(-0 123.438582 54.901083)">2</text>
    </g>
    <g id="line2d_26">
     <path d="M 103.438582 62.046395 
L 110.938582 62.046395 
L 118.438582 62.046395 
" style="fill: none; stroke: #7f7f7f; stroke-width: 1.5; stroke-linecap: square"/>
    </g>
    <g id="text_16">
     <text font-family="Arial" font-size="10" style="font-size: 10px; font-family: 'Arial'; text-anchor: start" x="123.438582" y="65.546395" transform="rotate(-0 123.438582 65.546395)">3</text>
    </g>
    <g id="line2d_27">
     <path d="M 103.438582 72.691708 
L 110.938582 72.691708 
L 118.438582 72.691708 
" style="fill: none; stroke: #545454; stroke-width: 1.5; stroke-linecap: square"/>
    </g>
    <g id="text_17">
     <text font-family="Arial" font-size="10" style="font-size: 10px; font-family: 'Arial'; text-anchor: start" x="123.438582" y="76.191708" transform="rotate(-0 123.438582 76.191708)">4</text>
    </g>
    <g id="line2d_28">
     <path d="M 103.438582 83.33702 
L 110.938582 83.33702 
L 118.438582 83.33702 
" style="fill: none; stroke: #2a2a2a; stroke-width: 1.5; stroke-linecap: square"/>
    </g>
    <g id="text_18">
     <text font-family="Arial" font-size="10" style="font-size: 10px; font-family: 'Arial'; text-anchor: start" x="123.438582" y="86.83702" transform="rotate(-0 123.438582 86.83702)">5</text>
    </g>
    <g id="line2d_29">
     <path d="M 103.438582 93.982333 
L 110.938582 93.982333 
L 118.438582 93.982333 
" style="fill: none; stroke: #000000; stroke-width: 1.5; stroke-linecap: square"/>
    </g>
    <g id="text_19">
     <text font-family="Arial" font-size="10" style="font-size: 10px; font-family: 'Arial'; text-anchor: start" x="123.438582" y="97.482333" transform="rotate(-0 123.438582 97.482333)">6</text>
    </g>
   </g>
  </g>
 </g>
 <defs>
  <clipPath id="p4dac43273b">
   <rect x="34.045313" y="3.578906" width="103.954207" height="104.890926"/>
  </clipPath>
 </defs>
</svg>
