<?xml version="1.0" encoding="utf-8" standalone="no"?>
<!DOCTYPE svg PUBLIC "-//W3C//DTD SVG 1.1//EN"
  "http://www.w3.org/Graphics/SVG/1.1/DTD/svg11.dtd">
<svg xmlns:xlink="http://www.w3.org/1999/xlink" width="281.99952pt" height="137.99952pt" viewBox="0 0 281.99952 137.99952" xmlns="http://www.w3.org/2000/svg" version="1.1">
 <metadata>
  <rdf:RDF xmlns:dc="http://purl.org/dc/elements/1.1/" xmlns:cc="http://creativecommons.org/ns#" xmlns:rdf="http://www.w3.org/1999/02/22-rdf-syntax-ns#">
   <cc:Work>
    <dc:type rdf:resource="http://purl.org/dc/dcmitype/StillImage"/>
    <dc:date>2025-11-15T15:01:55.314185</dc:date>
    <dc:format>image/svg+xml</dc:format>
    <dc:creator>
     <cc:Agent>
      <dc:title>Matplotlib v3.10.7, https://matplotlib.org/</dc:title>
     </cc:Agent>
    </dc:creator>
   </cc:Work>
  </rdf:RDF>
 </metadata>
 <defs>
  <style type="text/css">*{stroke-linejoin: round; stroke-linecap: butt}</style>
 </defs>
 <g id="figure_1">
  <g id="patch_1">
   <path d="M 0 137.99952 
L 281.99952 137.99952 
L 281.99952 0 
L 0 0 
z
" style="fill: #ffffff"/>
  </g>
  <g id="axes_1">
   <g id="table_1">
    <g id="patch_2">
     <path d="M 0 44.894649 
L 31.33328 44.894649 
L 31.33328 3.494793 
L 0 3.494793 
z
" style="fill: #ffffff; stroke: #000000; stroke-linejoin: miter"/>
    </g>
    <g id="text_1">
     <text font-family="Arial" font-size="10" style="font-size: 10px; font-family: 'Arial'; text-anchor: middle" x="15.66664" y="26.779877" transform="rotate(-0 15.66664 26.779877)">clone</text>
    </g>
    <g id="patch_3">
     <path d="M 31.33328 44.894649 
L 62.66656 44.894649 
L 62.66656 3.494793 
L 31.33328 3.494793 
z
" style="fill: #ffffff; stroke: #000000; stroke-linejoin: miter"/>
    </g>
    <g id="text_2">
     <text font-family="Arial" font-size="10" style="font-size: 10px; font-family: 'Arial'" transform="translate(44.219451 21.49144)">n</text>
     <text font-family="Arial" font-size="10" style="font-size: 10px; font-family: 'Arial'" transform="translate(36.997576 32.068315)">cells</text>
    </g>
    <g id="patch_4">
     <path d="M 62.66656 44.894649 
L 93.99984 44.894649 
L 93.99984 3.494793 
L 62.66656 3.494793 
z
" style="fill: #ffffff; stroke: #000000; stroke-linejoin: miter"/>
    </g>
    <g id="text_3">
     <text font-family="Arial" font-size="10" style="font-size: 10px; font-family: 'Arial'" transform="translate(70.552731 16.203002)">site</text>
     <text font-family="Arial" font-size="10" style="font-size: 10px; font-family: 'Arial'" transform="translate(70.272262 26.779877)">edit</text>
     <text font-family="Arial" font-size="10" style="font-size: 10px; font-family: 'Arial'" transform="translate(69.998825 37.356752)">frac</text>
    </g>
    <g id="patch_5">
     <path d="M 93.99984 44.894649 
L 125.33312 44.894649 
L 125.33312 3.494793 
L 93.99984 3.494793 
z
" style="fill: #ffffff; stroke: #000000; stroke-linejoin: miter"/>
    </g>
    <g id="text_4">
     <text font-family="Arial" font-size="10" style="font-size: 10px; font-family: 'Arial'" transform="translate(101.605542 21.374252)">avg</text>
     <text font-family="Arial" font-size="10" style="font-size: 10px; font-family: 'Arial'" transform="translate(97.155542 32.068315)">depth</text>
    </g>
    <g id="patch_6">
     <path d="M 125.33312 44.894649 
L 156.6664 44.894649 
L 156.6664 3.494793 
L 125.33312 3.494793 
z
" style="fill: #ffffff; stroke: #000000; stroke-linejoin: miter"/>
    </g>
    <g id="text_5">
     <text font-family="Arial" font-size="10" style="font-size: 10px; font-family: 'Arial'" transform="translate(120.708354 21.49144)">detection</text>
     <text font-family="Arial" font-size="10" style="font-size: 10px; font-family: 'Arial'" transform="translate(132.384916 32.068315)">rate</text>
    </g>
    <g id="patch_7">
     <path d="M 156.6664 44.894649 
L 187.99968 44.894649 
L 187.99968 3.494793 
L 156.6664 3.494793 
z
" style="fill: #ffffff; stroke: #000000; stroke-linejoin: miter"/>
    </g>
    <g id="text_6">
     <text font-family="Arial" font-size="10" style="font-size: 10px; font-family: 'Arial'" transform="translate(162.32679 16.203002)">puro</text>
     <text font-family="Arial" font-size="10" style="font-size: 10px; font-family: 'Arial'" transform="translate(159.82679 26.779877)">mean</text>
     <text font-family="Arial" font-size="10" style="font-size: 10px; font-family: 'Arial'" transform="translate(162.887727 37.356752)">time</text>
    </g>
    <g id="patch_8">
     <path d="M 187.99968 44.894649 
L 219.33296 44.894649 
L 219.33296 3.494793 
L 187.99968 3.494793 
z
" style="fill: #ffffff; stroke: #000000; stroke-linejoin: miter"/>
    </g>
    <g id="text_7">
     <text font-family="Arial" font-size="10" style="font-size: 10px; font-family: 'Arial'" transform="translate(193.105382 16.203002)">blast</text>
     <text font-family="Arial" font-size="10" style="font-size: 10px; font-family: 'Arial'" transform="translate(191.16007 26.779877)">mean</text>
     <text font-family="Arial" font-size="10" style="font-size: 10px; font-family: 'Arial'" transform="translate(194.221007 37.356752)">time</text>
    </g>
    <g id="patch_9">
     <path d="M 219.33296 44.894649 
L 250.66624 44.894649 
L 250.66624 3.494793 
L 219.33296 3.494793 
z
" style="fill: #ffffff; stroke: #000000; stroke-linejoin: miter"/>
    </g>
    <g id="text_8">
     <text font-family="Arial" font-size="10" style="font-size: 10px; font-family: 'Arial'" transform="translate(224.99335 21.49144)">puro</text>
     <text font-family="Arial" font-size="10" style="font-size: 10px; font-family: 'Arial'" transform="translate(228.334756 32.068315)">fmi</text>
    </g>
    <g id="patch_10">
     <path d="M 250.66624 44.894649 
L 281.99952 44.894649 
L 281.99952 3.494793 
L 250.66624 3.494793 
z
" style="fill: #ffffff; stroke: #000000; stroke-linejoin: miter"/>
    </g>
    <g id="text_9">
     <text font-family="Arial" font-size="10" style="font-size: 10px; font-family: 'Arial'" transform="translate(255.771943 21.49144)">blast</text>
     <text font-family="Arial" font-size="10" style="font-size: 10px; font-family: 'Arial'" transform="translate(259.668036 32.068315)">fmi</text>
    </g>
    <g id="patch_11">
     <path d="M 0 59.829662 
L 31.33328 59.829662 
L 31.33328 44.894649 
L 0 44.894649 
z
" style="fill: #ffffff; stroke: #000000; stroke-linejoin: miter"/>
    </g>
    <g id="text_10">
     <text font-family="Arial" font-size="10" style="font-size: 10px; font-family: 'Arial'; text-anchor: middle" x="15.66664" y="54.947312" transform="rotate(-0 15.66664 54.947312)">1.0</text>
    </g>
    <g id="patch_12">
     <path d="M 31.33328 59.829662 
L 62.66656 59.829662 
L 62.66656 44.894649 
L 31.33328 44.894649 
z
" style="fill: #ffffff; stroke: #000000; stroke-linejoin: miter"/>
    </g>
    <g id="text_11">
     <text font-family="Arial" font-size="10" style="font-size: 10px; font-family: 'Arial'; text-anchor: middle" x="46.99992" y="54.947312" transform="rotate(-0 46.99992 54.947312)">9625.0</text>
    </g>
    <g id="patch_13">
     <path d="M 62.66656 59.829662 
L 93.99984 59.829662 
L 93.99984 44.894649 
L 62.66656 44.894649 
z
" style="fill: #ffffff; stroke: #000000; stroke-linejoin: miter"/>
    </g>
    <g id="text_12">
     <text font-family="Arial" font-size="10" style="font-size: 10px; font-family: 'Arial'; text-anchor: middle" x="78.3332" y="54.947312" transform="rotate(-0 78.3332 54.947312)">77.71</text>
    </g>
    <g id="patch_14">
     <path d="M 93.99984 59.829662 
L 125.33312 59.829662 
L 125.33312 44.894649 
L 93.99984 44.894649 
z
" style="fill: #ffffff; stroke: #000000; stroke-linejoin: miter"/>
    </g>
    <g id="text_13">
     <text font-family="Arial" font-size="10" style="font-size: 10px; font-family: 'Arial'; text-anchor: middle" x="109.66648" y="54.947312" transform="rotate(-0 109.66648 54.947312)">11.32</text>
    </g>
    <g id="patch_15">
     <path d="M 125.33312 59.829662 
L 156.6664 59.829662 
L 156.6664 44.894649 
L 125.33312 44.894649 
z
" style="fill: #ffffff; stroke: #000000; stroke-linejoin: miter"/>
    </g>
    <g id="text_14">
     <text font-family="Arial" font-size="10" style="font-size: 10px; font-family: 'Arial'; text-anchor: middle" x="140.99976" y="54.947312" transform="rotate(-0 140.99976 54.947312)">86.06</text>
    </g>
    <g id="patch_16">
     <path d="M 156.6664 59.829662 
L 187.99968 59.829662 
L 187.99968 44.894649 
L 156.6664 44.894649 
z
" style="fill: #ffffff; stroke: #000000; stroke-linejoin: miter"/>
    </g>
    <g id="text_15">
     <text font-family="Arial" font-size="10" style="font-size: 10px; font-family: 'Arial'; text-anchor: middle" x="172.33304" y="54.947312" transform="rotate(-0 172.33304 54.947312)">5.86</text>
    </g>
    <g id="patch_17">
     <path d="M 187.99968 59.829662 
L 219.33296 59.829662 
L 219.33296 44.894649 
L 187.99968 44.894649 
z
" style="fill: #ffffff; stroke: #000000; stroke-linejoin: miter"/>
    </g>
    <g id="text_16">
     <text font-family="Arial" font-size="10" style="font-size: 10px; font-family: 'Arial'; text-anchor: middle" x="203.66632" y="54.947312" transform="rotate(-0 203.66632 54.947312)">7.99</text>
    </g>
    <g id="patch_18">
     <path d="M 219.33296 59.829662 
L 250.66624 59.829662 
L 250.66624 44.894649 
L 219.33296 44.894649 
z
" style="fill: #ffffff; stroke: #000000; stroke-linejoin: miter"/>
    </g>
    <g id="text_17">
     <text font-family="Arial" font-size="10" style="font-size: 10px; font-family: 'Arial'; text-anchor: middle" x="234.9996" y="54.947312" transform="rotate(-0 234.9996 54.947312)">0.92</text>
    </g>
    <g id="patch_19">
     <path d="M 250.66624 59.829662 
L 281.99952 59.829662 
L 281.99952 44.894649 
L 250.66624 44.894649 
z
" style="fill: #ffffff; stroke: #000000; stroke-linejoin: miter"/>
    </g>
    <g id="text_18">
     <text font-family="Arial" font-size="10" style="font-size: 10px; font-family: 'Arial'; text-anchor: middle" x="266.33288" y="54.947312" transform="rotate(-0 266.33288 54.947312)">0.85</text>
    </g>
    <g id="patch_20">
     <path d="M 0 74.764675 
L 31.33328 74.764675 
L 31.33328 59.829662 
L 0 59.829662 
z
" style="fill: #ffffff; stroke: #000000; stroke-linejoin: miter"/>
    </g>
    <g id="text_19">
     <text font-family="Arial" font-size="10" style="font-size: 10px; font-family: 'Arial'; text-anchor: middle" x="15.66664" y="69.882325" transform="rotate(-0 15.66664 69.882325)">2.0</text>
    </g>
    <g id="patch_21">
     <path d="M 31.33328 74.764675 
L 62.66656 74.764675 
L 62.66656 59.829662 
L 31.33328 59.829662 
z
" style="fill: #ffffff; stroke: #000000; stroke-linejoin: miter"/>
    </g>
    <g id="text_20">
     <text font-family="Arial" font-size="10" style="font-size: 10px; font-family: 'Arial'; text-anchor: middle" x="46.99992" y="69.882325" transform="rotate(-0 46.99992 69.882325)">3928.0</text>
    </g>
    <g id="patch_22">
     <path d="M 62.66656 74.764675 
L 93.99984 74.764675 
L 93.99984 59.829662 
L 62.66656 59.829662 
z
" style="fill: #ffffff; stroke: #000000; stroke-linejoin: miter"/>
    </g>
    <g id="text_21">
     <text font-family="Arial" font-size="10" style="font-size: 10px; font-family: 'Arial'; text-anchor: middle" x="78.3332" y="69.882325" transform="rotate(-0 78.3332 69.882325)">62.64</text>
    </g>
    <g id="patch_23">
     <path d="M 93.99984 74.764675 
L 125.33312 74.764675 
L 125.33312 59.829662 
L 93.99984 59.829662 
z
" style="fill: #ffffff; stroke: #000000; stroke-linejoin: miter"/>
    </g>
    <g id="text_22">
     <text font-family="Arial" font-size="10" style="font-size: 10px; font-family: 'Arial'; text-anchor: middle" x="109.66648" y="69.882325" transform="rotate(-0 109.66648 69.882325)">8.76</text>
    </g>
    <g id="patch_24">
     <path d="M 125.33312 74.764675 
L 156.6664 74.764675 
L 156.6664 59.829662 
L 125.33312 59.829662 
z
" style="fill: #ffffff; stroke: #000000; stroke-linejoin: miter"/>
    </g>
    <g id="text_23">
     <text font-family="Arial" font-size="10" style="font-size: 10px; font-family: 'Arial'; text-anchor: middle" x="140.99976" y="69.882325" transform="rotate(-0 140.99976 69.882325)">87.39</text>
    </g>
    <g id="patch_25">
     <path d="M 156.6664 74.764675 
L 187.99968 74.764675 
L 187.99968 59.829662 
L 156.6664 59.829662 
z
" style="fill: #ffffff; stroke: #000000; stroke-linejoin: miter"/>
    </g>
    <g id="text_24">
     <text font-family="Arial" font-size="10" style="font-size: 10px; font-family: 'Arial'; text-anchor: middle" x="172.33304" y="69.882325" transform="rotate(-0 172.33304 69.882325)">2.95</text>
    </g>
    <g id="patch_26">
     <path d="M 187.99968 74.764675 
L 219.33296 74.764675 
L 219.33296 59.829662 
L 187.99968 59.829662 
z
" style="fill: #ffffff; stroke: #000000; stroke-linejoin: miter"/>
    </g>
    <g id="text_25">
     <text font-family="Arial" font-size="10" style="font-size: 10px; font-family: 'Arial'; text-anchor: middle" x="203.66632" y="69.882325" transform="rotate(-0 203.66632 69.882325)">7.29</text>
    </g>
    <g id="patch_27">
     <path d="M 219.33296 74.764675 
L 250.66624 74.764675 
L 250.66624 59.829662 
L 219.33296 59.829662 
z
" style="fill: #ffffff; stroke: #000000; stroke-linejoin: miter"/>
    </g>
    <g id="text_26">
     <text font-family="Arial" font-size="10" style="font-size: 10px; font-family: 'Arial'; text-anchor: middle" x="234.9996" y="69.882325" transform="rotate(-0 234.9996 69.882325)">1.0</text>
    </g>
    <g id="patch_28">
     <path d="M 250.66624 74.764675 
L 281.99952 74.764675 
L 281.99952 59.829662 
L 250.66624 59.829662 
z
" style="fill: #ffffff; stroke: #000000; stroke-linejoin: miter"/>
    </g>
    <g id="text_27">
     <text font-family="Arial" font-size="10" style="font-size: 10px; font-family: 'Arial'; text-anchor: middle" x="266.33288" y="69.882325" transform="rotate(-0 266.33288 69.882325)">0.96</text>
    </g>
    <g id="patch_29">
     <path d="M 0 89.699688 
L 31.33328 89.699688 
L 31.33328 74.764675 
L 0 74.764675 
z
" style="fill: #ffffff; stroke: #000000; stroke-linejoin: miter"/>
    </g>
    <g id="text_28">
     <text font-family="Arial" font-size="10" style="font-size: 10px; font-family: 'Arial'; text-anchor: middle" x="15.66664" y="84.817338" transform="rotate(-0 15.66664 84.817338)">3.0</text>
    </g>
    <g id="patch_30">
     <path d="M 31.33328 89.699688 
L 62.66656 89.699688 
L 62.66656 74.764675 
L 31.33328 74.764675 
z
" style="fill: #ffffff; stroke: #000000; stroke-linejoin: miter"/>
    </g>
    <g id="text_29">
     <text font-family="Arial" font-size="10" style="font-size: 10px; font-family: 'Arial'; text-anchor: middle" x="46.99992" y="84.817338" transform="rotate(-0 46.99992 84.817338)">3592.0</text>
    </g>
    <g id="patch_31">
     <path d="M 62.66656 89.699688 
L 93.99984 89.699688 
L 93.99984 74.764675 
L 62.66656 74.764675 
z
" style="fill: #ffffff; stroke: #000000; stroke-linejoin: miter"/>
    </g>
    <g id="text_30">
     <text font-family="Arial" font-size="10" style="font-size: 10px; font-family: 'Arial'; text-anchor: middle" x="78.3332" y="84.817338" transform="rotate(-0 78.3332 84.817338)">75.24</text>
    </g>
    <g id="patch_32">
     <path d="M 93.99984 89.699688 
L 125.33312 89.699688 
L 125.33312 74.764675 
L 93.99984 74.764675 
z
" style="fill: #ffffff; stroke: #000000; stroke-linejoin: miter"/>
    </g>
    <g id="text_31">
     <text font-family="Arial" font-size="10" style="font-size: 10px; font-family: 'Arial'; text-anchor: middle" x="109.66648" y="84.817338" transform="rotate(-0 109.66648 84.817338)">10.03</text>
    </g>
    <g id="patch_33">
     <path d="M 125.33312 89.699688 
L 156.6664 89.699688 
L 156.6664 74.764675 
L 125.33312 74.764675 
z
" style="fill: #ffffff; stroke: #000000; stroke-linejoin: miter"/>
    </g>
    <g id="text_32">
     <text font-family="Arial" font-size="10" style="font-size: 10px; font-family: 'Arial'; text-anchor: middle" x="140.99976" y="84.817338" transform="rotate(-0 140.99976 84.817338)">88.16</text>
    </g>
    <g id="patch_34">
     <path d="M 156.6664 89.699688 
L 187.99968 89.699688 
L 187.99968 74.764675 
L 156.6664 74.764675 
z
" style="fill: #ffffff; stroke: #000000; stroke-linejoin: miter"/>
    </g>
    <g id="text_33">
     <text font-family="Arial" font-size="10" style="font-size: 10px; font-family: 'Arial'; text-anchor: middle" x="172.33304" y="84.817338" transform="rotate(-0 172.33304 84.817338)">5.07</text>
    </g>
    <g id="patch_35">
     <path d="M 187.99968 89.699688 
L 219.33296 89.699688 
L 219.33296 74.764675 
L 187.99968 74.764675 
z
" style="fill: #ffffff; stroke: #000000; stroke-linejoin: miter"/>
    </g>
    <g id="text_34">
     <text font-family="Arial" font-size="10" style="font-size: 10px; font-family: 'Arial'; text-anchor: middle" x="203.66632" y="84.817338" transform="rotate(-0 203.66632 84.817338)">8.38</text>
    </g>
    <g id="patch_36">
     <path d="M 219.33296 89.699688 
L 250.66624 89.699688 
L 250.66624 74.764675 
L 219.33296 74.764675 
z
" style="fill: #ffffff; stroke: #000000; stroke-linejoin: miter"/>
    </g>
    <g id="text_35">
     <text font-family="Arial" font-size="10" style="font-size: 10px; font-family: 'Arial'; text-anchor: middle" x="234.9996" y="84.817338" transform="rotate(-0 234.9996 84.817338)">0.96</text>
    </g>
    <g id="patch_37">
     <path d="M 250.66624 89.699688 
L 281.99952 89.699688 
L 281.99952 74.764675 
L 250.66624 74.764675 
z
" style="fill: #ffffff; stroke: #000000; stroke-linejoin: miter"/>
    </g>
    <g id="text_36">
     <text font-family="Arial" font-size="10" style="font-size: 10px; font-family: 'Arial'; text-anchor: middle" x="266.33288" y="84.817338" transform="rotate(-0 266.33288 84.817338)">0.94</text>
    </g>
    <g id="patch_38">
     <path d="M 0 104.634701 
L 31.33328 104.634701 
L 31.33328 89.699688 
L 0 89.699688 
z
" style="fill: #ffffff; stroke: #000000; stroke-linejoin: miter"/>
    </g>
    <g id="text_37">
     <text font-family="Arial" font-size="10" style="font-size: 10px; font-family: 'Arial'; text-anchor: middle" x="15.66664" y="99.752351" transform="rotate(-0 15.66664 99.752351)">4.0</text>
    </g>
    <g id="patch_39">
     <path d="M 31.33328 104.634701 
L 62.66656 104.634701 
L 62.66656 89.699688 
L 31.33328 89.699688 
z
" style="fill: #ffffff; stroke: #000000; stroke-linejoin: miter"/>
    </g>
    <g id="text_38">
     <text font-family="Arial" font-size="10" style="font-size: 10px; font-family: 'Arial'; text-anchor: middle" x="46.99992" y="99.752351" transform="rotate(-0 46.99992 99.752351)">3108.0</text>
    </g>
    <g id="patch_40">
     <path d="M 62.66656 104.634701 
L 93.99984 104.634701 
L 93.99984 89.699688 
L 62.66656 89.699688 
z
" style="fill: #ffffff; stroke: #000000; stroke-linejoin: miter"/>
    </g>
    <g id="text_39">
     <text font-family="Arial" font-size="10" style="font-size: 10px; font-family: 'Arial'; text-anchor: middle" x="78.3332" y="99.752351" transform="rotate(-0 78.3332 99.752351)">72.17</text>
    </g>
    <g id="patch_41">
     <path d="M 93.99984 104.634701 
L 125.33312 104.634701 
L 125.33312 89.699688 
L 93.99984 89.699688 
z
" style="fill: #ffffff; stroke: #000000; stroke-linejoin: miter"/>
    </g>
    <g id="text_40">
     <text font-family="Arial" font-size="10" style="font-size: 10px; font-family: 'Arial'; text-anchor: middle" x="109.66648" y="99.752351" transform="rotate(-0 109.66648 99.752351)">9.12</text>
    </g>
    <g id="patch_42">
     <path d="M 125.33312 104.634701 
L 156.6664 104.634701 
L 156.6664 89.699688 
L 125.33312 89.699688 
z
" style="fill: #ffffff; stroke: #000000; stroke-linejoin: miter"/>
    </g>
    <g id="text_41">
     <text font-family="Arial" font-size="10" style="font-size: 10px; font-family: 'Arial'; text-anchor: middle" x="140.99976" y="99.752351" transform="rotate(-0 140.99976 99.752351)">87.77</text>
    </g>
    <g id="patch_43">
     <path d="M 156.6664 104.634701 
L 187.99968 104.634701 
L 187.99968 89.699688 
L 156.6664 89.699688 
z
" style="fill: #ffffff; stroke: #000000; stroke-linejoin: miter"/>
    </g>
    <g id="text_42">
     <text font-family="Arial" font-size="10" style="font-size: 10px; font-family: 'Arial'; text-anchor: middle" x="172.33304" y="99.752351" transform="rotate(-0 172.33304 99.752351)">4.88</text>
    </g>
    <g id="patch_44">
     <path d="M 187.99968 104.634701 
L 219.33296 104.634701 
L 219.33296 89.699688 
L 187.99968 89.699688 
z
" style="fill: #ffffff; stroke: #000000; stroke-linejoin: miter"/>
    </g>
    <g id="text_43">
     <text font-family="Arial" font-size="10" style="font-size: 10px; font-family: 'Arial'; text-anchor: middle" x="203.66632" y="99.752351" transform="rotate(-0 203.66632 99.752351)">7.46</text>
    </g>
    <g id="patch_45">
     <path d="M 219.33296 104.634701 
L 250.66624 104.634701 
L 250.66624 89.699688 
L 219.33296 89.699688 
z
" style="fill: #ffffff; stroke: #000000; stroke-linejoin: miter"/>
    </g>
    <g id="text_44">
     <text font-family="Arial" font-size="10" style="font-size: 10px; font-family: 'Arial'; text-anchor: middle" x="234.9996" y="99.752351" transform="rotate(-0 234.9996 99.752351)">0.96</text>
    </g>
    <g id="patch_46">
     <path d="M 250.66624 104.634701 
L 281.99952 104.634701 
L 281.99952 89.699688 
L 250.66624 89.699688 
z
" style="fill: #ffffff; stroke: #000000; stroke-linejoin: miter"/>
    </g>
    <g id="text_45">
     <text font-family="Arial" font-size="10" style="font-size: 10px; font-family: 'Arial'; text-anchor: middle" x="266.33288" y="99.752351" transform="rotate(-0 266.33288 99.752351)">0.92</text>
    </g>
    <g id="patch_47">
     <path d="M 0 119.569714 
L 31.33328 119.569714 
L 31.33328 104.634701 
L 0 104.634701 
z
" style="fill: #ffffff; stroke: #000000; stroke-linejoin: miter"/>
    </g>
    <g id="text_46">
     <text font-family="Arial" font-size="10" style="font-size: 10px; font-family: 'Arial'; text-anchor: middle" x="15.66664" y="114.687364" transform="rotate(-0 15.66664 114.687364)">5.0</text>
    </g>
    <g id="patch_48">
     <path d="M 31.33328 119.569714 
L 62.66656 119.569714 
L 62.66656 104.634701 
L 31.33328 104.634701 
z
" style="fill: #ffffff; stroke: #000000; stroke-linejoin: miter"/>
    </g>
    <g id="text_47">
     <text font-family="Arial" font-size="10" style="font-size: 10px; font-family: 'Arial'; text-anchor: middle" x="46.99992" y="114.687364" transform="rotate(-0 46.99992 114.687364)">2352.0</text>
    </g>
    <g id="patch_49">
     <path d="M 62.66656 119.569714 
L 93.99984 119.569714 
L 93.99984 104.634701 
L 62.66656 104.634701 
z
" style="fill: #ffffff; stroke: #000000; stroke-linejoin: miter"/>
    </g>
    <g id="text_48">
     <text font-family="Arial" font-size="10" style="font-size: 10px; font-family: 'Arial'; text-anchor: middle" x="78.3332" y="114.687364" transform="rotate(-0 78.3332 114.687364)">72.01</text>
    </g>
    <g id="patch_50">
     <path d="M 93.99984 119.569714 
L 125.33312 119.569714 
L 125.33312 104.634701 
L 93.99984 104.634701 
z
" style="fill: #ffffff; stroke: #000000; stroke-linejoin: miter"/>
    </g>
    <g id="text_49">
     <text font-family="Arial" font-size="10" style="font-size: 10px; font-family: 'Arial'; text-anchor: middle" x="109.66648" y="114.687364" transform="rotate(-0 109.66648 114.687364)">10.03</text>
    </g>
    <g id="patch_51">
     <path d="M 125.33312 119.569714 
L 156.6664 119.569714 
L 156.6664 104.634701 
L 125.33312 104.634701 
z
" style="fill: #ffffff; stroke: #000000; stroke-linejoin: miter"/>
    </g>
    <g id="text_50">
     <text font-family="Arial" font-size="10" style="font-size: 10px; font-family: 'Arial'; text-anchor: middle" x="140.99976" y="114.687364" transform="rotate(-0 140.99976 114.687364)">87.64</text>
    </g>
    <g id="patch_52">
     <path d="M 156.6664 119.569714 
L 187.99968 119.569714 
L 187.99968 104.634701 
L 156.6664 104.634701 
z
" style="fill: #ffffff; stroke: #000000; stroke-linejoin: miter"/>
    </g>
    <g id="text_51">
     <text font-family="Arial" font-size="10" style="font-size: 10px; font-family: 'Arial'; text-anchor: middle" x="172.33304" y="114.687364" transform="rotate(-0 172.33304 114.687364)">5.48</text>
    </g>
    <g id="patch_53">
     <path d="M 187.99968 119.569714 
L 219.33296 119.569714 
L 219.33296 104.634701 
L 187.99968 104.634701 
z
" style="fill: #ffffff; stroke: #000000; stroke-linejoin: miter"/>
    </g>
    <g id="text_52">
     <text font-family="Arial" font-size="10" style="font-size: 10px; font-family: 'Arial'; text-anchor: middle" x="203.66632" y="114.687364" transform="rotate(-0 203.66632 114.687364)">7.68</text>
    </g>
    <g id="patch_54">
     <path d="M 219.33296 119.569714 
L 250.66624 119.569714 
L 250.66624 104.634701 
L 219.33296 104.634701 
z
" style="fill: #ffffff; stroke: #000000; stroke-linejoin: miter"/>
    </g>
    <g id="text_53">
     <text font-family="Arial" font-size="10" style="font-size: 10px; font-family: 'Arial'; text-anchor: middle" x="234.9996" y="114.687364" transform="rotate(-0 234.9996 114.687364)">0.9</text>
    </g>
    <g id="patch_55">
     <path d="M 250.66624 119.569714 
L 281.99952 119.569714 
L 281.99952 104.634701 
L 250.66624 104.634701 
z
" style="fill: #ffffff; stroke: #000000; stroke-linejoin: miter"/>
    </g>
    <g id="text_54">
     <text font-family="Arial" font-size="10" style="font-size: 10px; font-family: 'Arial'; text-anchor: middle" x="266.33288" y="114.687364" transform="rotate(-0 266.33288 114.687364)">0.9</text>
    </g>
    <g id="patch_56">
     <path d="M 0 134.504727 
L 31.33328 134.504727 
L 31.33328 119.569714 
L 0 119.569714 
z
" style="fill: #ffffff; stroke: #000000; stroke-linejoin: miter"/>
    </g>
    <g id="text_55">
     <text font-family="Arial" font-size="10" style="font-size: 10px; font-family: 'Arial'; text-anchor: middle" x="15.66664" y="129.622377" transform="rotate(-0 15.66664 129.622377)">6.0</text>
    </g>
    <g id="patch_57">
     <path d="M 31.33328 134.504727 
L 62.66656 134.504727 
L 62.66656 119.569714 
L 31.33328 119.569714 
z
" style="fill: #ffffff; stroke: #000000; stroke-linejoin: miter"/>
    </g>
    <g id="text_56">
     <text font-family="Arial" font-size="10" style="font-size: 10px; font-family: 'Arial'; text-anchor: middle" x="46.99992" y="129.622377" transform="rotate(-0 46.99992 129.622377)">2201.0</text>
    </g>
    <g id="patch_58">
     <path d="M 62.66656 134.504727 
L 93.99984 134.504727 
L 93.99984 119.569714 
L 62.66656 119.569714 
z
" style="fill: #ffffff; stroke: #000000; stroke-linejoin: miter"/>
    </g>
    <g id="text_57">
     <text font-family="Arial" font-size="10" style="font-size: 10px; font-family: 'Arial'; text-anchor: middle" x="78.3332" y="129.622377" transform="rotate(-0 78.3332 129.622377)">68.66</text>
    </g>
    <g id="patch_59">
     <path d="M 93.99984 134.504727 
L 125.33312 134.504727 
L 125.33312 119.569714 
L 93.99984 119.569714 
z
" style="fill: #ffffff; stroke: #000000; stroke-linejoin: miter"/>
    </g>
    <g id="text_58">
     <text font-family="Arial" font-size="10" style="font-size: 10px; font-family: 'Arial'; text-anchor: middle" x="109.66648" y="129.622377" transform="rotate(-0 109.66648 129.622377)">8.51</text>
    </g>
    <g id="patch_60">
     <path d="M 125.33312 134.504727 
L 156.6664 134.504727 
L 156.6664 119.569714 
L 125.33312 119.569714 
z
" style="fill: #ffffff; stroke: #000000; stroke-linejoin: miter"/>
    </g>
    <g id="text_59">
     <text font-family="Arial" font-size="10" style="font-size: 10px; font-family: 'Arial'; text-anchor: middle" x="140.99976" y="129.622377" transform="rotate(-0 140.99976 129.622377)">89.91</text>
    </g>
    <g id="patch_61">
     <path d="M 156.6664 134.504727 
L 187.99968 134.504727 
L 187.99968 119.569714 
L 156.6664 119.569714 
z
" style="fill: #ffffff; stroke: #000000; stroke-linejoin: miter"/>
    </g>
    <g id="text_60">
     <text font-family="Arial" font-size="10" style="font-size: 10px; font-family: 'Arial'; text-anchor: middle" x="172.33304" y="129.622377" transform="rotate(-0 172.33304 129.622377)">5.08</text>
    </g>
    <g id="patch_62">
     <path d="M 187.99968 134.504727 
L 219.33296 134.504727 
L 219.33296 119.569714 
L 187.99968 119.569714 
z
" style="fill: #ffffff; stroke: #000000; stroke-linejoin: miter"/>
    </g>
    <g id="text_61">
     <text font-family="Arial" font-size="10" style="font-size: 10px; font-family: 'Arial'; text-anchor: middle" x="203.66632" y="129.622377" transform="rotate(-0 203.66632 129.622377)">8.01</text>
    </g>
    <g id="patch_63">
     <path d="M 219.33296 134.504727 
L 250.66624 134.504727 
L 250.66624 119.569714 
L 219.33296 119.569714 
z
" style="fill: #ffffff; stroke: #000000; stroke-linejoin: miter"/>
    </g>
    <g id="text_62">
     <text font-family="Arial" font-size="10" style="font-size: 10px; font-family: 'Arial'; text-anchor: middle" x="234.9996" y="129.622377" transform="rotate(-0 234.9996 129.622377)">0.95</text>
    </g>
    <g id="patch_64">
     <path d="M 250.66624 134.504727 
L 281.99952 134.504727 
L 281.99952 119.569714 
L 250.66624 119.569714 
z
" style="fill: #ffffff; stroke: #000000; stroke-linejoin: miter"/>
    </g>
    <g id="text_63">
     <text font-family="Arial" font-size="10" style="font-size: 10px; font-family: 'Arial'; text-anchor: middle" x="266.33288" y="129.622377" transform="rotate(-0 266.33288 129.622377)">0.91</text>
    </g>
   </g>
  </g>
 </g>
</svg>
