<?xml version="1.0" encoding="utf-8" standalone="no"?>
<!DOCTYPE svg PUBLIC "-//W3C//DTD SVG 1.1//EN"
  "http://www.w3.org/Graphics/SVG/1.1/DTD/svg11.dtd">
<svg xmlns:xlink="http://www.w3.org/1999/xlink" width="137.99952pt" height="137.99952pt" viewBox="0 0 137.99952 137.99952" xmlns="http://www.w3.org/2000/svg" version="1.1">
 <metadata>
  <rdf:RDF xmlns:dc="http://purl.org/dc/elements/1.1/" xmlns:cc="http://creativecommons.org/ns#" xmlns:rdf="http://www.w3.org/1999/02/22-rdf-syntax-ns#">
   <cc:Work>
    <dc:type rdf:resource="http://purl.org/dc/dcmitype/StillImage"/>
    <dc:date>2025-11-15T15:01:56.314226</dc:date>
    <dc:format>image/svg+xml</dc:format>
    <dc:creator>
     <cc:Agent>
      <dc:title>Matplotlib v3.10.7, https://matplotlib.org/</dc:title>
     </cc:Agent>
    </dc:creator>
   </cc:Work>
  </rdf:RDF>
 </metadata>
 <defs>
  <style type="text/css">*{stroke-linejoin: round; stroke-linecap: butt}</style>
 </defs>
 <g id="figure_1">
  <g id="patch_1">
   <path d="M 0 137.99952 
L 137.99952 137.99952 
L 137.99952 0 
L 0 0 
z
" style="fill: #ffffff"/>
  </g>
  <g id="axes_1">
   <g id="patch_2">
    <path d="M 34.045313 108.708895 
L 137.99952 108.708895 
L 137.99952 3.578906 
L 34.045313 3.578906 
z
" style="fill: #ffffff"/>
   </g>
   <g id="FillBetweenPolyCollection_1">
    <defs>
     <path id="m35764aec3e" d="M 38.770504 -74.953435 
L 38.770504 -71.562136 
L 50.583482 -88.198283 
L 62.39646 -99.233145 
L 74.209438 -108.640538 
L 86.022416 -114.380245 
L 97.835394 -118.363574 
L 109.648373 -120.961526 
L 119.098755 -122.363611 
L 119.098755 -122.38271 
L 119.098755 -122.38271 
L 109.648373 -121.724941 
L 97.835394 -119.398653 
L 86.022416 -116.309846 
L 74.209438 -110.853419 
L 62.39646 -102.873967 
L 50.583482 -91.169246 
L 38.770504 -74.953435 
z
"/>
    </defs>
    <g clip-path="url(#pd0b000584b)">
     <use xlink:href="#m35764aec3e" x="0" y="137.99952" style="fill: #d3d3d3; fill-opacity: 0.2"/>
    </g>
   </g>
   <g id="FillBetweenPolyCollection_2">
    <defs>
     <path id="m425e3ee0d7" d="M 38.770504 -92.593046 
L 38.770504 -87.568046 
L 50.583482 -105.52167 
L 62.39646 -118.531303 
L 74.209438 -122.154909 
L 86.022416 -125.47887 
L 97.835394 -127.705378 
L 109.648373 -129.294044 
L 121.461351 -129.893641 
L 126.186542 -131.261778 
L 126.186542 -131.549819 
L 126.186542 -131.549819 
L 121.461351 -130.932274 
L 109.648373 -130.138886 
L 97.835394 -128.982732 
L 86.022416 -127.286747 
L 74.209438 -124.457946 
L 62.39646 -120.191526 
L 50.583482 -111.362984 
L 38.770504 -92.593046 
z
"/>
    </defs>
    <g clip-path="url(#pd0b000584b)">
     <use xlink:href="#m425e3ee0d7" x="0" y="137.99952" style="fill: #a9a9a9; fill-opacity: 0.2"/>
    </g>
   </g>
   <g id="FillBetweenPolyCollection_3">
    <defs>
     <path id="m052a3f395f" d="M 38.770504 -84.759808 
L 38.770504 -81.318963 
L 50.583482 -104.912011 
L 62.39646 -115.847875 
L 74.209438 -120.522575 
L 86.022416 -123.704353 
L 97.835394 -125.772077 
L 109.648373 -127.081183 
L 121.461351 -128.100687 
L 133.274329 -128.707264 
L 133.274329 -128.802415 
L 133.274329 -128.802415 
L 121.461351 -128.473565 
L 109.648373 -127.791577 
L 97.835394 -126.553119 
L 86.022416 -125.065721 
L 74.209438 -122.219465 
L 62.39646 -117.898164 
L 50.583482 -108.035627 
L 38.770504 -84.759808 
z
"/>
    </defs>
    <g clip-path="url(#pd0b000584b)">
     <use xlink:href="#m052a3f395f" x="0" y="137.99952" style="fill: #7f7f7f; fill-opacity: 0.2"/>
    </g>
   </g>
   <g id="FillBetweenPolyCollection_4">
    <defs>
     <path id="m21fe756c79" d="M 38.770504 -80.94702 
L 38.770504 -76.391098 
L 50.583482 -100.421142 
L 62.39646 -111.238232 
L 74.209438 -119.650739 
L 86.022416 -123.138644 
L 97.835394 -126.500736 
L 109.648373 -128.846565 
L 112.010968 -128.900118 
L 112.010968 -129.423998 
L 112.010968 -129.423998 
L 109.648373 -129.609107 
L 97.835394 -127.410614 
L 86.022416 -124.887275 
L 74.209438 -121.469495 
L 62.39646 -115.824355 
L 50.583482 -106.350419 
L 38.770504 -80.94702 
z
"/>
    </defs>
    <g clip-path="url(#pd0b000584b)">
     <use xlink:href="#m21fe756c79" x="0" y="137.99952" style="fill: #545454; fill-opacity: 0.2"/>
    </g>
   </g>
   <g id="FillBetweenPolyCollection_5">
    <defs>
     <path id="m03b645d572" d="M 38.770504 -72.831735 
L 38.770504 -69.477658 
L 50.583482 -84.833268 
L 62.39646 -100.077634 
L 74.209438 -109.471696 
L 86.022416 -114.199118 
L 97.835394 -117.851364 
L 109.648373 -120.390167 
L 121.461351 -121.922762 
L 126.186542 -123.183112 
L 126.186542 -123.765868 
L 126.186542 -123.765868 
L 121.461351 -122.941239 
L 109.648373 -121.323632 
L 97.835394 -119.505206 
L 86.022416 -116.333276 
L 74.209438 -111.47823 
L 62.39646 -103.675045 
L 50.583482 -88.288456 
L 38.770504 -72.831735 
z
"/>
    </defs>
    <g clip-path="url(#pd0b000584b)">
     <use xlink:href="#m03b645d572" x="0" y="137.99952" style="fill: #2a2a2a; fill-opacity: 0.2"/>
    </g>
   </g>
   <g id="FillBetweenPolyCollection_6">
    <defs>
     <path id="m7d87a5e7e2" d="M 38.770504 -85.824533 
L 38.770504 -79.865163 
L 50.583482 -99.153999 
L 62.39646 -111.702527 
L 74.209438 -117.695288 
L 86.022416 -121.022513 
L 97.835394 -123.530596 
L 109.648373 -124.849034 
L 121.461351 -125.457597 
L 126.186542 -126.506124 
L 126.186542 -127.012413 
L 126.186542 -127.012413 
L 121.461351 -126.360411 
L 109.648373 -125.611181 
L 97.835394 -124.425112 
L 86.022416 -122.149306 
L 74.209438 -119.384828 
L 62.39646 -113.777107 
L 50.583482 -102.530252 
L 38.770504 -85.824533 
z
"/>
    </defs>
    <g clip-path="url(#pd0b000584b)">
     <use xlink:href="#m7d87a5e7e2" x="0" y="137.99952" style="fill-opacity: 0.2"/>
    </g>
   </g>
   <g id="matplotlib.axis_1">
    <g id="xtick_1">
     <g id="line2d_1">
      <defs>
       <path id="m1602f9fb5a" d="M 0 0 
L 0 3.5 
" style="stroke: #000000"/>
      </defs>
      <g>
       <use xlink:href="#m1602f9fb5a" x="74.209438" y="108.708895" style="stroke: #000000"/>
      </g>
     </g>
     <g id="text_1">
      <text font-family="Arial" font-size="10" style="font-size: 10px; font-family: 'Arial'; text-anchor: middle" x="74.209438" y="122.866707" transform="rotate(-0 74.209438 122.866707)">20</text>
     </g>
    </g>
    <g id="xtick_2">
     <g id="line2d_2">
      <g>
       <use xlink:href="#m1602f9fb5a" x="121.461351" y="108.708895" style="stroke: #000000"/>
      </g>
     </g>
     <g id="text_2">
      <text font-family="Arial" font-size="10" style="font-size: 10px; font-family: 'Arial'; text-anchor: middle" x="121.461351" y="122.866707" transform="rotate(-0 121.461351 122.866707)">40</text>
     </g>
    </g>
    <g id="text_3">
     <text font-family="Arial" font-size="10" style="font-size: 10px; font-family: 'Arial'; text-anchor: middle" x="86.022416" y="136.01202" transform="rotate(-0 86.022416 136.01202)">Number of edit sites</text>
    </g>
   </g>
   <g id="matplotlib.axis_2">
    <g id="ytick_1">
     <g id="line2d_3">
      <defs>
       <path id="m0e096303bc" d="M 0 0 
L -3.5 0 
" style="stroke: #000000"/>
      </defs>
      <g>
       <use xlink:href="#m0e096303bc" x="34.045313" y="108.708895" style="stroke: #000000"/>
      </g>
     </g>
     <g id="text_4">
      <text font-family="Arial" font-size="10" style="font-size: 10px; font-family: 'Arial'; text-anchor: end" x="27.045313" y="112.287801" transform="rotate(-0 27.045313 112.287801)">0.0</text>
     </g>
    </g>
    <g id="ytick_2">
     <g id="line2d_4">
      <g>
       <use xlink:href="#m0e096303bc" x="34.045313" y="87.682897" style="stroke: #000000"/>
      </g>
     </g>
     <g id="text_5">
      <text font-family="Arial" font-size="10" style="font-size: 10px; font-family: 'Arial'; text-anchor: end" x="27.045313" y="91.261803" transform="rotate(-0 27.045313 91.261803)">0.2</text>
     </g>
    </g>
    <g id="ytick_3">
     <g id="line2d_5">
      <g>
       <use xlink:href="#m0e096303bc" x="34.045313" y="66.656899" style="stroke: #000000"/>
      </g>
     </g>
     <g id="text_6">
      <text font-family="Arial" font-size="10" style="font-size: 10px; font-family: 'Arial'; text-anchor: end" x="27.045313" y="70.235806" transform="rotate(-0 27.045313 70.235806)">0.4</text>
     </g>
    </g>
    <g id="ytick_4">
     <g id="line2d_6">
      <g>
       <use xlink:href="#m0e096303bc" x="34.045313" y="45.630902" style="stroke: #000000"/>
      </g>
     </g>
     <g id="text_7">
      <text font-family="Arial" font-size="10" style="font-size: 10px; font-family: 'Arial'; text-anchor: end" x="27.045313" y="49.209808" transform="rotate(-0 27.045313 49.209808)">0.6</text>
     </g>
    </g>
    <g id="ytick_5">
     <g id="line2d_7">
      <g>
       <use xlink:href="#m0e096303bc" x="34.045313" y="24.604904" style="stroke: #000000"/>
      </g>
     </g>
     <g id="text_8">
      <text font-family="Arial" font-size="10" style="font-size: 10px; font-family: 'Arial'; text-anchor: end" x="27.045313" y="28.18381" transform="rotate(-0 27.045313 28.18381)">0.8</text>
     </g>
    </g>
    <g id="ytick_6">
     <g id="line2d_8">
      <g>
       <use xlink:href="#m0e096303bc" x="34.045313" y="3.578906" style="stroke: #000000"/>
      </g>
     </g>
     <g id="text_9">
      <text font-family="Arial" font-size="10" style="font-size: 10px; font-family: 'Arial'; text-anchor: end" x="27.045313" y="7.157812" transform="rotate(-0 27.045313 7.157812)">1.0</text>
     </g>
    </g>
    <g id="text_10">
     <text font-family="Arial" font-size="10" style="font-size: 10px; font-family: 'Arial'; text-anchor: middle" x="7.157813" y="56.143901" transform="rotate(-90 7.157813 56.143901)">Clone Barcode FMI</text>
    </g>
   </g>
   <g id="line2d_9">
    <path d="M 38.770504 64.763741 
L 50.583482 48.352515 
L 62.39646 36.937247 
L 74.209438 28.22402 
L 86.022416 22.67872 
L 97.835394 19.100586 
L 109.648373 16.663769 
L 119.098755 15.626359 
" clip-path="url(#pd0b000584b)" style="fill: none; stroke: #d3d3d3; stroke-width: 1.5; stroke-linecap: square"/>
   </g>
   <g id="line2d_10">
    <path d="M 38.770504 47.937278 
L 50.583482 29.510999 
L 62.39646 18.625545 
L 74.209438 14.671618 
L 86.022416 11.590074 
L 97.835394 9.664458 
L 109.648373 8.288221 
L 121.461351 7.535411 
L 126.186542 6.59417 
" clip-path="url(#pd0b000584b)" style="fill: none; stroke: #a9a9a9; stroke-width: 1.5; stroke-linecap: square"/>
   </g>
   <g id="line2d_11">
    <path d="M 38.770504 54.923851 
L 50.583482 31.465574 
L 62.39646 21.098774 
L 74.209438 16.597384 
L 86.022416 13.552055 
L 97.835394 11.800718 
L 109.648373 10.584144 
L 121.461351 9.706287 
L 133.274329 9.244681 
" clip-path="url(#pd0b000584b)" style="fill: none; stroke: #7f7f7f; stroke-width: 1.5; stroke-linecap: square"/>
   </g>
   <g id="line2d_12">
    <path d="M 38.770504 59.311277 
L 50.583482 34.347268 
L 62.39646 24.361951 
L 74.209438 17.400394 
L 86.022416 13.948471 
L 97.835394 11.017314 
L 109.648373 8.775097 
L 112.010968 8.817313 
" clip-path="url(#pd0b000584b)" style="fill: none; stroke: #545454; stroke-width: 1.5; stroke-linecap: square"/>
   </g>
   <g id="line2d_13">
    <path d="M 38.770504 66.800638 
L 50.583482 51.545065 
L 62.39646 35.983983 
L 74.209438 27.534933 
L 86.022416 22.816256 
L 97.835394 19.354213 
L 109.648373 17.177483 
L 121.461351 15.554605 
L 126.186542 14.52503 
" clip-path="url(#pd0b000584b)" style="fill: none; stroke: #2a2a2a; stroke-width: 1.5; stroke-linecap: square"/>
   </g>
   <g id="line2d_14">
    <path d="M 38.770504 55.102745 
L 50.583482 37.08973 
L 62.39646 25.242966 
L 74.209438 19.457466 
L 86.022416 16.431007 
L 97.835394 13.992809 
L 109.648373 12.801653 
L 121.461351 12.08517 
L 126.186542 11.240251 
" clip-path="url(#pd0b000584b)" style="fill: none; stroke: #000000; stroke-width: 1.5; stroke-linecap: square"/>
   </g>
   <g id="line2d_15"/>
   <g id="line2d_16"/>
   <g id="line2d_17"/>
   <g id="line2d_18"/>
   <g id="line2d_19"/>
   <g id="line2d_20"/>
   <g id="patch_3">
    <path d="M 34.045313 108.708895 
L 34.045313 3.578906 
" style="fill: none; stroke: #000000; stroke-linejoin: miter; stroke-linecap: square"/>
   </g>
   <g id="patch_4">
    <path d="M 34.045313 108.708895 
L 137.99952 108.708895 
" style="fill: none; stroke: #000000; stroke-linejoin: miter; stroke-linecap: square"/>
   </g>
   <g id="legend_1">
    <g id="text_11">
     <text font-family="Arial" font-size="10" style="font-size: 10px; font-family: 'Arial'; text-anchor: start" x="104.266707" y="33.84952" transform="rotate(-0 104.266707 33.84952)">clone</text>
    </g>
    <g id="line2d_21">
     <path d="M 103.438582 40.994832 
L 110.938582 40.994832 
L 118.438582 40.994832 
" style="fill: none; stroke: #d3d3d3; stroke-width: 1.5; stroke-linecap: square"/>
    </g>
    <g id="text_12">
     <text font-family="Arial" font-size="10" style="font-size: 10px; font-family: 'Arial'; text-anchor: start" x="123.438582" y="44.494832" transform="rotate(-0 123.438582 44.494832)">1</text>
    </g>
    <g id="line2d_22">
     <path d="M 103.438582 51.640145 
L 110.938582 51.640145 
L 118.438582 51.640145 
" style="fill: none; stroke: #a9a9a9; stroke-width: 1.5; stroke-linecap: square"/>
    </g>
    <g id="text_13">
     <text font-family="Arial" font-size="10" style="font-size: 10px; font-family: 'Arial'; text-anchor: start" x="123.438582" y="55.140145" transform="rotate(-0 123.438582 55.140145)">2</text>
    </g>
    <g id="line2d_23">
     <path d="M 103.438582 62.285457 
L 110.938582 62.285457 
L 118.438582 62.285457 
" style="fill: none; stroke: #7f7f7f; stroke-width: 1.5; stroke-linecap: square"/>
    </g>
    <g id="text_14">
     <text font-family="Arial" font-size="10" style="font-size: 10px; font-family: 'Arial'; text-anchor: start" x="123.438582" y="65.785457" transform="rotate(-0 123.438582 65.785457)">3</text>
    </g>
    <g id="line2d_24">
     <path d="M 103.438582 72.93077 
L 110.938582 72.93077 
L 118.438582 72.93077 
" style="fill: none; stroke: #545454; stroke-width: 1.5; stroke-linecap: square"/>
    </g>
    <g id="text_15">
     <text font-family="Arial" font-size="10" style="font-size: 10px; font-family: 'Arial'; text-anchor: start" x="123.438582" y="76.43077" transform="rotate(-0 123.438582 76.43077)">4</text>
    </g>
    <g id="line2d_25">
     <path d="M 103.438582 83.576082 
L 110.938582 83.576082 
L 118.438582 83.576082 
" style="fill: none; stroke: #2a2a2a; stroke-width: 1.5; stroke-linecap: square"/>
    </g>
    <g id="text_16">
     <text font-family="Arial" font-size="10" style="font-size: 10px; font-family: 'Arial'; text-anchor: start" x="123.438582" y="87.076082" transform="rotate(-0 123.438582 87.076082)">5</text>
    </g>
    <g id="line2d_26">
     <path d="M 103.438582 94.221395 
L 110.938582 94.221395 
L 118.438582 94.221395 
" style="fill: none; stroke: #000000; stroke-width: 1.5; stroke-linecap: square"/>
    </g>
    <g id="text_17">
     <text font-family="Arial" font-size="10" style="font-size: 10px; font-family: 'Arial'; text-anchor: start" x="123.438582" y="97.721395" transform="rotate(-0 123.438582 97.721395)">6</text>
    </g>
   </g>
  </g>
 </g>
 <defs>
  <clipPath id="pd0b000584b">
   <rect x="34.045313" y="3.578906" width="103.954207" height="105.129989"/>
  </clipPath>
 </defs>
</svg>
