<?xml version="1.0" encoding="utf-8" standalone="no"?>
<!DOCTYPE svg PUBLIC "-//W3C//DTD SVG 1.1//EN"
  "http://www.w3.org/Graphics/SVG/1.1/DTD/svg11.dtd">
<svg xmlns:xlink="http://www.w3.org/1999/xlink" width="71.907188pt" height="125.945625pt" viewBox="0 0 71.907188 125.945625" xmlns="http://www.w3.org/2000/svg" version="1.1">
 <metadata>
  <rdf:RDF xmlns:dc="http://purl.org/dc/elements/1.1/" xmlns:cc="http://creativecommons.org/ns#" xmlns:rdf="http://www.w3.org/1999/02/22-rdf-syntax-ns#">
   <cc:Work>
    <dc:type rdf:resource="http://purl.org/dc/dcmitype/StillImage"/>
    <dc:date>2025-11-15T15:01:55.698241</dc:date>
    <dc:format>image/svg+xml</dc:format>
    <dc:creator>
     <cc:Agent>
      <dc:title>Matplotlib v3.10.7, https://matplotlib.org/</dc:title>
     </cc:Agent>
    </dc:creator>
   </cc:Work>
  </rdf:RDF>
 </metadata>
 <defs>
  <style type="text/css">*{stroke-linejoin: round; stroke-linecap: butt}</style>
 </defs>
 <g id="figure_1">
  <g id="patch_1">
   <path d="M 0 125.945625 
L 71.907188 125.945625 
L 71.907188 0 
L 0 0 
z
" style="fill: #ffffff"/>
  </g>
  <g id="axes_1">
   <g id="patch_2">
    <path d="M 37.067188 96.655 
L 71.907188 96.655 
L 71.907188 0 
L 37.067188 0 
z
" style="fill: #ffffff"/>
   </g>
   <g id="patch_3">
    <path d="M 39.628952 96.655 
L 48.851305 96.655 
L 48.851305 82.939795 
L 39.628952 82.939795 
z
" clip-path="url(#pbefab2fb6d)" style="fill: #cd2626"/>
   </g>
   <g id="patch_4">
    <path d="M 49.876011 96.655 
L 59.098364 96.655 
L 59.098364 95.483511 
L 49.876011 95.483511 
z
" clip-path="url(#pbefab2fb6d)" style="fill: #cd2626"/>
   </g>
   <g id="patch_5">
    <path d="M 60.12307 96.655 
L 69.345423 96.655 
L 69.345423 87.323047 
L 60.12307 87.323047 
z
" clip-path="url(#pbefab2fb6d)" style="fill: #cd2626"/>
   </g>
   <g id="patch_6">
    <path d="M 39.628952 82.939795 
L 48.851305 82.939795 
L 48.851305 73.723953 
L 39.628952 73.723953 
z
" clip-path="url(#pbefab2fb6d)" style="fill: #e69f00"/>
   </g>
   <g id="patch_7">
    <path d="M 49.876011 95.483511 
L 59.098364 95.483511 
L 59.098364 94.246886 
L 49.876011 94.246886 
z
" clip-path="url(#pbefab2fb6d)" style="fill: #e69f00"/>
   </g>
   <g id="patch_8">
    <path d="M 60.12307 87.323047 
L 69.345423 87.323047 
L 69.345423 76.546792 
L 60.12307 76.546792 
z
" clip-path="url(#pbefab2fb6d)" style="fill: #e69f00"/>
   </g>
   <g id="patch_9">
    <path d="M 39.628952 73.723953 
L 48.851305 73.723953 
L 48.851305 71.611307 
L 39.628952 71.611307 
z
" clip-path="url(#pbefab2fb6d)" style="fill: #ffe600"/>
   </g>
   <g id="patch_10">
    <path d="M 49.876011 94.246886 
L 59.098364 94.246886 
L 59.098364 91.525368 
L 49.876011 91.525368 
z
" clip-path="url(#pbefab2fb6d)" style="fill: #ffe600"/>
   </g>
   <g id="patch_11">
    <path d="M 60.12307 76.546792 
L 69.345423 76.546792 
L 69.345423 58.652237 
L 60.12307 58.652237 
z
" clip-path="url(#pbefab2fb6d)" style="fill: #ffe600"/>
   </g>
   <g id="patch_12">
    <path d="M 39.628952 71.611307 
L 48.851305 71.611307 
L 48.851305 62.446126 
L 39.628952 62.446126 
z
" clip-path="url(#pbefab2fb6d)" style="fill: #009e73"/>
   </g>
   <g id="patch_13">
    <path d="M 49.876011 91.525368 
L 59.098364 91.525368 
L 59.098364 85.089886 
L 49.876011 85.089886 
z
" clip-path="url(#pbefab2fb6d)" style="fill: #009e73"/>
   </g>
   <g id="patch_14">
    <path d="M 60.12307 58.652237 
L 69.345423 58.652237 
L 69.345423 44.466926 
L 60.12307 44.466926 
z
" clip-path="url(#pbefab2fb6d)" style="fill: #009e73"/>
   </g>
   <g id="patch_15">
    <path d="M 39.628952 62.446126 
L 48.851305 62.446126 
L 48.851305 54.104731 
L 39.628952 54.104731 
z
" clip-path="url(#pbefab2fb6d)" style="fill: #83a4ff"/>
   </g>
   <g id="patch_16">
    <path d="M 49.876011 85.089886 
L 59.098364 85.089886 
L 59.098364 78.049622 
L 49.876011 78.049622 
z
" clip-path="url(#pbefab2fb6d)" style="fill: #83a4ff"/>
   </g>
   <g id="patch_17">
    <path d="M 60.12307 44.466926 
L 69.345423 44.466926 
L 69.345423 37.632767 
L 60.12307 37.632767 
z
" clip-path="url(#pbefab2fb6d)" style="fill: #83a4ff"/>
   </g>
   <g id="patch_18">
    <path d="M 39.628952 54.104731 
L 48.851305 54.104731 
L 48.851305 44.252326 
L 39.628952 44.252326 
z
" clip-path="url(#pbefab2fb6d)" style="fill: #1874cd"/>
   </g>
   <g id="patch_19">
    <path d="M 49.876011 78.049622 
L 59.098364 78.049622 
L 59.098364 70.194696 
L 49.876011 70.194696 
z
" clip-path="url(#pbefab2fb6d)" style="fill: #1874cd"/>
   </g>
   <g id="patch_20">
    <path d="M 60.12307 37.632767 
L 69.345423 37.632767 
L 69.345423 27.10541 
L 60.12307 27.10541 
z
" clip-path="url(#pbefab2fb6d)" style="fill: #1874cd"/>
   </g>
   <g id="patch_21">
    <path d="M 39.628952 44.252326 
L 48.851305 44.252326 
L 48.851305 35.872858 
L 39.628952 35.872858 
z
" clip-path="url(#pbefab2fb6d)" style="fill: #8e0496"/>
   </g>
   <g id="patch_22">
    <path d="M 49.876011 70.194696 
L 59.098364 70.194696 
L 59.098364 60.930396 
L 49.876011 60.930396 
z
" clip-path="url(#pbefab2fb6d)" style="fill: #8e0496"/>
   </g>
   <g id="patch_23">
    <path d="M 60.12307 27.10541 
L 69.345423 27.10541 
L 69.345423 20.086543 
L 60.12307 20.086543 
z
" clip-path="url(#pbefab2fb6d)" style="fill: #8e0496"/>
   </g>
   <g id="patch_24">
    <path d="M 39.628952 35.872858 
L 48.851305 35.872858 
L 48.851305 30.104461 
L 39.628952 30.104461 
z
" clip-path="url(#pbefab2fb6d)" style="fill: #db65d2"/>
   </g>
   <g id="patch_25">
    <path d="M 49.876011 60.930396 
L 59.098364 60.930396 
L 59.098364 52.879435 
L 49.876011 52.879435 
z
" clip-path="url(#pbefab2fb6d)" style="fill: #db65d2"/>
   </g>
   <g id="patch_26">
    <path d="M 60.12307 20.086543 
L 69.345423 20.086543 
L 69.345423 17.66836 
L 60.12307 17.66836 
z
" clip-path="url(#pbefab2fb6d)" style="fill: #db65d2"/>
   </g>
   <g id="patch_27">
    <path d="M 39.628952 30.104461 
L 48.851305 30.104461 
L 48.851305 29.603832 
L 39.628952 29.603832 
z
" clip-path="url(#pbefab2fb6d)" style="fill: #505050"/>
   </g>
   <g id="patch_28">
    <path d="M 49.876011 52.879435 
L 59.098364 52.879435 
L 59.098364 52.808006 
L 49.876011 52.808006 
z
" clip-path="url(#pbefab2fb6d)" style="fill: #505050"/>
   </g>
   <g id="patch_29">
    <path d="M 60.12307 17.66836 
L 69.345423 17.66836 
L 69.345423 17.332615 
L 60.12307 17.332615 
z
" clip-path="url(#pbefab2fb6d)" style="fill: #505050"/>
   </g>
   <g id="patch_30">
    <path d="M 39.628952 29.603832 
L 48.851305 29.603832 
L 48.851305 4.602619 
L 39.628952 4.602619 
z
" clip-path="url(#pbefab2fb6d)" style="fill: #d3d3d3"/>
   </g>
   <g id="patch_31">
    <path d="M 49.876011 52.808006 
L 59.098364 52.808006 
L 59.098364 4.602619 
L 49.876011 4.602619 
z
" clip-path="url(#pbefab2fb6d)" style="fill: #d3d3d3"/>
   </g>
   <g id="patch_32">
    <path d="M 60.12307 17.332615 
L 69.345423 17.332615 
L 69.345423 4.602619 
L 60.12307 4.602619 
z
" clip-path="url(#pbefab2fb6d)" style="fill: #d3d3d3"/>
   </g>
   <g id="matplotlib.axis_1">
    <g id="xtick_1">
     <g id="line2d_1">
      <defs>
       <path id="m16fb2bd0be" d="M 0 0 
L 0 3.5 
" style="stroke: #000000"/>
      </defs>
      <g>
       <use xlink:href="#m16fb2bd0be" x="44.240129" y="96.655" style="stroke: #000000"/>
      </g>
     </g>
     <g id="text_1">
      <text font-family="Arial" font-size="10" style="font-size: 10px; font-family: 'Arial'; text-anchor: middle" x="44.240129" y="110.812813" transform="rotate(-0 44.240129 110.812813)">1</text>
     </g>
    </g>
    <g id="xtick_2">
     <g id="line2d_2">
      <g>
       <use xlink:href="#m16fb2bd0be" x="54.487188" y="96.655" style="stroke: #000000"/>
      </g>
     </g>
     <g id="text_2">
      <text font-family="Arial" font-size="10" style="font-size: 10px; font-family: 'Arial'; text-anchor: middle" x="54.487188" y="110.812813" transform="rotate(-0 54.487188 110.812813)">2</text>
     </g>
    </g>
    <g id="xtick_3">
     <g id="line2d_3">
      <g>
       <use xlink:href="#m16fb2bd0be" x="64.734246" y="96.655" style="stroke: #000000"/>
      </g>
     </g>
     <g id="text_3">
      <text font-family="Arial" font-size="10" style="font-size: 10px; font-family: 'Arial'; text-anchor: middle" x="64.734246" y="110.812813" transform="rotate(-0 64.734246 110.812813)">3</text>
     </g>
    </g>
    <g id="text_4">
     <text font-family="Arial" font-size="10" style="font-size: 10px; font-family: 'Arial'; text-anchor: middle" x="54.487188" y="123.958125" transform="rotate(-0 54.487188 123.958125)">Edit site</text>
    </g>
   </g>
   <g id="matplotlib.axis_2">
    <g id="ytick_1">
     <g id="line2d_4">
      <defs>
       <path id="m41286dff5c" d="M 0 0 
L -3.5 0 
" style="stroke: #000000"/>
      </defs>
      <g>
       <use xlink:href="#m41286dff5c" x="37.067188" y="96.655" style="stroke: #000000"/>
      </g>
     </g>
     <g id="text_5">
      <text font-family="Arial" font-size="10" style="font-size: 10px; font-family: 'Arial'; text-anchor: end" x="30.067188" y="100.233906" transform="rotate(-0 30.067188 100.233906)">0</text>
     </g>
    </g>
    <g id="ytick_2">
     <g id="line2d_5">
      <g>
       <use xlink:href="#m41286dff5c" x="37.067188" y="73.641905" style="stroke: #000000"/>
      </g>
     </g>
     <g id="text_6">
      <text font-family="Arial" font-size="10" style="font-size: 10px; font-family: 'Arial'; text-anchor: end" x="30.067188" y="77.220811" transform="rotate(-0 30.067188 77.220811)">25</text>
     </g>
    </g>
    <g id="ytick_3">
     <g id="line2d_6">
      <g>
       <use xlink:href="#m41286dff5c" x="37.067188" y="50.62881" style="stroke: #000000"/>
      </g>
     </g>
     <g id="text_7">
      <text font-family="Arial" font-size="10" style="font-size: 10px; font-family: 'Arial'; text-anchor: end" x="30.067188" y="54.207716" transform="rotate(-0 30.067188 54.207716)">50</text>
     </g>
    </g>
    <g id="ytick_4">
     <g id="line2d_7">
      <g>
       <use xlink:href="#m41286dff5c" x="37.067188" y="27.615714" style="stroke: #000000"/>
      </g>
     </g>
     <g id="text_8">
      <text font-family="Arial" font-size="10" style="font-size: 10px; font-family: 'Arial'; text-anchor: end" x="30.067188" y="31.194621" transform="rotate(-0 30.067188 31.194621)">75</text>
     </g>
    </g>
    <g id="ytick_5">
     <g id="line2d_8">
      <g>
       <use xlink:href="#m41286dff5c" x="37.067188" y="4.602619" style="stroke: #000000"/>
      </g>
     </g>
     <g id="text_9">
      <text font-family="Arial" font-size="10" style="font-size: 10px; font-family: 'Arial'; text-anchor: end" x="30.067188" y="8.181525" transform="rotate(-0 30.067188 8.181525)">100</text>
     </g>
    </g>
    <g id="text_10">
     <text font-family="Arial" font-size="10" style="font-size: 10px; font-family: 'Arial'; text-anchor: middle" x="7.279688" y="48.3275" transform="rotate(-90 7.279688 48.3275)">Fraction of LMs (%)</text>
    </g>
   </g>
   <g id="patch_33">
    <path d="M 37.067188 96.655 
L 37.067188 0 
" style="fill: none; stroke: #000000; stroke-linejoin: miter; stroke-linecap: square"/>
   </g>
   <g id="patch_34">
    <path d="M 37.067188 96.655 
L 71.907188 96.655 
" style="fill: none; stroke: #000000; stroke-linejoin: miter; stroke-linecap: square"/>
   </g>
  </g>
 </g>
 <defs>
  <clipPath id="pbefab2fb6d">
   <rect x="37.067188" y="0" width="34.84" height="96.655"/>
  </clipPath>
 </defs>
</svg>
