<?xml version="1.0" encoding="utf-8" standalone="no"?>
<!DOCTYPE svg PUBLIC "-//W3C//DTD SVG 1.1//EN"
  "http://www.w3.org/Graphics/SVG/1.1/DTD/svg11.dtd">
<svg xmlns:xlink="http://www.w3.org/1999/xlink" width="152.399534pt" height="193.625729pt" viewBox="0 0 152.399534 193.625729" xmlns="http://www.w3.org/2000/svg" version="1.1">
 <metadata>
  <rdf:RDF xmlns:dc="http://purl.org/dc/elements/1.1/" xmlns:cc="http://creativecommons.org/ns#" xmlns:rdf="http://www.w3.org/1999/02/22-rdf-syntax-ns#">
   <cc:Work>
    <dc:type rdf:resource="http://purl.org/dc/dcmitype/StillImage"/>
    <dc:date>2025-11-15T15:02:04.471291</dc:date>
    <dc:format>image/svg+xml</dc:format>
    <dc:creator>
     <cc:Agent>
      <dc:title>Matplotlib v3.10.7, https://matplotlib.org/</dc:title>
     </cc:Agent>
    </dc:creator>
   </cc:Work>
  </rdf:RDF>
 </metadata>
 <defs>
  <style type="text/css">*{stroke-linejoin: round; stroke-linecap: butt}</style>
 </defs>
 <g id="figure_1">
  <g id="patch_1">
   <path d="M 0 193.625729 
L 152.399534 193.625729 
L 152.399534 0 
L 0 0 
z
" style="fill: #ffffff"/>
  </g>
  <g id="axes_1">
   <g id="patch_2">
    <path d="M 34.284375 122.869833 
L 150.743113 122.869833 
L 150.743113 0 
L 34.284375 0 
z
" style="fill: #ffffff"/>
   </g>
   <g id="PathCollection_1">
    <path d="M 107.776524 16.775767 
C 108.615169 16.775767 109.419579 16.44257 110.012591 15.849557 
C 110.605604 15.256545 110.938801 14.452135 110.938801 13.613489 
C 110.938801 12.774844 110.605604 11.970434 110.012591 11.377421 
C 109.419579 10.784409 108.615169 10.451212 107.776524 10.451212 
C 106.937878 10.451212 106.133468 10.784409 105.540456 11.377421 
C 104.947443 11.970434 104.614246 12.774844 104.614246 13.613489 
C 104.614246 14.452135 104.947443 15.256545 105.540456 15.849557 
C 106.133468 16.44257 106.937878 16.775767 107.776524 16.775767 
z
" clip-path="url(#pbd941811f8)" style="fill: #cd2626; stroke: #ffffff; stroke-width: 0.505964"/>
    <path d="M 108.127545 39.379126 
L 114.452101 39.379126 
L 114.452101 33.05457 
L 108.127545 33.05457 
z
" clip-path="url(#pbd941811f8)" style="fill: #cd2626; stroke: #ffffff; stroke-width: 0.505964"/>
    <path d="M 117.298004 24.614125 
C 118.13665 24.614125 118.94106 24.280927 119.534072 23.687915 
C 120.127084 23.094903 120.460282 22.290493 120.460282 21.451847 
C 120.460282 20.613201 120.127084 19.808791 119.534072 19.215779 
C 118.94106 18.622767 118.13665 18.289569 117.298004 18.289569 
C 116.459358 18.289569 115.654948 18.622767 115.061936 19.215779 
C 114.468924 19.808791 114.135726 20.613201 114.135726 21.451847 
C 114.135726 22.290493 114.468924 23.094903 115.061936 23.687915 
C 115.654948 24.280927 116.459358 24.614125 117.298004 24.614125 
z
" clip-path="url(#pbd941811f8)" style="fill: #e69f00; stroke: #ffffff; stroke-width: 0.505964"/>
    <path d="M 84.304464 15.830794 
L 90.629019 15.830794 
L 90.629019 9.506239 
L 84.304464 9.506239 
z
" clip-path="url(#pbd941811f8)" style="fill: #e69f00; stroke: #ffffff; stroke-width: 0.505964"/>
    <path d="M 138.673913 13.161661 
C 139.512559 13.161661 140.316969 12.828463 140.909981 12.235451 
C 141.502993 11.642439 141.836191 10.838029 141.836191 9.999383 
C 141.836191 9.160737 141.502993 8.356327 140.909981 7.763315 
C 140.316969 7.170303 139.512559 6.837105 138.673913 6.837105 
C 137.835267 6.837105 137.030857 7.170303 136.437845 7.763315 
C 135.844833 8.356327 135.511635 9.160737 135.511635 9.999383 
C 135.511635 10.838029 135.844833 11.642439 136.437845 12.235451 
C 137.030857 12.828463 137.835267 13.161661 138.673913 13.161661 
z
" clip-path="url(#pbd941811f8)" style="fill: #ffe600; stroke: #ffffff; stroke-width: 0.505964"/>
    <path d="M 90.371544 15.586505 
L 96.696099 15.586505 
L 96.696099 9.261949 
L 90.371544 9.261949 
z
" clip-path="url(#pbd941811f8)" style="fill: #ffe600; stroke: #ffffff; stroke-width: 0.505964"/>
    <path d="M 111.736228 16.34095 
C 112.574873 16.34095 113.379283 16.007752 113.972296 15.41474 
C 114.565308 14.821728 114.898505 14.017318 114.898505 13.178672 
C 114.898505 12.340026 114.565308 11.535616 113.972296 10.942604 
C 113.379283 10.349592 112.574873 10.016395 111.736228 10.016395 
C 110.897582 10.016395 110.093172 10.349592 109.50016 10.942604 
C 108.907147 11.535616 108.57395 12.340026 108.57395 13.178672 
C 108.57395 14.017318 108.907147 14.821728 109.50016 15.41474 
C 110.093172 16.007752 110.897582 16.34095 111.736228 16.34095 
z
" clip-path="url(#pbd941811f8)" style="fill: #009e73; stroke: #ffffff; stroke-width: 0.505964"/>
    <path d="M 57.588462 26.331761 
L 63.913017 26.331761 
L 63.913017 20.007205 
L 57.588462 20.007205 
z
" clip-path="url(#pbd941811f8)" style="fill: #009e73; stroke: #ffffff; stroke-width: 0.505964"/>
    <path d="M 91.709244 17.269329 
C 92.54789 17.269329 93.3523 16.936132 93.945312 16.34312 
C 94.538324 15.750107 94.871522 14.945697 94.871522 14.107052 
C 94.871522 13.268406 94.538324 12.463996 93.945312 11.870984 
C 93.3523 11.277971 92.54789 10.944774 91.709244 10.944774 
C 90.870598 10.944774 90.066188 11.277971 89.473176 11.870984 
C 88.880164 12.463996 88.546967 13.268406 88.546967 14.107052 
C 88.546967 14.945697 88.880164 15.750107 89.473176 16.34312 
C 90.066188 16.936132 90.870598 17.269329 91.709244 17.269329 
z
" clip-path="url(#pbd941811f8)" style="fill: #1874cd; stroke: #ffffff; stroke-width: 0.505964"/>
    <path d="M 36.415676 18.204799 
L 42.740232 18.204799 
L 42.740232 11.880244 
L 36.415676 11.880244 
z
" clip-path="url(#pbd941811f8)" style="fill: #1874cd; stroke: #ffffff; stroke-width: 0.505964"/>
    <path d="M 114.329211 19.864856 
C 115.167857 19.864856 115.972267 19.531659 116.565279 18.938647 
C 117.158291 18.345635 117.491489 17.541225 117.491489 16.702579 
C 117.491489 15.863933 117.158291 15.059523 116.565279 14.466511 
C 115.972267 13.873499 115.167857 13.540301 114.329211 13.540301 
C 113.490565 13.540301 112.686155 13.873499 112.093143 14.466511 
C 111.500131 15.059523 111.166934 15.863933 111.166934 16.702579 
C 111.166934 17.541225 111.500131 18.345635 112.093143 18.938647 
C 112.686155 19.531659 113.490565 19.864856 114.329211 19.864856 
z
" clip-path="url(#pbd941811f8)" style="fill: #8e0496; stroke: #ffffff; stroke-width: 0.505964"/>
    <path d="M 77.659335 21.518433 
L 83.983891 21.518433 
L 83.983891 15.193878 
L 77.659335 15.193878 
z
" clip-path="url(#pbd941811f8)" style="fill: #8e0496; stroke: #ffffff; stroke-width: 0.505964"/>
   </g>
   <g id="matplotlib.axis_1">
    <g id="xtick_1">
     <g id="line2d_1">
      <defs>
       <path id="md7e902849a" d="M 0 0 
L 0 3.5 
" style="stroke: #000000"/>
      </defs>
      <g>
       <use xlink:href="#md7e902849a" x="61.962097" y="122.869833" style="stroke: #000000"/>
      </g>
     </g>
     <g id="text_1">
      <text font-family="Arial" font-size="10" style="font-size: 10px; font-family: 'Arial'; text-anchor: middle" x="61.962097" y="137.027645" transform="rotate(-0 61.962097 137.027645)">0.8</text>
     </g>
    </g>
    <g id="xtick_2">
     <g id="line2d_2">
      <g>
       <use xlink:href="#md7e902849a" x="103.705816" y="122.869833" style="stroke: #000000"/>
      </g>
     </g>
     <g id="text_2">
      <text font-family="Arial" font-size="10" style="font-size: 10px; font-family: 'Arial'; text-anchor: middle" x="103.705816" y="137.027645" transform="rotate(-0 103.705816 137.027645)">0.9</text>
     </g>
    </g>
    <g id="xtick_3">
     <g id="line2d_3">
      <g>
       <use xlink:href="#md7e902849a" x="145.449534" y="122.869833" style="stroke: #000000"/>
      </g>
     </g>
     <g id="text_3">
      <text font-family="Arial" font-size="10" style="font-size: 10px; font-family: 'Arial'; text-anchor: middle" x="145.449534" y="137.027645" transform="rotate(-0 145.449534 137.027645)">1.0</text>
     </g>
    </g>
    <g id="text_4">
     <text font-family="Arial" font-size="10" style="font-size: 10px; font-family: 'Arial'; text-anchor: middle" x="92.513744" y="150.294833" transform="rotate(-0 92.513744 150.294833)">Character distance (KS statistic)</text>
    </g>
   </g>
   <g id="matplotlib.axis_2">
    <g id="ytick_1">
     <g id="line2d_4">
      <defs>
       <path id="m0495003a22" d="M 0 0 
L -3.5 0 
" style="stroke: #000000"/>
      </defs>
      <g>
       <use xlink:href="#m0495003a22" x="34.284375" y="94.944871" style="stroke: #000000"/>
      </g>
     </g>
     <g id="text_5">
      <text font-family="Arial" font-size="10" style="font-size: 10px; font-family: 'Arial'; text-anchor: end" x="27.284375" y="98.523777" transform="rotate(-0 27.284375 98.523777)">0.8</text>
     </g>
    </g>
    <g id="ytick_2">
     <g id="line2d_5">
      <g>
       <use xlink:href="#m0495003a22" x="34.284375" y="50.264931" style="stroke: #000000"/>
      </g>
     </g>
     <g id="text_6">
      <text font-family="Arial" font-size="10" style="font-size: 10px; font-family: 'Arial'; text-anchor: end" x="27.284375" y="53.843838" transform="rotate(-0 27.284375 53.843838)">0.9</text>
     </g>
    </g>
    <g id="ytick_3">
     <g id="line2d_6">
      <g>
       <use xlink:href="#m0495003a22" x="34.284375" y="5.584992" style="stroke: #000000"/>
      </g>
     </g>
     <g id="text_7">
      <text font-family="Arial" font-size="10" style="font-size: 10px; font-family: 'Arial'; text-anchor: end" x="27.284375" y="9.163899" transform="rotate(-0 27.284375 9.163899)">1.0</text>
     </g>
    </g>
    <g id="text_8">
     <text font-family="Arial" font-size="10" style="font-size: 10px; font-family: 'Arial'; text-anchor: middle" x="7.279688" y="61.434916" transform="rotate(-90 7.279688 61.434916)">Phylogenetic distance (KS statistic)</text>
    </g>
   </g>
   <g id="line2d_7">
    <path d="M 41.090238 117.28484 
L 145.449534 5.584992 
" clip-path="url(#pbd941811f8)" style="fill: none; stroke-dasharray: 7.4,3.2; stroke-dashoffset: 0; stroke: #000000; stroke-width: 2"/>
   </g>
   <g id="patch_3">
    <path d="M 34.284375 122.869832 
L 34.284375 -0 
" style="fill: none; stroke: #000000; stroke-linejoin: miter; stroke-linecap: square"/>
   </g>
   <g id="patch_4">
    <path d="M 34.284375 122.869833 
L 150.743113 122.869833 
" style="fill: none; stroke: #000000; stroke-linejoin: miter; stroke-linecap: square"/>
   </g>
  </g>
  <g id="legend_1">
   <g id="text_9">
    <text font-family="Arial" font-size="10" style="font-size: 10px; font-family: 'Arial'; text-anchor: start" x="47.296479" y="166.347604" transform="rotate(-0 47.296479 166.347604)">Clone</text>
   </g>
   <g id="patch_5">
    <path d="M 21.518354 176.992916 
L 36.518354 176.992916 
L 36.518354 169.992916 
L 21.518354 169.992916 
z
" style="fill: #cd2626; stroke: #cd2626; stroke-linejoin: miter"/>
   </g>
   <g id="text_10">
    <text font-family="Arial" font-size="10" style="font-size: 10px; font-family: 'Arial'; text-anchor: start" x="38.518354" y="176.992916" transform="rotate(-0 38.518354 176.992916)">1</text>
   </g>
   <g id="patch_6">
    <path d="M 21.518354 187.638229 
L 36.518354 187.638229 
L 36.518354 180.638229 
L 21.518354 180.638229 
z
" style="fill: #e69f00; stroke: #e69f00; stroke-linejoin: miter"/>
   </g>
   <g id="text_11">
    <text font-family="Arial" font-size="10" style="font-size: 10px; font-family: 'Arial'; text-anchor: start" x="38.518354" y="187.638229" transform="rotate(-0 38.518354 187.638229)">2</text>
   </g>
   <g id="patch_7">
    <path d="M 49.079291 176.992916 
L 64.079291 176.992916 
L 64.079291 169.992916 
L 49.079291 169.992916 
z
" style="fill: #ffe600; stroke: #ffe600; stroke-linejoin: miter"/>
   </g>
   <g id="text_12">
    <text font-family="Arial" font-size="10" style="font-size: 10px; font-family: 'Arial'; text-anchor: start" x="66.079291" y="176.992916" transform="rotate(-0 66.079291 176.992916)">3</text>
   </g>
   <g id="patch_8">
    <path d="M 49.079291 187.638229 
L 64.079291 187.638229 
L 64.079291 180.638229 
L 49.079291 180.638229 
z
" style="fill: #009e73; stroke: #009e73; stroke-linejoin: miter"/>
   </g>
   <g id="text_13">
    <text font-family="Arial" font-size="10" style="font-size: 10px; font-family: 'Arial'; text-anchor: start" x="66.079291" y="187.638229" transform="rotate(-0 66.079291 187.638229)">4</text>
   </g>
   <g id="patch_9">
    <path d="M 76.640229 176.992916 
L 91.640229 176.992916 
L 91.640229 169.992916 
L 76.640229 169.992916 
z
" style="fill: #1874cd; stroke: #1874cd; stroke-linejoin: miter"/>
   </g>
   <g id="text_14">
    <text font-family="Arial" font-size="10" style="font-size: 10px; font-family: 'Arial'; text-anchor: start" x="93.640229" y="176.992916" transform="rotate(-0 93.640229 176.992916)">5</text>
   </g>
   <g id="patch_10">
    <path d="M 76.640229 187.638229 
L 91.640229 187.638229 
L 91.640229 180.638229 
L 76.640229 180.638229 
z
" style="fill: #8e0496; stroke: #8e0496; stroke-linejoin: miter"/>
   </g>
   <g id="text_15">
    <text font-family="Arial" font-size="10" style="font-size: 10px; font-family: 'Arial'; text-anchor: start" x="93.640229" y="187.638229" transform="rotate(-0 93.640229 187.638229)">6</text>
   </g>
  </g>
  <g id="legend_2">
   <g id="text_16">
    <text font-family="Arial" font-size="10" style="font-size: 10px; font-family: 'Arial'; text-anchor: start" x="105.097885" y="166.347604" transform="rotate(-0 105.097885 166.347604)">Barcode</text>
   </g>
   <g id="line2d_8">
    <path d="M 104.104135 173.492916 
L 111.604135 173.492916 
L 119.104135 173.492916 
" style="fill: none; stroke: #ffffff; stroke-width: 1.5; stroke-linecap: square"/>
    <defs>
     <path id="m9c96a9c364" d="M 0 5 
C 1.326016 5 2.597899 4.473168 3.535534 3.535534 
C 4.473168 2.597899 5 1.326016 5 0 
C 5 -1.326016 4.473168 -2.597899 3.535534 -3.535534 
C 2.597899 -4.473168 1.326016 -5 0 -5 
C -1.326016 -5 -2.597899 -4.473168 -3.535534 -3.535534 
C -4.473168 -2.597899 -5 -1.326016 -5 0 
C -5 1.326016 -4.473168 2.597899 -3.535534 3.535534 
C -2.597899 4.473168 -1.326016 5 0 5 
z
" style="stroke: #ffffff"/>
    </defs>
    <g>
     <use xlink:href="#m9c96a9c364" x="111.604135" y="173.492916" style="stroke: #ffffff"/>
    </g>
   </g>
   <g id="text_17">
    <text font-family="Arial" font-size="10" style="font-size: 10px; font-family: 'Arial'; text-anchor: start" x="121.104135" y="176.992916" transform="rotate(-0 121.104135 176.992916)">Blast</text>
   </g>
   <g id="line2d_9">
    <path d="M 104.104135 184.138229 
L 111.604135 184.138229 
L 119.104135 184.138229 
" style="fill: none; stroke: #ffffff; stroke-width: 1.5; stroke-linecap: square"/>
    <defs>
     <path id="m390f34647b" d="M -5 5 
L 5 5 
L 5 -5 
L -5 -5 
z
" style="stroke: #ffffff; stroke-linejoin: miter"/>
    </defs>
    <g>
     <use xlink:href="#m390f34647b" x="111.604135" y="184.138229" style="stroke: #ffffff; stroke-linejoin: miter"/>
    </g>
   </g>
   <g id="text_18">
    <text font-family="Arial" font-size="10" style="font-size: 10px; font-family: 'Arial'; text-anchor: start" x="121.104135" y="187.638229" transform="rotate(-0 121.104135 187.638229)">Puro</text>
   </g>
  </g>
 </g>
 <defs>
  <clipPath id="pbd941811f8">
   <rect x="34.284375" y="0" width="116.458738" height="122.869833"/>
  </clipPath>
 </defs>
</svg>
