<?xml version="1.0" encoding="utf-8" standalone="no"?>
<!DOCTYPE svg PUBLIC "-//W3C//DTD SVG 1.1//EN"
  "http://www.w3.org/Graphics/SVG/1.1/DTD/svg11.dtd">
<svg xmlns:xlink="http://www.w3.org/1999/xlink" width="152.399782pt" height="193.625729pt" viewBox="0 0 152.399782 193.625729" xmlns="http://www.w3.org/2000/svg" version="1.1">
 <metadata>
  <rdf:RDF xmlns:dc="http://purl.org/dc/elements/1.1/" xmlns:cc="http://creativecommons.org/ns#" xmlns:rdf="http://www.w3.org/1999/02/22-rdf-syntax-ns#">
   <cc:Work>
    <dc:type rdf:resource="http://purl.org/dc/dcmitype/StillImage"/>
    <dc:date>2025-11-15T15:01:55.923802</dc:date>
    <dc:format>image/svg+xml</dc:format>
    <dc:creator>
     <cc:Agent>
      <dc:title>Matplotlib v3.10.7, https://matplotlib.org/</dc:title>
     </cc:Agent>
    </dc:creator>
   </cc:Work>
  </rdf:RDF>
 </metadata>
 <defs>
  <style type="text/css">*{stroke-linejoin: round; stroke-linecap: butt}</style>
 </defs>
 <g id="figure_1">
  <g id="patch_1">
   <path d="M 0 193.625729 
L 152.399782 193.625729 
L 152.399782 0 
L 0 0 
z
" style="fill: #ffffff"/>
  </g>
  <g id="axes_1">
   <g id="patch_2">
    <path d="M 34.045313 123.108895 
L 150.754757 123.108895 
L 150.754757 0 
L 34.045313 0 
z
" style="fill: #ffffff"/>
   </g>
   <g id="line2d_1">
    <path d="M 39.350287 117.513036 
L 145.449782 5.595859 
" clip-path="url(#pfb7583a5bd)" style="fill: none; stroke-dasharray: 7.4,3.2; stroke-dashoffset: 0; stroke: #000000; stroke-width: 2"/>
   </g>
   <g id="PathCollection_1">
    <path d="M 81.864964 82.078934 
C 82.70361 82.078934 83.50802 81.745736 84.101032 81.152724 
C 84.694045 80.559712 85.027242 79.755302 85.027242 78.916656 
C 85.027242 78.07801 84.694045 77.2736 84.101032 76.680588 
C 83.50802 76.087576 82.70361 75.754379 81.864964 75.754379 
C 81.026319 75.754379 80.221909 76.087576 79.628896 76.680588 
C 79.035884 77.2736 78.702687 78.07801 78.702687 78.916656 
C 78.702687 79.755302 79.035884 80.559712 79.628896 81.152724 
C 80.221909 81.745736 81.026319 82.078934 81.864964 82.078934 
z
" clip-path="url(#pfb7583a5bd)" style="fill: #cd2626; stroke: #ffffff; stroke-width: 0.505964"/>
    <path d="M 108.59766 37.393282 
L 114.922215 37.393282 
L 114.922215 31.068727 
L 108.59766 31.068727 
z
" clip-path="url(#pfb7583a5bd)" style="fill: #cd2626; stroke: #ffffff; stroke-width: 0.505964"/>
    <path d="M 128.598668 31.401092 
C 129.437314 31.401092 130.241724 31.067895 130.834736 30.474883 
C 131.427748 29.88187 131.760946 29.07746 131.760946 28.238815 
C 131.760946 27.400169 131.427748 26.595759 130.834736 26.002747 
C 130.241724 25.409734 129.437314 25.076537 128.598668 25.076537 
C 127.760023 25.076537 126.955613 25.409734 126.3626 26.002747 
C 125.769588 26.595759 125.436391 27.400169 125.436391 28.238815 
C 125.436391 29.07746 125.769588 29.88187 126.3626 30.474883 
C 126.955613 31.067895 127.760023 31.401092 128.598668 31.401092 
z
" clip-path="url(#pfb7583a5bd)" style="fill: #e69f00; stroke: #ffffff; stroke-width: 0.505964"/>
    <path d="M 141.907051 9.159468 
L 148.231606 9.159468 
L 148.231606 2.834913 
L 141.907051 2.834913 
z
" clip-path="url(#pfb7583a5bd)" style="fill: #e69f00; stroke: #ffffff; stroke-width: 0.505964"/>
    <path d="M 119.030134 37.859509 
C 119.868779 37.859509 120.673189 37.526311 121.266201 36.933299 
C 121.859214 36.340287 122.192411 35.535877 122.192411 34.697231 
C 122.192411 33.858585 121.859214 33.054175 121.266201 32.461163 
C 120.673189 31.868151 119.868779 31.534953 119.030134 31.534953 
C 118.191488 31.534953 117.387078 31.868151 116.794066 32.461163 
C 116.201053 33.054175 115.867856 33.858585 115.867856 34.697231 
C 115.867856 35.535877 116.201053 36.340287 116.794066 36.933299 
C 117.387078 37.526311 118.191488 37.859509 119.030134 37.859509 
z
" clip-path="url(#pfb7583a5bd)" style="fill: #ffe600; stroke: #ffffff; stroke-width: 0.505964"/>
    <path d="M 124.934202 27.800518 
L 131.258757 27.800518 
L 131.258757 21.475963 
L 124.934202 21.475963 
z
" clip-path="url(#pfb7583a5bd)" style="fill: #ffe600; stroke: #ffffff; stroke-width: 0.505964"/>
    <path d="M 112.52812 36.616556 
C 113.366766 36.616556 114.171176 36.283358 114.764188 35.690346 
C 115.357201 35.097334 115.690398 34.292924 115.690398 33.454278 
C 115.690398 32.615632 115.357201 31.811222 114.764188 31.21821 
C 114.171176 30.625198 113.366766 30.292 112.52812 30.292 
C 111.689475 30.292 110.885065 30.625198 110.292052 31.21821 
C 109.69904 31.811222 109.365843 32.615632 109.365843 33.454278 
C 109.365843 34.292924 109.69904 35.097334 110.292052 35.690346 
C 110.885065 36.283358 111.689475 36.616556 112.52812 36.616556 
z
" clip-path="url(#pfb7583a5bd)" style="fill: #009e73; stroke: #ffffff; stroke-width: 0.505964"/>
    <path d="M 126.378325 18.680018 
L 132.702881 18.680018 
L 132.702881 12.355463 
L 126.378325 12.355463 
z
" clip-path="url(#pfb7583a5bd)" style="fill: #009e73; stroke: #ffffff; stroke-width: 0.505964"/>
    <path d="M 104.174841 52.220135 
C 105.013487 52.220135 105.817897 51.886938 106.410909 51.293925 
C 107.003921 50.700913 107.337118 49.896503 107.337118 49.057857 
C 107.337118 48.219212 107.003921 47.414802 106.410909 46.821789 
C 105.817897 46.228777 105.013487 45.89558 104.174841 45.89558 
C 103.336195 45.89558 102.531785 46.228777 101.938773 46.821789 
C 101.345761 47.414802 101.012563 48.219212 101.012563 49.057857 
C 101.012563 49.896503 101.345761 50.700913 101.938773 51.293925 
C 102.531785 51.886938 103.336195 52.220135 104.174841 52.220135 
z
" clip-path="url(#pfb7583a5bd)" style="fill: #1874cd; stroke: #ffffff; stroke-width: 0.505964"/>
    <path d="M 101.067557 64.803921 
L 107.392112 64.803921 
L 107.392112 58.479366 
L 101.067557 58.479366 
z
" clip-path="url(#pfb7583a5bd)" style="fill: #1874cd; stroke: #ffffff; stroke-width: 0.505964"/>
    <path d="M 108.982468 55.987203 
C 109.821114 55.987203 110.625524 55.654005 111.218536 55.060993 
C 111.811549 54.467981 112.144746 53.663571 112.144746 52.824925 
C 112.144746 51.986279 111.811549 51.181869 111.218536 50.588857 
C 110.625524 49.995845 109.821114 49.662647 108.982468 49.662647 
C 108.143823 49.662647 107.339413 49.995845 106.7464 50.588857 
C 106.153388 51.181869 105.820191 51.986279 105.820191 52.824925 
C 105.820191 53.663571 106.153388 54.467981 106.7464 55.060993 
C 107.339413 55.654005 108.143823 55.987203 108.982468 55.987203 
z
" clip-path="url(#pfb7583a5bd)" style="fill: #8e0496; stroke: #ffffff; stroke-width: 0.505964"/>
    <path d="M 121.838794 32.416088 
L 128.16335 32.416088 
L 128.16335 26.091532 
L 121.838794 26.091532 
z
" clip-path="url(#pfb7583a5bd)" style="fill: #8e0496; stroke: #ffffff; stroke-width: 0.505964"/>
   </g>
   <g id="matplotlib.axis_1">
    <g id="xtick_1">
     <g id="line2d_2">
      <defs>
       <path id="m8362a937ae" d="M 0 0 
L 0 3.5 
" style="stroke: #000000"/>
      </defs>
      <g>
       <use xlink:href="#m8362a937ae" x="60.570186" y="123.108895" style="stroke: #000000"/>
      </g>
     </g>
     <g id="text_1">
      <text font-family="Arial" font-size="10" style="font-size: 10px; font-family: 'Arial'; text-anchor: middle" x="60.570186" y="137.266708" transform="rotate(-0 60.570186 137.266708)">0.8</text>
     </g>
    </g>
    <g id="xtick_2">
     <g id="line2d_3">
      <g>
       <use xlink:href="#m8362a937ae" x="103.009984" y="123.108895" style="stroke: #000000"/>
      </g>
     </g>
     <g id="text_2">
      <text font-family="Arial" font-size="10" style="font-size: 10px; font-family: 'Arial'; text-anchor: middle" x="103.009984" y="137.266708" transform="rotate(-0 103.009984 137.266708)">0.9</text>
     </g>
    </g>
    <g id="xtick_3">
     <g id="line2d_4">
      <g>
       <use xlink:href="#m8362a937ae" x="145.449782" y="123.108895" style="stroke: #000000"/>
      </g>
     </g>
     <g id="text_3">
      <text font-family="Arial" font-size="10" style="font-size: 10px; font-family: 'Arial'; text-anchor: middle" x="145.449782" y="137.266708" transform="rotate(-0 145.449782 137.266708)">1.0</text>
     </g>
    </g>
    <g id="text_4">
     <text font-family="Arial" font-size="10" style="font-size: 10px; font-family: 'Arial'; text-anchor: middle" x="92.400035" y="150.41202" transform="rotate(-0 92.400035 150.41202)">NJ barcode FMI</text>
    </g>
   </g>
   <g id="matplotlib.axis_2">
    <g id="ytick_1">
     <g id="line2d_5">
      <defs>
       <path id="mad7a2b6a3d" d="M 0 0 
L -3.5 0 
" style="stroke: #000000"/>
      </defs>
      <g>
       <use xlink:href="#mad7a2b6a3d" x="34.045313" y="95.129601" style="stroke: #000000"/>
      </g>
     </g>
     <g id="text_5">
      <text font-family="Arial" font-size="10" style="font-size: 10px; font-family: 'Arial'; text-anchor: end" x="27.045313" y="98.708507" transform="rotate(-0 27.045313 98.708507)">0.8</text>
     </g>
    </g>
    <g id="ytick_2">
     <g id="line2d_6">
      <g>
       <use xlink:href="#mad7a2b6a3d" x="34.045313" y="50.36273" style="stroke: #000000"/>
      </g>
     </g>
     <g id="text_6">
      <text font-family="Arial" font-size="10" style="font-size: 10px; font-family: 'Arial'; text-anchor: end" x="27.045313" y="53.941636" transform="rotate(-0 27.045313 53.941636)">0.9</text>
     </g>
    </g>
    <g id="ytick_3">
     <g id="line2d_7">
      <g>
       <use xlink:href="#mad7a2b6a3d" x="34.045313" y="5.595859" style="stroke: #000000"/>
      </g>
     </g>
     <g id="text_7">
      <text font-family="Arial" font-size="10" style="font-size: 10px; font-family: 'Arial'; text-anchor: end" x="27.045313" y="9.174765" transform="rotate(-0 27.045313 9.174765)">1.0</text>
     </g>
    </g>
    <g id="text_8">
     <text font-family="Arial" font-size="10" style="font-size: 10px; font-family: 'Arial'; text-anchor: middle" x="7.157813" y="61.554448" transform="rotate(-90 7.157813 61.554448)">UPGMA barcode FMI</text>
    </g>
   </g>
   <g id="patch_3">
    <path d="M 34.045313 123.108895 
L 34.045313 0 
" style="fill: none; stroke: #000000; stroke-linejoin: miter; stroke-linecap: square"/>
   </g>
   <g id="patch_4">
    <path d="M 34.045313 123.108895 
L 150.754757 123.108895 
" style="fill: none; stroke: #000000; stroke-linejoin: miter; stroke-linecap: square"/>
   </g>
   <g id="text_9">
    <text font-family="Arial" font-size="8" style="font-size: 8px; font-family: 'Arial'; text-anchor: start" x="103.009984" y="113.036349" transform="rotate(-0 103.009984 113.036349)">r2 = 0.92</text>
   </g>
  </g>
  <g id="legend_1">
   <g id="text_10">
    <text font-family="Arial" font-size="10" style="font-size: 10px; font-family: 'Arial'; text-anchor: start" x="39.376479" y="166.347604" transform="rotate(-0 39.376479 166.347604)">Clone</text>
   </g>
   <g id="patch_5">
    <path d="M 13.598354 176.992916 
L 28.598354 176.992916 
L 28.598354 169.992916 
L 13.598354 169.992916 
z
" style="fill: #cd2626; stroke: #cd2626; stroke-linejoin: miter"/>
   </g>
   <g id="text_11">
    <text font-family="Arial" font-size="10" style="font-size: 10px; font-family: 'Arial'; text-anchor: start" x="30.598354" y="176.992916" transform="rotate(-0 30.598354 176.992916)">1</text>
   </g>
   <g id="patch_6">
    <path d="M 13.598354 187.638229 
L 28.598354 187.638229 
L 28.598354 180.638229 
L 13.598354 180.638229 
z
" style="fill: #e69f00; stroke: #e69f00; stroke-linejoin: miter"/>
   </g>
   <g id="text_12">
    <text font-family="Arial" font-size="10" style="font-size: 10px; font-family: 'Arial'; text-anchor: start" x="30.598354" y="187.638229" transform="rotate(-0 30.598354 187.638229)">2</text>
   </g>
   <g id="patch_7">
    <path d="M 41.159291 176.992916 
L 56.159291 176.992916 
L 56.159291 169.992916 
L 41.159291 169.992916 
z
" style="fill: #ffe600; stroke: #ffe600; stroke-linejoin: miter"/>
   </g>
   <g id="text_13">
    <text font-family="Arial" font-size="10" style="font-size: 10px; font-family: 'Arial'; text-anchor: start" x="58.159291" y="176.992916" transform="rotate(-0 58.159291 176.992916)">3</text>
   </g>
   <g id="patch_8">
    <path d="M 41.159291 187.638229 
L 56.159291 187.638229 
L 56.159291 180.638229 
L 41.159291 180.638229 
z
" style="fill: #009e73; stroke: #009e73; stroke-linejoin: miter"/>
   </g>
   <g id="text_14">
    <text font-family="Arial" font-size="10" style="font-size: 10px; font-family: 'Arial'; text-anchor: start" x="58.159291" y="187.638229" transform="rotate(-0 58.159291 187.638229)">4</text>
   </g>
   <g id="patch_9">
    <path d="M 68.720229 176.992916 
L 83.720229 176.992916 
L 83.720229 169.992916 
L 68.720229 169.992916 
z
" style="fill: #1874cd; stroke: #1874cd; stroke-linejoin: miter"/>
   </g>
   <g id="text_15">
    <text font-family="Arial" font-size="10" style="font-size: 10px; font-family: 'Arial'; text-anchor: start" x="85.720229" y="176.992916" transform="rotate(-0 85.720229 176.992916)">5</text>
   </g>
   <g id="patch_10">
    <path d="M 68.720229 187.638229 
L 83.720229 187.638229 
L 83.720229 180.638229 
L 68.720229 180.638229 
z
" style="fill: #8e0496; stroke: #8e0496; stroke-linejoin: miter"/>
   </g>
   <g id="text_16">
    <text font-family="Arial" font-size="10" style="font-size: 10px; font-family: 'Arial'; text-anchor: start" x="85.720229" y="187.638229" transform="rotate(-0 85.720229 187.638229)">6</text>
   </g>
  </g>
  <g id="legend_2">
   <g id="text_17">
    <text font-family="Arial" font-size="10" style="font-size: 10px; font-family: 'Arial'; text-anchor: start" x="105.097885" y="166.347604" transform="rotate(-0 105.097885 166.347604)">Barcode</text>
   </g>
   <g id="line2d_8">
    <path d="M 104.104135 173.492916 
L 111.604135 173.492916 
L 119.104135 173.492916 
" style="fill: none; stroke: #ffffff; stroke-width: 1.5; stroke-linecap: square"/>
    <defs>
     <path id="m12fe0fc0ef" d="M 0 5 
C 1.326016 5 2.597899 4.473168 3.535534 3.535534 
C 4.473168 2.597899 5 1.326016 5 0 
C 5 -1.326016 4.473168 -2.597899 3.535534 -3.535534 
C 2.597899 -4.473168 1.326016 -5 0 -5 
C -1.326016 -5 -2.597899 -4.473168 -3.535534 -3.535534 
C -4.473168 -2.597899 -5 -1.326016 -5 0 
C -5 1.326016 -4.473168 2.597899 -3.535534 3.535534 
C -2.597899 4.473168 -1.326016 5 0 5 
z
" style="stroke: #ffffff"/>
    </defs>
    <g>
     <use xlink:href="#m12fe0fc0ef" x="111.604135" y="173.492916" style="stroke: #ffffff"/>
    </g>
   </g>
   <g id="text_18">
    <text font-family="Arial" font-size="10" style="font-size: 10px; font-family: 'Arial'; text-anchor: start" x="121.104135" y="176.992916" transform="rotate(-0 121.104135 176.992916)">Blast</text>
   </g>
   <g id="line2d_9">
    <path d="M 104.104135 184.138229 
L 111.604135 184.138229 
L 119.104135 184.138229 
" style="fill: none; stroke: #ffffff; stroke-width: 1.5; stroke-linecap: square"/>
    <defs>
     <path id="m4bacc0e1bf" d="M -5 5 
L 5 5 
L 5 -5 
L -5 -5 
z
" style="stroke: #ffffff; stroke-linejoin: miter"/>
    </defs>
    <g>
     <use xlink:href="#m4bacc0e1bf" x="111.604135" y="184.138229" style="stroke: #ffffff; stroke-linejoin: miter"/>
    </g>
   </g>
   <g id="text_19">
    <text font-family="Arial" font-size="10" style="font-size: 10px; font-family: 'Arial'; text-anchor: start" x="121.104135" y="187.638229" transform="rotate(-0 121.104135 187.638229)">Puro</text>
   </g>
  </g>
 </g>
 <defs>
  <clipPath id="pfb7583a5bd">
   <rect x="34.045313" y="0" width="116.709445" height="123.108895"/>
  </clipPath>
 </defs>
</svg>
