<?xml version="1.0" encoding="utf-8" standalone="no"?>
<!DOCTYPE svg PUBLIC "-//W3C//DTD SVG 1.1//EN"
  "http://www.w3.org/Graphics/SVG/1.1/DTD/svg11.dtd">
<svg xmlns:xlink="http://www.w3.org/1999/xlink" width="137.99952pt" height="130.79952pt" viewBox="0 0 137.99952 130.79952" xmlns="http://www.w3.org/2000/svg" version="1.1">
 <metadata>
  <rdf:RDF xmlns:dc="http://purl.org/dc/elements/1.1/" xmlns:cc="http://creativecommons.org/ns#" xmlns:rdf="http://www.w3.org/1999/02/22-rdf-syntax-ns#">
   <cc:Work>
    <dc:type rdf:resource="http://purl.org/dc/dcmitype/StillImage"/>
    <dc:date>2025-10-21T11:02:49.598537</dc:date>
    <dc:format>image/svg+xml</dc:format>
    <dc:creator>
     <cc:Agent>
      <dc:title>Matplotlib v3.10.7, https://matplotlib.org/</dc:title>
     </cc:Agent>
    </dc:creator>
   </cc:Work>
  </rdf:RDF>
 </metadata>
 <defs>
  <style type="text/css">*{stroke-linejoin: round; stroke-linecap: butt}</style>
 </defs>
 <g id="figure_1">
  <g id="patch_1">
   <path d="M 0 130.79952 
L 137.99952 130.79952 
L 137.99952 0 
L 0 0 
z
" style="fill: #ffffff"/>
  </g>
  <g id="axes_1">
   <g id="patch_2">
    <path d="M 37.067188 101.269832 
L 137.99952 101.269832 
L 137.99952 0 
L 37.067188 0 
z
" style="fill: #ffffff"/>
   </g>
   <g id="FillBetweenPolyCollection_1">
    <defs>
     <path id="m10d92ce970" d="M 47.80467 -106.671004 
L 47.80467 -106.671004 
L 69.279634 -106.671004 
L 90.754598 -106.671004 
L 112.229563 -106.671004 
L 133.704527 -106.671004 
L 133.704527 -106.671004 
L 133.704527 -106.671004 
L 112.229563 -106.671004 
L 90.754598 -106.671004 
L 69.279634 -106.671004 
L 47.80467 -106.671004 
z
" style="stroke: #000000; stroke-opacity: 0.2"/>
    </defs>
    <g clip-path="url(#p9f574e5784)">
     <use xlink:href="#m10d92ce970" x="0" y="130.79952" style="fill-opacity: 0.2; stroke: #000000; stroke-opacity: 0.2"/>
    </g>
   </g>
   <g id="FillBetweenPolyCollection_2">
    <defs>
     <path id="me949b5b78d" d="M 47.80467 -106.863475 
L 47.80467 -106.478534 
L 47.80467 -106.478534 
L 47.80467 -106.478534 
L 47.80467 -106.478534 
L 69.279634 -106.478534 
L 69.279634 -106.478534 
L 69.279634 -106.478534 
L 69.279634 -106.478534 
L 90.754598 -106.478534 
L 90.754598 -106.478534 
L 90.754598 -106.478534 
L 90.754598 -106.478534 
L 112.229563 -106.478534 
L 112.229563 -106.478534 
L 112.229563 -106.478534 
L 112.229563 -106.478534 
L 133.704527 -106.478534 
L 133.704527 -106.478534 
L 133.704527 -106.478534 
L 133.704527 -106.478534 
L 133.704527 -106.863475 
L 133.704527 -106.863475 
L 133.704527 -106.863475 
L 133.704527 -106.863475 
L 133.704527 -106.863475 
L 112.229563 -106.863475 
L 112.229563 -106.863475 
L 112.229563 -106.863475 
L 112.229563 -106.863475 
L 90.754598 -106.863475 
L 90.754598 -106.863475 
L 90.754598 -106.863475 
L 90.754598 -106.863475 
L 69.279634 -106.863475 
L 69.279634 -106.863475 
L 69.279634 -106.863475 
L 69.279634 -106.863475 
L 47.80467 -106.863475 
L 47.80467 -106.863475 
L 47.80467 -106.863475 
L 47.80467 -106.863475 
z
" style="stroke: #000000; stroke-opacity: 0.2"/>
    </defs>
    <g clip-path="url(#p9f574e5784)">
     <use xlink:href="#me949b5b78d" x="0" y="130.79952" style="fill-opacity: 0.2; stroke: #000000; stroke-opacity: 0.2"/>
    </g>
   </g>
   <g id="FillBetweenPolyCollection_3"/>
   <g id="FillBetweenPolyCollection_4">
    <defs>
     <path id="m9015b1afda" d="M 47.80467 -65.824287 
L 47.80467 -57.845561 
L 69.279634 -74.029802 
L 90.754598 -85.970275 
L 112.229563 -98.670648 
L 133.704527 -108.409988 
L 133.704527 -109.299365 
L 133.704527 -109.299365 
L 112.229563 -100.659439 
L 90.754598 -89.611749 
L 69.279634 -78.690253 
L 47.80467 -65.824287 
z
" style="stroke: #cd2626; stroke-opacity: 0.2"/>
    </defs>
    <g clip-path="url(#p9f574e5784)">
     <use xlink:href="#m9015b1afda" x="0" y="130.79952" style="fill: #cd2626; fill-opacity: 0.2; stroke: #cd2626; stroke-opacity: 0.2"/>
    </g>
   </g>
   <g id="FillBetweenPolyCollection_5"/>
   <g id="FillBetweenPolyCollection_6">
    <defs>
     <path id="m1297814752" d="M 47.80467 -70.15339 
L 47.80467 -59.026422 
L 69.279634 -76.201525 
L 90.754598 -96.996365 
L 112.229563 -104.817273 
L 133.704527 -117.896367 
L 133.704527 -119.331174 
L 133.704527 -119.331174 
L 112.229563 -108.087067 
L 90.754598 -103.086893 
L 69.279634 -84.570431 
L 47.80467 -70.15339 
z
" style="stroke: #ffe600; stroke-opacity: 0.2"/>
    </defs>
    <g clip-path="url(#p9f574e5784)">
     <use xlink:href="#m1297814752" x="0" y="130.79952" style="fill: #ffe600; fill-opacity: 0.2; stroke: #ffe600; stroke-opacity: 0.2"/>
    </g>
   </g>
   <g id="FillBetweenPolyCollection_7"/>
   <g id="FillBetweenPolyCollection_8">
    <defs>
     <path id="me2a7508191" d="M 47.80467 -68.785304 
L 47.80467 -62.729629 
L 69.279634 -76.200496 
L 90.754598 -82.125508 
L 112.229563 -103.536695 
L 133.704527 -109.819503 
L 133.704527 -110.547924 
L 133.704527 -110.547924 
L 112.229563 -105.234475 
L 90.754598 -84.989194 
L 69.279634 -80.580271 
L 47.80467 -68.785304 
z
" style="stroke: #009e73; stroke-opacity: 0.2"/>
    </defs>
    <g clip-path="url(#p9f574e5784)">
     <use xlink:href="#me2a7508191" x="0" y="130.79952" style="fill: #009e73; fill-opacity: 0.2; stroke: #009e73; stroke-opacity: 0.2"/>
    </g>
   </g>
   <g id="FillBetweenPolyCollection_9"/>
   <g id="FillBetweenPolyCollection_10">
    <defs>
     <path id="ma15165d741" d="M 47.80467 -59.538269 
L 47.80467 -49.974786 
L 69.279634 -70.251905 
L 90.754598 -88.447641 
L 112.229563 -113.249016 
L 133.704527 -116.384362 
L 133.704527 -118.787227 
L 133.704527 -118.787227 
L 112.229563 -119.584006 
L 90.754598 -99.928358 
L 69.279634 -89.805165 
L 47.80467 -59.538269 
z
" style="stroke: #1874cd; stroke-opacity: 0.2"/>
    </defs>
    <g clip-path="url(#p9f574e5784)">
     <use xlink:href="#ma15165d741" x="0" y="130.79952" style="fill: #1874cd; fill-opacity: 0.2; stroke: #1874cd; stroke-opacity: 0.2"/>
    </g>
   </g>
   <g id="matplotlib.axis_1">
    <g id="xtick_1">
     <g id="line2d_1">
      <defs>
       <path id="m3a03abc2d7" d="M 0 0 
L 0 3.5 
" style="stroke: #000000"/>
      </defs>
      <g>
       <use xlink:href="#m3a03abc2d7" x="37.067188" y="101.269832" style="stroke: #000000"/>
      </g>
     </g>
     <g id="text_1">
      <text font-family="Arial" font-size="10" style="font-size: 10px; font-family: 'Arial'; text-anchor: middle" x="37.067188" y="115.427645" transform="rotate(-0 37.067188 115.427645)">0</text>
     </g>
    </g>
    <g id="xtick_2">
     <g id="line2d_2">
      <g>
       <use xlink:href="#m3a03abc2d7" x="80.017116" y="101.269832" style="stroke: #000000"/>
      </g>
     </g>
     <g id="text_2">
      <text font-family="Arial" font-size="10" style="font-size: 10px; font-family: 'Arial'; text-anchor: middle" x="80.017116" y="115.427645" transform="rotate(-0 80.017116 115.427645)">2</text>
     </g>
    </g>
    <g id="xtick_3">
     <g id="line2d_3">
      <g>
       <use xlink:href="#m3a03abc2d7" x="122.967045" y="101.269832" style="stroke: #000000"/>
      </g>
     </g>
     <g id="text_3">
      <text font-family="Arial" font-size="10" style="font-size: 10px; font-family: 'Arial'; text-anchor: middle" x="122.967045" y="115.427645" transform="rotate(-0 122.967045 115.427645)">4</text>
     </g>
    </g>
    <g id="text_4">
     <text font-family="Arial" font-size="10" style="font-size: 10px; font-family: 'Arial'; text-anchor: middle" x="87.533354" y="128.694832" transform="rotate(-0 87.533354 128.694832)">Phylo. dist. (days)</text>
    </g>
   </g>
   <g id="matplotlib.axis_2">
    <g id="ytick_1">
     <g id="line2d_4">
      <defs>
       <path id="m214e5327bf" d="M 0 0 
L -3.5 0 
" style="stroke: #000000"/>
      </defs>
      <g>
       <use xlink:href="#m214e5327bf" x="37.067188" y="101.269832" style="stroke: #000000"/>
      </g>
     </g>
     <g id="text_5">
      <text font-family="Arial" font-size="10" style="font-size: 10px; font-family: 'Arial'; text-anchor: end" x="30.067188" y="104.848739" transform="rotate(-0 30.067188 104.848739)">0</text>
     </g>
    </g>
    <g id="ytick_2">
     <g id="line2d_5">
      <g>
       <use xlink:href="#m214e5327bf" x="37.067188" y="72.335595" style="stroke: #000000"/>
      </g>
     </g>
     <g id="text_6">
      <text font-family="Arial" font-size="10" style="font-size: 10px; font-family: 'Arial'; text-anchor: end" x="30.067188" y="75.914501" transform="rotate(-0 30.067188 75.914501)">100</text>
     </g>
    </g>
    <g id="ytick_3">
     <g id="line2d_6">
      <g>
       <use xlink:href="#m214e5327bf" x="37.067188" y="43.401357" style="stroke: #000000"/>
      </g>
     </g>
     <g id="text_7">
      <text font-family="Arial" font-size="10" style="font-size: 10px; font-family: 'Arial'; text-anchor: end" x="30.067188" y="46.980263" transform="rotate(-0 30.067188 46.980263)">200</text>
     </g>
    </g>
    <g id="ytick_4">
     <g id="line2d_7">
      <g>
       <use xlink:href="#m214e5327bf" x="37.067188" y="14.467119" style="stroke: #000000"/>
      </g>
     </g>
     <g id="text_8">
      <text font-family="Arial" font-size="10" style="font-size: 10px; font-family: 'Arial'; text-anchor: end" x="30.067188" y="18.046025" transform="rotate(-0 30.067188 18.046025)">300</text>
     </g>
    </g>
    <g id="text_9">
     <text font-family="Arial" font-size="10" style="font-size: 10px; font-family: 'Arial'; text-anchor: middle" x="7.279688" y="50.634916" transform="rotate(-90 7.279688 50.634916)">Mean spatial dist. (um)</text>
    </g>
   </g>
   <g id="line2d_8">
    <path d="M 47.80467 24.128516 
L 69.279634 24.128516 
L 90.754598 24.128516 
L 112.229563 24.128516 
L 133.704527 24.128516 
" clip-path="url(#p9f574e5784)" style="fill: none; stroke: #000000; stroke-width: 2; stroke-linecap: square"/>
   </g>
   <g id="line2d_9">
    <path d="M 47.80467 68.964596 
L 69.279634 54.439492 
L 90.754598 43.008508 
L 112.229563 31.134477 
L 133.704527 21.944844 
" clip-path="url(#p9f574e5784)" style="fill: none; stroke: #cd2626; stroke-width: 2; stroke-linecap: square"/>
   </g>
   <g id="line2d_10">
    <path d="M 47.80467 66.209614 
L 69.279634 50.413542 
L 90.754598 30.757891 
L 112.229563 24.34735 
L 133.704527 12.185749 
" clip-path="url(#p9f574e5784)" style="fill: none; stroke: #ffe600; stroke-width: 2; stroke-linecap: square"/>
   </g>
   <g id="line2d_11">
    <path d="M 47.80467 65.042053 
L 69.279634 52.409137 
L 90.754598 47.242169 
L 112.229563 26.413935 
L 133.704527 20.615806 
" clip-path="url(#p9f574e5784)" style="fill: none; stroke: #009e73; stroke-width: 2; stroke-linecap: square"/>
   </g>
   <g id="line2d_12">
    <path d="M 47.80467 76.042993 
L 69.279634 50.770985 
L 90.754598 36.61152 
L 112.229563 14.383009 
L 133.704527 13.213726 
" clip-path="url(#p9f574e5784)" style="fill: none; stroke: #1874cd; stroke-width: 2; stroke-linecap: square"/>
   </g>
   <g id="patch_3">
    <path d="M 37.067188 101.269832 
L 37.067188 0 
" style="fill: none; stroke: #000000; stroke-linejoin: miter; stroke-linecap: square"/>
   </g>
   <g id="patch_4">
    <path d="M 37.067188 101.269832 
L 137.99952 101.269832 
" style="fill: none; stroke: #000000; stroke-linejoin: miter; stroke-linecap: square"/>
   </g>
   <g id="legend_1">
    <g id="text_10">
     <text font-family="Arial" font-size="10" style="font-size: 10px; font-family: 'Arial'" transform="translate(78.145614 36.167957)">Detection</text>
     <text font-family="Arial" font-size="10" style="font-size: 10px; font-family: 'Arial'" transform="translate(78.145614 46.744833)">rate</text>
    </g>
    <g id="line2d_13">
     <path d="M 69.535457 54.01202 
L 77.035457 54.01202 
L 84.535457 54.01202 
" style="fill: none; stroke: #cd2626; stroke-width: 2; stroke-linecap: square"/>
    </g>
    <g id="text_11">
     <text font-family="Arial" font-size="10" style="font-size: 10px; font-family: 'Arial'; text-anchor: start" x="89.535457" y="57.51202" transform="rotate(-0 89.535457 57.51202)">(0.6, 0.7]</text>
    </g>
    <g id="line2d_14">
     <path d="M 69.535457 64.896395 
L 77.035457 64.896395 
L 84.535457 64.896395 
" style="fill: none; stroke: #ffe600; stroke-width: 2; stroke-linecap: square"/>
    </g>
    <g id="text_12">
     <text font-family="Arial" font-size="10" style="font-size: 10px; font-family: 'Arial'; text-anchor: start" x="89.535457" y="68.396395" transform="rotate(-0 89.535457 68.396395)">(0.7, 0.8]</text>
    </g>
    <g id="line2d_15">
     <path d="M 69.535457 75.78077 
L 77.035457 75.78077 
L 84.535457 75.78077 
" style="fill: none; stroke: #009e73; stroke-width: 2; stroke-linecap: square"/>
    </g>
    <g id="text_13">
     <text font-family="Arial" font-size="10" style="font-size: 10px; font-family: 'Arial'; text-anchor: start" x="89.535457" y="79.28077" transform="rotate(-0 89.535457 79.28077)">(0.8, 0.9]</text>
    </g>
    <g id="line2d_16">
     <path d="M 69.535457 86.665145 
L 77.035457 86.665145 
L 84.535457 86.665145 
" style="fill: none; stroke: #1874cd; stroke-width: 2; stroke-linecap: square"/>
    </g>
    <g id="text_14">
     <text font-family="Arial" font-size="10" style="font-size: 10px; font-family: 'Arial'; text-anchor: start" x="89.535457" y="90.165145" transform="rotate(-0 89.535457 90.165145)">(0.9, 1.0]</text>
    </g>
   </g>
  </g>
 </g>
 <defs>
  <clipPath id="p9f574e5784">
   <rect x="37.067188" y="0" width="100.932332" height="101.269832"/>
  </clipPath>
 </defs>
</svg>
