<?xml version="1.0" encoding="utf-8" standalone="no"?>
<!DOCTYPE svg PUBLIC "-//W3C//DTD SVG 1.1//EN"
  "http://www.w3.org/Graphics/SVG/1.1/DTD/svg11.dtd">
<svg xmlns:xlink="http://www.w3.org/1999/xlink" width="137.99952pt" height="130.79952pt" viewBox="0 0 137.99952 130.79952" xmlns="http://www.w3.org/2000/svg" version="1.1">
 <metadata>
  <rdf:RDF xmlns:dc="http://purl.org/dc/elements/1.1/" xmlns:cc="http://creativecommons.org/ns#" xmlns:rdf="http://www.w3.org/1999/02/22-rdf-syntax-ns#">
   <cc:Work>
    <dc:type rdf:resource="http://purl.org/dc/dcmitype/StillImage"/>
    <dc:date>2025-10-24T14:12:36.638460</dc:date>
    <dc:format>image/svg+xml</dc:format>
    <dc:creator>
     <cc:Agent>
      <dc:title>Matplotlib v3.10.7, https://matplotlib.org/</dc:title>
     </cc:Agent>
    </dc:creator>
   </cc:Work>
  </rdf:RDF>
 </metadata>
 <defs>
  <style type="text/css">*{stroke-linejoin: round; stroke-linecap: butt}</style>
 </defs>
 <g id="figure_1">
  <g id="patch_1">
   <path d="M 0 130.79952 
L 137.99952 130.79952 
L 137.99952 0 
L 0 0 
z
" style="fill: #ffffff"/>
  </g>
  <g id="axes_1">
   <g id="patch_2">
    <path d="M 37.067188 101.269832 
L 137.99952 101.269832 
L 137.99952 0 
L 37.067188 0 
z
" style="fill: #ffffff"/>
   </g>
   <g id="FillBetweenPolyCollection_1">
    <defs>
     <path id="m18d699c3cf" d="M 47.80467 -106.639241 
L 47.80467 -106.639241 
L 69.279634 -106.639241 
L 90.754598 -106.639241 
L 112.229563 -106.639241 
L 133.704527 -106.639241 
L 133.704527 -106.639241 
L 133.704527 -106.639241 
L 112.229563 -106.639241 
L 90.754598 -106.639241 
L 69.279634 -106.639241 
L 47.80467 -106.639241 
z
" style="stroke: #000000; stroke-opacity: 0.2"/>
    </defs>
    <g clip-path="url(#pc8065f3843)">
     <use xlink:href="#m18d699c3cf" x="0" y="130.79952" style="fill-opacity: 0.2; stroke: #000000; stroke-opacity: 0.2"/>
    </g>
   </g>
   <g id="FillBetweenPolyCollection_2">
    <defs>
     <path id="ma43c0d4a33" d="M 47.80467 -106.829923 
L 47.80467 -106.44856 
L 47.80467 -106.44856 
L 47.80467 -106.44856 
L 47.80467 -106.44856 
L 69.279634 -106.44856 
L 69.279634 -106.44856 
L 69.279634 -106.44856 
L 69.279634 -106.44856 
L 90.754598 -106.44856 
L 90.754598 -106.44856 
L 90.754598 -106.44856 
L 90.754598 -106.44856 
L 112.229563 -106.44856 
L 112.229563 -106.44856 
L 112.229563 -106.44856 
L 112.229563 -106.44856 
L 133.704527 -106.44856 
L 133.704527 -106.44856 
L 133.704527 -106.44856 
L 133.704527 -106.44856 
L 133.704527 -106.829923 
L 133.704527 -106.829923 
L 133.704527 -106.829923 
L 133.704527 -106.829923 
L 133.704527 -106.829923 
L 112.229563 -106.829923 
L 112.229563 -106.829923 
L 112.229563 -106.829923 
L 112.229563 -106.829923 
L 90.754598 -106.829923 
L 90.754598 -106.829923 
L 90.754598 -106.829923 
L 90.754598 -106.829923 
L 69.279634 -106.829923 
L 69.279634 -106.829923 
L 69.279634 -106.829923 
L 69.279634 -106.829923 
L 47.80467 -106.829923 
L 47.80467 -106.829923 
L 47.80467 -106.829923 
L 47.80467 -106.829923 
z
" style="stroke: #000000; stroke-opacity: 0.2"/>
    </defs>
    <g clip-path="url(#pc8065f3843)">
     <use xlink:href="#ma43c0d4a33" x="0" y="130.79952" style="fill-opacity: 0.2; stroke: #000000; stroke-opacity: 0.2"/>
    </g>
   </g>
   <g id="FillBetweenPolyCollection_3"/>
   <g id="FillBetweenPolyCollection_4">
    <defs>
     <path id="mf372fcaf4f" d="M 47.80467 -68.122819 
L 47.80467 -61.864096 
L 69.279634 -76.325787 
L 90.754598 -91.312984 
L 112.229563 -90.16874 
L 133.704527 -106.918612 
L 133.704527 -109.151296 
L 133.704527 -109.151296 
L 112.229563 -93.069472 
L 90.754598 -94.448472 
L 69.279634 -81.724896 
L 47.80467 -68.122819 
z
" style="stroke: #cd2626; stroke-opacity: 0.2"/>
    </defs>
    <g clip-path="url(#pc8065f3843)">
     <use xlink:href="#mf372fcaf4f" x="0" y="130.79952" style="fill: #cd2626; fill-opacity: 0.2; stroke: #cd2626; stroke-opacity: 0.2"/>
    </g>
   </g>
   <g id="FillBetweenPolyCollection_5"/>
   <g id="FillBetweenPolyCollection_6">
    <defs>
     <path id="mc966bbf259" d="M 47.80467 -64.618519 
L 47.80467 -56.699741 
L 69.279634 -70.55314 
L 90.754598 -94.695538 
L 112.229563 -108.505094 
L 133.704527 -117.94408 
L 133.704527 -121.613526 
L 133.704527 -121.613526 
L 112.229563 -113.757409 
L 90.754598 -100.30861 
L 69.279634 -79.857296 
L 47.80467 -64.618519 
z
" style="stroke: #ffe600; stroke-opacity: 0.2"/>
    </defs>
    <g clip-path="url(#pc8065f3843)">
     <use xlink:href="#mc966bbf259" x="0" y="130.79952" style="fill: #ffe600; fill-opacity: 0.2; stroke: #ffe600; stroke-opacity: 0.2"/>
    </g>
   </g>
   <g id="FillBetweenPolyCollection_7"/>
   <g id="FillBetweenPolyCollection_8">
    <defs>
     <path id="m3a7f5f3f71" d="M 47.80467 -76.5013 
L 47.80467 -68.023679 
L 69.279634 -76.790433 
L 90.754598 -90.107053 
L 112.229563 -95.447166 
L 133.704527 -111.63474 
L 133.704527 -113.55256 
L 133.704527 -113.55256 
L 112.229563 -97.635486 
L 90.754598 -93.17121 
L 69.279634 -81.03337 
L 47.80467 -76.5013 
z
" style="stroke: #009e73; stroke-opacity: 0.2"/>
    </defs>
    <g clip-path="url(#pc8065f3843)">
     <use xlink:href="#m3a7f5f3f71" x="0" y="130.79952" style="fill: #009e73; fill-opacity: 0.2; stroke: #009e73; stroke-opacity: 0.2"/>
    </g>
   </g>
   <g id="FillBetweenPolyCollection_9"/>
   <g id="FillBetweenPolyCollection_10">
    <defs>
     <path id="m706a0497af" d="M 47.80467 -46.81117 
L 47.80467 -40.352071 
L 69.279634 -88.931322 
L 90.754598 -91.426852 
L 112.229563 -115.469585 
L 133.704527 -118.751156 
L 133.704527 -124.640313 
L 133.704527 -124.640313 
L 112.229563 -122.398192 
L 90.754598 -101.739125 
L 69.279634 -105.582741 
L 47.80467 -46.81117 
z
" style="stroke: #1874cd; stroke-opacity: 0.2"/>
    </defs>
    <g clip-path="url(#pc8065f3843)">
     <use xlink:href="#m706a0497af" x="0" y="130.79952" style="fill: #1874cd; fill-opacity: 0.2; stroke: #1874cd; stroke-opacity: 0.2"/>
    </g>
   </g>
   <g id="matplotlib.axis_1">
    <g id="xtick_1">
     <g id="line2d_1">
      <defs>
       <path id="m6951ae98b8" d="M 0 0 
L 0 3.5 
" style="stroke: #000000"/>
      </defs>
      <g>
       <use xlink:href="#m6951ae98b8" x="37.067188" y="101.269832" style="stroke: #000000"/>
      </g>
     </g>
     <g id="text_1">
      <text font-family="Arial" font-size="10" style="font-size: 10px; font-family: 'Arial'; text-anchor: middle" x="37.067188" y="115.427645" transform="rotate(-0 37.067188 115.427645)">0</text>
     </g>
    </g>
    <g id="xtick_2">
     <g id="line2d_2">
      <g>
       <use xlink:href="#m6951ae98b8" x="80.017116" y="101.269832" style="stroke: #000000"/>
      </g>
     </g>
     <g id="text_2">
      <text font-family="Arial" font-size="10" style="font-size: 10px; font-family: 'Arial'; text-anchor: middle" x="80.017116" y="115.427645" transform="rotate(-0 80.017116 115.427645)">2</text>
     </g>
    </g>
    <g id="xtick_3">
     <g id="line2d_3">
      <g>
       <use xlink:href="#m6951ae98b8" x="122.967045" y="101.269832" style="stroke: #000000"/>
      </g>
     </g>
     <g id="text_3">
      <text font-family="Arial" font-size="10" style="font-size: 10px; font-family: 'Arial'; text-anchor: middle" x="122.967045" y="115.427645" transform="rotate(-0 122.967045 115.427645)">4</text>
     </g>
    </g>
    <g id="text_4">
     <text font-family="Arial" font-size="10" style="font-size: 10px; font-family: 'Arial'; text-anchor: middle" x="87.533354" y="128.694832" transform="rotate(-0 87.533354 128.694832)">Phylo. dist. (days)</text>
    </g>
   </g>
   <g id="matplotlib.axis_2">
    <g id="ytick_1">
     <g id="line2d_4">
      <defs>
       <path id="m6c1cb073d1" d="M 0 0 
L -3.5 0 
" style="stroke: #000000"/>
      </defs>
      <g>
       <use xlink:href="#m6c1cb073d1" x="37.067188" y="101.269832" style="stroke: #000000"/>
      </g>
     </g>
     <g id="text_5">
      <text font-family="Arial" font-size="10" style="font-size: 10px; font-family: 'Arial'; text-anchor: end" x="30.067188" y="104.848739" transform="rotate(-0 30.067188 104.848739)">0</text>
     </g>
    </g>
    <g id="ytick_2">
     <g id="line2d_5">
      <g>
       <use xlink:href="#m6c1cb073d1" x="37.067188" y="72.335595" style="stroke: #000000"/>
      </g>
     </g>
     <g id="text_6">
      <text font-family="Arial" font-size="10" style="font-size: 10px; font-family: 'Arial'; text-anchor: end" x="30.067188" y="75.914501" transform="rotate(-0 30.067188 75.914501)">100</text>
     </g>
    </g>
    <g id="ytick_3">
     <g id="line2d_6">
      <g>
       <use xlink:href="#m6c1cb073d1" x="37.067188" y="43.401357" style="stroke: #000000"/>
      </g>
     </g>
     <g id="text_7">
      <text font-family="Arial" font-size="10" style="font-size: 10px; font-family: 'Arial'; text-anchor: end" x="30.067188" y="46.980263" transform="rotate(-0 30.067188 46.980263)">200</text>
     </g>
    </g>
    <g id="ytick_4">
     <g id="line2d_7">
      <g>
       <use xlink:href="#m6c1cb073d1" x="37.067188" y="14.467119" style="stroke: #000000"/>
      </g>
     </g>
     <g id="text_8">
      <text font-family="Arial" font-size="10" style="font-size: 10px; font-family: 'Arial'; text-anchor: end" x="30.067188" y="18.046025" transform="rotate(-0 30.067188 18.046025)">300</text>
     </g>
    </g>
    <g id="text_9">
     <text font-family="Arial" font-size="10" style="font-size: 10px; font-family: 'Arial'; text-anchor: middle" x="7.279688" y="50.634916" transform="rotate(-90 7.279688 50.634916)">Mean spatial dist. (um)</text>
    </g>
   </g>
   <g id="line2d_8">
    <path d="M 47.80467 24.160279 
L 69.279634 24.160279 
L 90.754598 24.160279 
L 112.229563 24.160279 
L 133.704527 24.160279 
" clip-path="url(#pc8065f3843)" style="fill: none; stroke: #000000; stroke-width: 2; stroke-linecap: square"/>
   </g>
   <g id="line2d_9">
    <path d="M 47.80467 65.806063 
L 69.279634 51.774178 
L 90.754598 37.918792 
L 112.229563 39.180414 
L 133.704527 22.764566 
" clip-path="url(#pc8065f3843)" style="fill: none; stroke: #cd2626; stroke-width: 2; stroke-linecap: square"/>
   </g>
   <g id="line2d_10">
    <path d="M 47.80467 70.14039 
L 69.279634 55.594302 
L 90.754598 33.297446 
L 112.229563 19.668268 
L 133.704527 11.020717 
" clip-path="url(#pc8065f3843)" style="fill: none; stroke: #ffe600; stroke-width: 2; stroke-linecap: square"/>
   </g>
   <g id="line2d_11">
    <path d="M 47.80467 58.53703 
L 69.279634 51.887618 
L 90.754598 39.160388 
L 112.229563 34.258194 
L 133.704527 18.20587 
" clip-path="url(#pc8065f3843)" style="fill: none; stroke: #009e73; stroke-width: 2; stroke-linecap: square"/>
   </g>
   <g id="line2d_12">
    <path d="M 47.80467 87.2179 
L 69.279634 33.542489 
L 90.754598 34.216531 
L 112.229563 11.865631 
L 133.704527 9.103786 
" clip-path="url(#pc8065f3843)" style="fill: none; stroke: #1874cd; stroke-width: 2; stroke-linecap: square"/>
   </g>
   <g id="patch_3">
    <path d="M 37.067188 101.269832 
L 37.067188 0 
" style="fill: none; stroke: #000000; stroke-linejoin: miter; stroke-linecap: square"/>
   </g>
   <g id="patch_4">
    <path d="M 37.067188 101.269832 
L 137.99952 101.269832 
" style="fill: none; stroke: #000000; stroke-linejoin: miter; stroke-linecap: square"/>
   </g>
   <g id="legend_1">
    <g id="text_10">
     <text font-family="Arial" font-size="10" style="font-size: 10px; font-family: 'Arial'" transform="translate(78.145614 36.167957)">Detection</text>
     <text font-family="Arial" font-size="10" style="font-size: 10px; font-family: 'Arial'" transform="translate(78.145614 46.744833)">rate</text>
    </g>
    <g id="line2d_13">
     <path d="M 69.535457 54.01202 
L 77.035457 54.01202 
L 84.535457 54.01202 
" style="fill: none; stroke: #cd2626; stroke-width: 2; stroke-linecap: square"/>
    </g>
    <g id="text_11">
     <text font-family="Arial" font-size="10" style="font-size: 10px; font-family: 'Arial'; text-anchor: start" x="89.535457" y="57.51202" transform="rotate(-0 89.535457 57.51202)">(0.6, 0.7]</text>
    </g>
    <g id="line2d_14">
     <path d="M 69.535457 64.896395 
L 77.035457 64.896395 
L 84.535457 64.896395 
" style="fill: none; stroke: #ffe600; stroke-width: 2; stroke-linecap: square"/>
    </g>
    <g id="text_12">
     <text font-family="Arial" font-size="10" style="font-size: 10px; font-family: 'Arial'; text-anchor: start" x="89.535457" y="68.396395" transform="rotate(-0 89.535457 68.396395)">(0.7, 0.8]</text>
    </g>
    <g id="line2d_15">
     <path d="M 69.535457 75.78077 
L 77.035457 75.78077 
L 84.535457 75.78077 
" style="fill: none; stroke: #009e73; stroke-width: 2; stroke-linecap: square"/>
    </g>
    <g id="text_13">
     <text font-family="Arial" font-size="10" style="font-size: 10px; font-family: 'Arial'; text-anchor: start" x="89.535457" y="79.28077" transform="rotate(-0 89.535457 79.28077)">(0.8, 0.9]</text>
    </g>
    <g id="line2d_16">
     <path d="M 69.535457 86.665145 
L 77.035457 86.665145 
L 84.535457 86.665145 
" style="fill: none; stroke: #1874cd; stroke-width: 2; stroke-linecap: square"/>
    </g>
    <g id="text_14">
     <text font-family="Arial" font-size="10" style="font-size: 10px; font-family: 'Arial'; text-anchor: start" x="89.535457" y="90.165145" transform="rotate(-0 89.535457 90.165145)">(0.9, 1.0]</text>
    </g>
   </g>
  </g>
 </g>
 <defs>
  <clipPath id="pc8065f3843">
   <rect x="37.067188" y="0" width="100.932332" height="101.269832"/>
  </clipPath>
 </defs>
</svg>
