<?xml version="1.0" encoding="utf-8" standalone="no"?>
<!DOCTYPE svg PUBLIC "-//W3C//DTD SVG 1.1//EN"
  "http://www.w3.org/Graphics/SVG/1.1/DTD/svg11.dtd">
<svg xmlns:xlink="http://www.w3.org/1999/xlink" width="137.99952pt" height="130.79952pt" viewBox="0 0 137.99952 130.79952" xmlns="http://www.w3.org/2000/svg" version="1.1">
 <metadata>
  <rdf:RDF xmlns:dc="http://purl.org/dc/elements/1.1/" xmlns:cc="http://creativecommons.org/ns#" xmlns:rdf="http://www.w3.org/1999/02/22-rdf-syntax-ns#">
   <cc:Work>
    <dc:type rdf:resource="http://purl.org/dc/dcmitype/StillImage"/>
    <dc:date>2025-10-29T11:59:56.150263</dc:date>
    <dc:format>image/svg+xml</dc:format>
    <dc:creator>
     <cc:Agent>
      <dc:title>Matplotlib v3.10.7, https://matplotlib.org/</dc:title>
     </cc:Agent>
    </dc:creator>
   </cc:Work>
  </rdf:RDF>
 </metadata>
 <defs>
  <style type="text/css">*{stroke-linejoin: round; stroke-linecap: butt}</style>
 </defs>
 <g id="figure_1">
  <g id="patch_1">
   <path d="M 0 130.79952 
L 137.99952 130.79952 
L 137.99952 0 
L 0 0 
z
" style="fill: #ffffff"/>
  </g>
  <g id="axes_1">
   <g id="patch_2">
    <path d="M 37.067188 101.269832 
L 137.99952 101.269832 
L 137.99952 0 
L 37.067188 0 
z
" style="fill: #ffffff"/>
   </g>
   <g id="FillBetweenPolyCollection_1">
    <defs>
     <path id="mf7babb1eb2" d="M 47.80467 -106.400704 
L 47.80467 -106.400704 
L 69.279634 -106.400704 
L 90.754598 -106.400704 
L 112.229563 -106.400704 
L 133.704527 -106.400704 
L 133.704527 -106.400704 
L 133.704527 -106.400704 
L 112.229563 -106.400704 
L 90.754598 -106.400704 
L 69.279634 -106.400704 
L 47.80467 -106.400704 
z
" style="stroke: #000000; stroke-opacity: 0.2"/>
    </defs>
    <g clip-path="url(#pc5e7328446)">
     <use xlink:href="#mf7babb1eb2" x="0" y="130.79952" style="fill-opacity: 0.2; stroke: #000000; stroke-opacity: 0.2"/>
    </g>
   </g>
   <g id="FillBetweenPolyCollection_2">
    <defs>
     <path id="m794a5dab4e" d="M 47.80467 -106.591463 
L 47.80467 -106.209945 
L 47.80467 -106.209945 
L 47.80467 -106.209945 
L 47.80467 -106.209945 
L 69.279634 -106.209945 
L 69.279634 -106.209945 
L 69.279634 -106.209945 
L 69.279634 -106.209945 
L 90.754598 -106.209945 
L 90.754598 -106.209945 
L 90.754598 -106.209945 
L 90.754598 -106.209945 
L 112.229563 -106.209945 
L 112.229563 -106.209945 
L 112.229563 -106.209945 
L 112.229563 -106.209945 
L 133.704527 -106.209945 
L 133.704527 -106.209945 
L 133.704527 -106.209945 
L 133.704527 -106.209945 
L 133.704527 -106.591463 
L 133.704527 -106.591463 
L 133.704527 -106.591463 
L 133.704527 -106.591463 
L 133.704527 -106.591463 
L 112.229563 -106.591463 
L 112.229563 -106.591463 
L 112.229563 -106.591463 
L 112.229563 -106.591463 
L 90.754598 -106.591463 
L 90.754598 -106.591463 
L 90.754598 -106.591463 
L 90.754598 -106.591463 
L 69.279634 -106.591463 
L 69.279634 -106.591463 
L 69.279634 -106.591463 
L 69.279634 -106.591463 
L 47.80467 -106.591463 
L 47.80467 -106.591463 
L 47.80467 -106.591463 
L 47.80467 -106.591463 
z
" style="stroke: #000000; stroke-opacity: 0.2"/>
    </defs>
    <g clip-path="url(#pc5e7328446)">
     <use xlink:href="#m794a5dab4e" x="0" y="130.79952" style="fill-opacity: 0.2; stroke: #000000; stroke-opacity: 0.2"/>
    </g>
   </g>
   <g id="FillBetweenPolyCollection_3"/>
   <g id="FillBetweenPolyCollection_4">
    <defs>
     <path id="m763e72af30" d="M 47.80467 -63.040384 
L 47.80467 -56.06369 
L 69.279634 -73.923988 
L 90.754598 -80.307862 
L 112.229563 -100.714999 
L 133.704527 -107.704535 
L 133.704527 -109.847347 
L 133.704527 -109.847347 
L 112.229563 -104.004031 
L 90.754598 -84.285839 
L 69.279634 -79.539887 
L 47.80467 -63.040384 
z
" style="stroke: #cd2626; stroke-opacity: 0.2"/>
    </defs>
    <g clip-path="url(#pc5e7328446)">
     <use xlink:href="#m763e72af30" x="0" y="130.79952" style="fill: #cd2626; fill-opacity: 0.2; stroke: #cd2626; stroke-opacity: 0.2"/>
    </g>
   </g>
   <g id="FillBetweenPolyCollection_5"/>
   <g id="FillBetweenPolyCollection_6">
    <defs>
     <path id="m1ec56d1af1" d="M 47.80467 -69.080486 
L 47.80467 -56.313783 
L 69.279634 -79.874034 
L 90.754598 -96.964852 
L 112.229563 -115.53394 
L 133.704527 -114.672428 
L 133.704527 -117.886097 
L 133.704527 -117.886097 
L 112.229563 -120.895754 
L 90.754598 -102.797529 
L 69.279634 -89.253386 
L 47.80467 -69.080486 
z
" style="stroke: #ffe600; stroke-opacity: 0.2"/>
    </defs>
    <g clip-path="url(#pc5e7328446)">
     <use xlink:href="#m1ec56d1af1" x="0" y="130.79952" style="fill: #ffe600; fill-opacity: 0.2; stroke: #ffe600; stroke-opacity: 0.2"/>
    </g>
   </g>
   <g id="FillBetweenPolyCollection_7"/>
   <g id="FillBetweenPolyCollection_8">
    <defs>
     <path id="m1d3341d6d2" d="M 47.80467 -71.443254 
L 47.80467 -64.169152 
L 69.279634 -73.64413 
L 90.754598 -91.407348 
L 112.229563 -103.276902 
L 133.704527 -106.224605 
L 133.704527 -107.978082 
L 133.704527 -107.978082 
L 112.229563 -105.978316 
L 90.754598 -95.082633 
L 69.279634 -77.598189 
L 47.80467 -71.443254 
z
" style="stroke: #009e73; stroke-opacity: 0.2"/>
    </defs>
    <g clip-path="url(#pc5e7328446)">
     <use xlink:href="#m1d3341d6d2" x="0" y="130.79952" style="fill: #009e73; fill-opacity: 0.2; stroke: #009e73; stroke-opacity: 0.2"/>
    </g>
   </g>
   <g id="FillBetweenPolyCollection_9"/>
   <g id="FillBetweenPolyCollection_10">
    <defs>
     <path id="m19509eef41" d="M 47.80467 -50.695787 
L 47.80467 -46.169512 
L 69.279634 -69.748948 
L 90.754598 -88.746094 
L 112.229563 -123.365608 
L 133.704527 -116.164525 
L 133.704527 -122.284922 
L 133.704527 -122.284922 
L 112.229563 -131.194495 
L 90.754598 -103.39514 
L 69.279634 -84.883736 
L 47.80467 -50.695787 
z
" style="stroke: #1874cd; stroke-opacity: 0.2"/>
    </defs>
    <g clip-path="url(#pc5e7328446)">
     <use xlink:href="#m19509eef41" x="0" y="130.79952" style="fill: #1874cd; fill-opacity: 0.2; stroke: #1874cd; stroke-opacity: 0.2"/>
    </g>
   </g>
   <g id="matplotlib.axis_1">
    <g id="xtick_1">
     <g id="line2d_1">
      <defs>
       <path id="mb47aa6489b" d="M 0 0 
L 0 3.5 
" style="stroke: #000000"/>
      </defs>
      <g>
       <use xlink:href="#mb47aa6489b" x="37.067188" y="101.269832" style="stroke: #000000"/>
      </g>
     </g>
     <g id="text_1">
      <text font-family="Arial" font-size="10" style="font-size: 10px; font-family: 'Arial'; text-anchor: middle" x="37.067188" y="115.427645" transform="rotate(-0 37.067188 115.427645)">0</text>
     </g>
    </g>
    <g id="xtick_2">
     <g id="line2d_2">
      <g>
       <use xlink:href="#mb47aa6489b" x="80.017116" y="101.269832" style="stroke: #000000"/>
      </g>
     </g>
     <g id="text_2">
      <text font-family="Arial" font-size="10" style="font-size: 10px; font-family: 'Arial'; text-anchor: middle" x="80.017116" y="115.427645" transform="rotate(-0 80.017116 115.427645)">2</text>
     </g>
    </g>
    <g id="xtick_3">
     <g id="line2d_3">
      <g>
       <use xlink:href="#mb47aa6489b" x="122.967045" y="101.269832" style="stroke: #000000"/>
      </g>
     </g>
     <g id="text_3">
      <text font-family="Arial" font-size="10" style="font-size: 10px; font-family: 'Arial'; text-anchor: middle" x="122.967045" y="115.427645" transform="rotate(-0 122.967045 115.427645)">4</text>
     </g>
    </g>
    <g id="text_4">
     <text font-family="Arial" font-size="10" style="font-size: 10px; font-family: 'Arial'; text-anchor: middle" x="87.533354" y="128.694832" transform="rotate(-0 87.533354 128.694832)">Phylo. dist. (days)</text>
    </g>
   </g>
   <g id="matplotlib.axis_2">
    <g id="ytick_1">
     <g id="line2d_4">
      <defs>
       <path id="m93a9a5f4d6" d="M 0 0 
L -3.5 0 
" style="stroke: #000000"/>
      </defs>
      <g>
       <use xlink:href="#m93a9a5f4d6" x="37.067188" y="101.269832" style="stroke: #000000"/>
      </g>
     </g>
     <g id="text_5">
      <text font-family="Arial" font-size="10" style="font-size: 10px; font-family: 'Arial'; text-anchor: end" x="30.067188" y="104.848739" transform="rotate(-0 30.067188 104.848739)">0</text>
     </g>
    </g>
    <g id="ytick_2">
     <g id="line2d_5">
      <g>
       <use xlink:href="#m93a9a5f4d6" x="37.067188" y="72.335595" style="stroke: #000000"/>
      </g>
     </g>
     <g id="text_6">
      <text font-family="Arial" font-size="10" style="font-size: 10px; font-family: 'Arial'; text-anchor: end" x="30.067188" y="75.914501" transform="rotate(-0 30.067188 75.914501)">100</text>
     </g>
    </g>
    <g id="ytick_3">
     <g id="line2d_6">
      <g>
       <use xlink:href="#m93a9a5f4d6" x="37.067188" y="43.401357" style="stroke: #000000"/>
      </g>
     </g>
     <g id="text_7">
      <text font-family="Arial" font-size="10" style="font-size: 10px; font-family: 'Arial'; text-anchor: end" x="30.067188" y="46.980263" transform="rotate(-0 30.067188 46.980263)">200</text>
     </g>
    </g>
    <g id="ytick_4">
     <g id="line2d_7">
      <g>
       <use xlink:href="#m93a9a5f4d6" x="37.067188" y="14.467119" style="stroke: #000000"/>
      </g>
     </g>
     <g id="text_8">
      <text font-family="Arial" font-size="10" style="font-size: 10px; font-family: 'Arial'; text-anchor: end" x="30.067188" y="18.046025" transform="rotate(-0 30.067188 18.046025)">300</text>
     </g>
    </g>
    <g id="text_9">
     <text font-family="Arial" font-size="10" style="font-size: 10px; font-family: 'Arial'; text-anchor: middle" x="7.279688" y="50.634916" transform="rotate(-90 7.279688 50.634916)">Mean spatial dist. (um)</text>
    </g>
   </g>
   <g id="line2d_8">
    <path d="M 47.80467 24.398816 
L 69.279634 24.398816 
L 90.754598 24.398816 
L 112.229563 24.398816 
L 133.704527 24.398816 
" clip-path="url(#pc5e7328446)" style="fill: none; stroke: #000000; stroke-width: 2; stroke-linecap: square"/>
   </g>
   <g id="line2d_9">
    <path d="M 47.80467 71.247483 
L 69.279634 54.067582 
L 90.754598 48.50267 
L 112.229563 28.440005 
L 133.704527 22.023579 
" clip-path="url(#pc5e7328446)" style="fill: none; stroke: #cd2626; stroke-width: 2; stroke-linecap: square"/>
   </g>
   <g id="line2d_10">
    <path d="M 47.80467 68.102385 
L 69.279634 46.23581 
L 90.754598 30.918329 
L 112.229563 12.584673 
L 133.704527 14.520258 
" clip-path="url(#pc5e7328446)" style="fill: none; stroke: #ffe600; stroke-width: 2; stroke-linecap: square"/>
   </g>
   <g id="line2d_11">
    <path d="M 47.80467 62.993317 
L 69.279634 55.178361 
L 90.754598 37.55453 
L 112.229563 26.171911 
L 133.704527 23.698176 
" clip-path="url(#pc5e7328446)" style="fill: none; stroke: #009e73; stroke-width: 2; stroke-linecap: square"/>
   </g>
   <g id="line2d_12">
    <path d="M 47.80467 82.366871 
L 69.279634 53.483178 
L 90.754598 34.728903 
L 112.229563 3.519469 
L 133.704527 11.574797 
" clip-path="url(#pc5e7328446)" style="fill: none; stroke: #1874cd; stroke-width: 2; stroke-linecap: square"/>
   </g>
   <g id="patch_3">
    <path d="M 37.067188 101.269832 
L 37.067188 0 
" style="fill: none; stroke: #000000; stroke-linejoin: miter; stroke-linecap: square"/>
   </g>
   <g id="patch_4">
    <path d="M 37.067188 101.269832 
L 137.99952 101.269832 
" style="fill: none; stroke: #000000; stroke-linejoin: miter; stroke-linecap: square"/>
   </g>
   <g id="legend_1">
    <g id="text_10">
     <text font-family="Arial" font-size="10" style="font-size: 10px; font-family: 'Arial'" transform="translate(78.145614 36.167957)">Detection</text>
     <text font-family="Arial" font-size="10" style="font-size: 10px; font-family: 'Arial'" transform="translate(78.145614 46.744833)">rate</text>
    </g>
    <g id="line2d_13">
     <path d="M 69.535457 54.01202 
L 77.035457 54.01202 
L 84.535457 54.01202 
" style="fill: none; stroke: #cd2626; stroke-width: 2; stroke-linecap: square"/>
    </g>
    <g id="text_11">
     <text font-family="Arial" font-size="10" style="font-size: 10px; font-family: 'Arial'; text-anchor: start" x="89.535457" y="57.51202" transform="rotate(-0 89.535457 57.51202)">(0.6, 0.7]</text>
    </g>
    <g id="line2d_14">
     <path d="M 69.535457 64.896395 
L 77.035457 64.896395 
L 84.535457 64.896395 
" style="fill: none; stroke: #ffe600; stroke-width: 2; stroke-linecap: square"/>
    </g>
    <g id="text_12">
     <text font-family="Arial" font-size="10" style="font-size: 10px; font-family: 'Arial'; text-anchor: start" x="89.535457" y="68.396395" transform="rotate(-0 89.535457 68.396395)">(0.7, 0.8]</text>
    </g>
    <g id="line2d_15">
     <path d="M 69.535457 75.78077 
L 77.035457 75.78077 
L 84.535457 75.78077 
" style="fill: none; stroke: #009e73; stroke-width: 2; stroke-linecap: square"/>
    </g>
    <g id="text_13">
     <text font-family="Arial" font-size="10" style="font-size: 10px; font-family: 'Arial'; text-anchor: start" x="89.535457" y="79.28077" transform="rotate(-0 89.535457 79.28077)">(0.8, 0.9]</text>
    </g>
    <g id="line2d_16">
     <path d="M 69.535457 86.665145 
L 77.035457 86.665145 
L 84.535457 86.665145 
" style="fill: none; stroke: #1874cd; stroke-width: 2; stroke-linecap: square"/>
    </g>
    <g id="text_14">
     <text font-family="Arial" font-size="10" style="font-size: 10px; font-family: 'Arial'; text-anchor: start" x="89.535457" y="90.165145" transform="rotate(-0 89.535457 90.165145)">(0.9, 1.0]</text>
    </g>
   </g>
  </g>
 </g>
 <defs>
  <clipPath id="pc5e7328446">
   <rect x="37.067188" y="0" width="100.932332" height="101.269832"/>
  </clipPath>
 </defs>
</svg>
