<?xml version="1.0" encoding="utf-8" standalone="no"?>
<!DOCTYPE svg PUBLIC "-//W3C//DTD SVG 1.1//EN"
  "http://www.w3.org/Graphics/SVG/1.1/DTD/svg11.dtd">
<svg xmlns:xlink="http://www.w3.org/1999/xlink" width="137.99952pt" height="130.79952pt" viewBox="0 0 137.99952 130.79952" xmlns="http://www.w3.org/2000/svg" version="1.1">
 <metadata>
  <rdf:RDF xmlns:dc="http://purl.org/dc/elements/1.1/" xmlns:cc="http://creativecommons.org/ns#" xmlns:rdf="http://www.w3.org/1999/02/22-rdf-syntax-ns#">
   <cc:Work>
    <dc:type rdf:resource="http://purl.org/dc/dcmitype/StillImage"/>
    <dc:date>2025-10-23T17:51:11.870899</dc:date>
    <dc:format>image/svg+xml</dc:format>
    <dc:creator>
     <cc:Agent>
      <dc:title>Matplotlib v3.10.7, https://matplotlib.org/</dc:title>
     </cc:Agent>
    </dc:creator>
   </cc:Work>
  </rdf:RDF>
 </metadata>
 <defs>
  <style type="text/css">*{stroke-linejoin: round; stroke-linecap: butt}</style>
 </defs>
 <g id="figure_1">
  <g id="patch_1">
   <path d="M 0 130.79952 
L 137.99952 130.79952 
L 137.99952 0 
L 0 0 
z
" style="fill: #ffffff"/>
  </g>
  <g id="axes_1">
   <g id="patch_2">
    <path d="M 37.067188 101.269832 
L 137.99952 101.269832 
L 137.99952 0 
L 37.067188 0 
z
" style="fill: #ffffff"/>
   </g>
   <g id="FillBetweenPolyCollection_1">
    <defs>
     <path id="m813cc4a51f" d="M 47.80467 -106.435802 
L 47.80467 -106.435802 
L 69.279634 -106.435802 
L 90.754598 -106.435802 
L 112.229563 -106.435802 
L 133.704527 -106.435802 
L 133.704527 -106.435802 
L 133.704527 -106.435802 
L 112.229563 -106.435802 
L 90.754598 -106.435802 
L 69.279634 -106.435802 
L 47.80467 -106.435802 
z
" style="stroke: #000000; stroke-opacity: 0.2"/>
    </defs>
    <g clip-path="url(#p78915fc765)">
     <use xlink:href="#m813cc4a51f" x="0" y="130.79952" style="fill-opacity: 0.2; stroke: #000000; stroke-opacity: 0.2"/>
    </g>
   </g>
   <g id="FillBetweenPolyCollection_2">
    <defs>
     <path id="m84331a464a" d="M 47.80467 -106.627026 
L 47.80467 -106.244579 
L 47.80467 -106.244579 
L 47.80467 -106.244579 
L 47.80467 -106.244579 
L 69.279634 -106.244579 
L 69.279634 -106.244579 
L 69.279634 -106.244579 
L 69.279634 -106.244579 
L 90.754598 -106.244579 
L 90.754598 -106.244579 
L 90.754598 -106.244579 
L 90.754598 -106.244579 
L 112.229563 -106.244579 
L 112.229563 -106.244579 
L 112.229563 -106.244579 
L 112.229563 -106.244579 
L 133.704527 -106.244579 
L 133.704527 -106.244579 
L 133.704527 -106.244579 
L 133.704527 -106.244579 
L 133.704527 -106.627026 
L 133.704527 -106.627026 
L 133.704527 -106.627026 
L 133.704527 -106.627026 
L 133.704527 -106.627026 
L 112.229563 -106.627026 
L 112.229563 -106.627026 
L 112.229563 -106.627026 
L 112.229563 -106.627026 
L 90.754598 -106.627026 
L 90.754598 -106.627026 
L 90.754598 -106.627026 
L 90.754598 -106.627026 
L 69.279634 -106.627026 
L 69.279634 -106.627026 
L 69.279634 -106.627026 
L 69.279634 -106.627026 
L 47.80467 -106.627026 
L 47.80467 -106.627026 
L 47.80467 -106.627026 
L 47.80467 -106.627026 
z
" style="stroke: #000000; stroke-opacity: 0.2"/>
    </defs>
    <g clip-path="url(#p78915fc765)">
     <use xlink:href="#m84331a464a" x="0" y="130.79952" style="fill-opacity: 0.2; stroke: #000000; stroke-opacity: 0.2"/>
    </g>
   </g>
   <g id="FillBetweenPolyCollection_3"/>
   <g id="FillBetweenPolyCollection_4">
    <defs>
     <path id="m7703eec180" d="M 47.80467 -65.112318 
L 47.80467 -58.688978 
L 69.279634 -76.198929 
L 90.754598 -87.837659 
L 112.229563 -92.17444 
L 133.704527 -107.416388 
L 133.704527 -109.626433 
L 133.704527 -109.626433 
L 112.229563 -95.28463 
L 90.754598 -91.118924 
L 69.279634 -81.509522 
L 47.80467 -65.112318 
z
" style="stroke: #cd2626; stroke-opacity: 0.2"/>
    </defs>
    <g clip-path="url(#p78915fc765)">
     <use xlink:href="#m7703eec180" x="0" y="130.79952" style="fill: #cd2626; fill-opacity: 0.2; stroke: #cd2626; stroke-opacity: 0.2"/>
    </g>
   </g>
   <g id="FillBetweenPolyCollection_5"/>
   <g id="FillBetweenPolyCollection_6">
    <defs>
     <path id="maca4bae950" d="M 47.80467 -64.203907 
L 47.80467 -55.027946 
L 69.279634 -73.121891 
L 90.754598 -97.004433 
L 112.229563 -105.461699 
L 133.704527 -120.140117 
L 133.704527 -124.054162 
L 133.704527 -124.054162 
L 112.229563 -110.777159 
L 90.754598 -101.959468 
L 69.279634 -82.136099 
L 47.80467 -64.203907 
z
" style="stroke: #ffe600; stroke-opacity: 0.2"/>
    </defs>
    <g clip-path="url(#p78915fc765)">
     <use xlink:href="#maca4bae950" x="0" y="130.79952" style="fill: #ffe600; fill-opacity: 0.2; stroke: #ffe600; stroke-opacity: 0.2"/>
    </g>
   </g>
   <g id="FillBetweenPolyCollection_7"/>
   <g id="FillBetweenPolyCollection_8">
    <defs>
     <path id="mcea11fad9a" d="M 47.80467 -72.606666 
L 47.80467 -66.317825 
L 69.279634 -77.03897 
L 90.754598 -90.46803 
L 112.229563 -95.962883 
L 133.704527 -110.25282 
L 133.704527 -112.212382 
L 133.704527 -112.212382 
L 112.229563 -98.031785 
L 90.754598 -93.328523 
L 69.279634 -81.413866 
L 47.80467 -72.606666 
z
" style="stroke: #009e73; stroke-opacity: 0.2"/>
    </defs>
    <g clip-path="url(#p78915fc765)">
     <use xlink:href="#mcea11fad9a" x="0" y="130.79952" style="fill: #009e73; fill-opacity: 0.2; stroke: #009e73; stroke-opacity: 0.2"/>
    </g>
   </g>
   <g id="FillBetweenPolyCollection_9"/>
   <g id="FillBetweenPolyCollection_10">
    <defs>
     <path id="m12fe2f2026" d="M 47.80467 -63.48639 
L 47.80467 -47.231873 
L 69.279634 -85.903873 
L 90.754598 -98.606615 
L 112.229563 -114.639178 
L 133.704527 -119.790111 
L 133.704527 -125.344493 
L 133.704527 -125.344493 
L 112.229563 -122.837971 
L 90.754598 -110.32583 
L 69.279634 -100.246498 
L 47.80467 -63.48639 
z
" style="stroke: #1874cd; stroke-opacity: 0.2"/>
    </defs>
    <g clip-path="url(#p78915fc765)">
     <use xlink:href="#m12fe2f2026" x="0" y="130.79952" style="fill: #1874cd; fill-opacity: 0.2; stroke: #1874cd; stroke-opacity: 0.2"/>
    </g>
   </g>
   <g id="matplotlib.axis_1">
    <g id="xtick_1">
     <g id="line2d_1">
      <defs>
       <path id="md23351386c" d="M 0 0 
L 0 3.5 
" style="stroke: #000000"/>
      </defs>
      <g>
       <use xlink:href="#md23351386c" x="37.067188" y="101.269832" style="stroke: #000000"/>
      </g>
     </g>
     <g id="text_1">
      <text font-family="Arial" font-size="10" style="font-size: 10px; font-family: 'Arial'; text-anchor: middle" x="37.067188" y="115.427645" transform="rotate(-0 37.067188 115.427645)">0</text>
     </g>
    </g>
    <g id="xtick_2">
     <g id="line2d_2">
      <g>
       <use xlink:href="#md23351386c" x="80.017116" y="101.269832" style="stroke: #000000"/>
      </g>
     </g>
     <g id="text_2">
      <text font-family="Arial" font-size="10" style="font-size: 10px; font-family: 'Arial'; text-anchor: middle" x="80.017116" y="115.427645" transform="rotate(-0 80.017116 115.427645)">2</text>
     </g>
    </g>
    <g id="xtick_3">
     <g id="line2d_3">
      <g>
       <use xlink:href="#md23351386c" x="122.967045" y="101.269832" style="stroke: #000000"/>
      </g>
     </g>
     <g id="text_3">
      <text font-family="Arial" font-size="10" style="font-size: 10px; font-family: 'Arial'; text-anchor: middle" x="122.967045" y="115.427645" transform="rotate(-0 122.967045 115.427645)">4</text>
     </g>
    </g>
    <g id="text_4">
     <text font-family="Arial" font-size="10" style="font-size: 10px; font-family: 'Arial'; text-anchor: middle" x="87.533354" y="128.694832" transform="rotate(-0 87.533354 128.694832)">Phylo. dist. (days)</text>
    </g>
   </g>
   <g id="matplotlib.axis_2">
    <g id="ytick_1">
     <g id="line2d_4">
      <defs>
       <path id="mb8730a6869" d="M 0 0 
L -3.5 0 
" style="stroke: #000000"/>
      </defs>
      <g>
       <use xlink:href="#mb8730a6869" x="37.067188" y="101.269832" style="stroke: #000000"/>
      </g>
     </g>
     <g id="text_5">
      <text font-family="Arial" font-size="10" style="font-size: 10px; font-family: 'Arial'; text-anchor: end" x="30.067188" y="104.848739" transform="rotate(-0 30.067188 104.848739)">0</text>
     </g>
    </g>
    <g id="ytick_2">
     <g id="line2d_5">
      <g>
       <use xlink:href="#mb8730a6869" x="37.067188" y="72.335595" style="stroke: #000000"/>
      </g>
     </g>
     <g id="text_6">
      <text font-family="Arial" font-size="10" style="font-size: 10px; font-family: 'Arial'; text-anchor: end" x="30.067188" y="75.914501" transform="rotate(-0 30.067188 75.914501)">100</text>
     </g>
    </g>
    <g id="ytick_3">
     <g id="line2d_6">
      <g>
       <use xlink:href="#mb8730a6869" x="37.067188" y="43.401357" style="stroke: #000000"/>
      </g>
     </g>
     <g id="text_7">
      <text font-family="Arial" font-size="10" style="font-size: 10px; font-family: 'Arial'; text-anchor: end" x="30.067188" y="46.980263" transform="rotate(-0 30.067188 46.980263)">200</text>
     </g>
    </g>
    <g id="ytick_4">
     <g id="line2d_7">
      <g>
       <use xlink:href="#mb8730a6869" x="37.067188" y="14.467119" style="stroke: #000000"/>
      </g>
     </g>
     <g id="text_8">
      <text font-family="Arial" font-size="10" style="font-size: 10px; font-family: 'Arial'; text-anchor: end" x="30.067188" y="18.046025" transform="rotate(-0 30.067188 18.046025)">300</text>
     </g>
    </g>
    <g id="text_9">
     <text font-family="Arial" font-size="10" style="font-size: 10px; font-family: 'Arial'; text-anchor: middle" x="7.279688" y="50.634916" transform="rotate(-90 7.279688 50.634916)">Mean spatial dist. (um)</text>
    </g>
   </g>
   <g id="line2d_8">
    <path d="M 47.80467 24.363718 
L 69.279634 24.363718 
L 90.754598 24.363718 
L 112.229563 24.363718 
L 133.704527 24.363718 
" clip-path="url(#p78915fc765)" style="fill: none; stroke: #000000; stroke-width: 2; stroke-linecap: square"/>
   </g>
   <g id="line2d_9">
    <path d="M 47.80467 68.898872 
L 69.279634 51.945295 
L 90.754598 41.321228 
L 112.229563 37.069985 
L 133.704527 22.27811 
" clip-path="url(#p78915fc765)" style="fill: none; stroke: #cd2626; stroke-width: 2; stroke-linecap: square"/>
   </g>
   <g id="line2d_10">
    <path d="M 47.80467 71.183594 
L 69.279634 53.170525 
L 90.754598 31.31757 
L 112.229563 22.680091 
L 133.704527 8.70238 
" clip-path="url(#p78915fc765)" style="fill: none; stroke: #ffe600; stroke-width: 2; stroke-linecap: square"/>
   </g>
   <g id="line2d_11">
    <path d="M 47.80467 61.337274 
L 69.279634 51.573102 
L 90.754598 38.901243 
L 112.229563 33.802186 
L 133.704527 19.566919 
" clip-path="url(#p78915fc765)" style="fill: none; stroke: #009e73; stroke-width: 2; stroke-linecap: square"/>
   </g>
   <g id="line2d_12">
    <path d="M 47.80467 75.440389 
L 69.279634 37.724334 
L 90.754598 26.333298 
L 112.229563 12.060945 
L 133.704527 8.232218 
" clip-path="url(#p78915fc765)" style="fill: none; stroke: #1874cd; stroke-width: 2; stroke-linecap: square"/>
   </g>
   <g id="patch_3">
    <path d="M 37.067188 101.269832 
L 37.067188 0 
" style="fill: none; stroke: #000000; stroke-linejoin: miter; stroke-linecap: square"/>
   </g>
   <g id="patch_4">
    <path d="M 37.067188 101.269832 
L 137.99952 101.269832 
" style="fill: none; stroke: #000000; stroke-linejoin: miter; stroke-linecap: square"/>
   </g>
   <g id="legend_1">
    <g id="text_10">
     <text font-family="Arial" font-size="10" style="font-size: 10px; font-family: 'Arial'" transform="translate(78.145614 36.167957)">Detection</text>
     <text font-family="Arial" font-size="10" style="font-size: 10px; font-family: 'Arial'" transform="translate(78.145614 46.744833)">rate</text>
    </g>
    <g id="line2d_13">
     <path d="M 69.535457 54.01202 
L 77.035457 54.01202 
L 84.535457 54.01202 
" style="fill: none; stroke: #cd2626; stroke-width: 2; stroke-linecap: square"/>
    </g>
    <g id="text_11">
     <text font-family="Arial" font-size="10" style="font-size: 10px; font-family: 'Arial'; text-anchor: start" x="89.535457" y="57.51202" transform="rotate(-0 89.535457 57.51202)">(0.6, 0.7]</text>
    </g>
    <g id="line2d_14">
     <path d="M 69.535457 64.896395 
L 77.035457 64.896395 
L 84.535457 64.896395 
" style="fill: none; stroke: #ffe600; stroke-width: 2; stroke-linecap: square"/>
    </g>
    <g id="text_12">
     <text font-family="Arial" font-size="10" style="font-size: 10px; font-family: 'Arial'; text-anchor: start" x="89.535457" y="68.396395" transform="rotate(-0 89.535457 68.396395)">(0.7, 0.8]</text>
    </g>
    <g id="line2d_15">
     <path d="M 69.535457 75.78077 
L 77.035457 75.78077 
L 84.535457 75.78077 
" style="fill: none; stroke: #009e73; stroke-width: 2; stroke-linecap: square"/>
    </g>
    <g id="text_13">
     <text font-family="Arial" font-size="10" style="font-size: 10px; font-family: 'Arial'; text-anchor: start" x="89.535457" y="79.28077" transform="rotate(-0 89.535457 79.28077)">(0.8, 0.9]</text>
    </g>
    <g id="line2d_16">
     <path d="M 69.535457 86.665145 
L 77.035457 86.665145 
L 84.535457 86.665145 
" style="fill: none; stroke: #1874cd; stroke-width: 2; stroke-linecap: square"/>
    </g>
    <g id="text_14">
     <text font-family="Arial" font-size="10" style="font-size: 10px; font-family: 'Arial'; text-anchor: start" x="89.535457" y="90.165145" transform="rotate(-0 89.535457 90.165145)">(0.9, 1.0]</text>
    </g>
   </g>
  </g>
 </g>
 <defs>
  <clipPath id="p78915fc765">
   <rect x="37.067188" y="0" width="100.932332" height="101.269832"/>
  </clipPath>
 </defs>
</svg>
